<svg width="56" height="56" viewBox="0 0 56 56" fill="none" xmlns="http://www.w3.org/2000/svg">
<path d="M23.2945 10.1208C23.4933 10.3161 23.7539 10.4138 24.0143 10.4138C24.2747 10.4138 24.5354 10.3161 24.7342 10.1208L25.4541 9.41383L26.1739 10.1208C26.3727 10.3161 26.6334 10.4138 26.8938 10.4138C27.1542 10.4138 27.4148 10.3161 27.6136 10.1208C28.0112 9.73033 28.0112 9.09733 27.6136 8.70682L26.8938 7.99982L27.6136 7.29282C28.0112 6.90232 28.0112 6.26931 27.6136 5.87881C27.216 5.48831 26.5715 5.48831 26.1739 5.87881L25.4541 6.58582L24.7342 5.87881C24.3366 5.48831 23.6921 5.48831 23.2945 5.87881C22.8969 6.26931 22.8969 6.90232 23.2945 7.29282L24.0143 7.99982L23.2945 8.70682C22.8966 9.09758 22.8966 9.73033 23.2945 10.1208Z" fill="#9AA8FF"/>
<path d="M36.6552 13C37.2175 13 37.6734 12.5523 37.6734 12C37.6734 11.4477 37.2175 11 36.6552 11C36.0928 11 35.637 11.4477 35.637 12C35.637 12.5523 36.0928 13 36.6552 13Z" fill="#9AA8FF"/>
<path d="M33.6007 2C34.163 2 34.6189 1.55228 34.6189 0.999998C34.6189 0.447714 34.163 0 33.6007 0C33.0384 0 32.5825 0.447714 32.5825 0.999998C32.5825 1.55228 33.0384 2 33.6007 2Z" fill="#9AA8FF"/>
<path d="M50.9086 16H21.8021L19.8212 11.9638C19.7945 11.909 19.7627 11.8573 19.7268 11.8085C18.8547 10.6365 17.4427 9.9375 15.9483 9.9375H4.60424C2.06464 9.9375 -0.000488281 11.9308 -0.000488281 14.3808V48.3445C-0.000488281 50.7068 1.8386 52.6415 4.20308 52.9393C4.64166 54.7055 6.26235 56 8.14497 56H48.8722C50.8791 56 52.5407 54.565 52.8742 52.6868C54.6952 52.0205 55.9995 50.333 55.9995 48.3448V21C55.9995 18.2433 53.7155 16 50.9086 16ZM53.9631 48.3448C53.9631 49.8085 52.7123 51 51.1751 51H15.4662C14.9034 51 14.448 51.4473 14.448 52C14.448 52.5528 14.9034 53 15.4662 53H50.6253C50.272 53.5948 49.6224 54 48.8722 54H8.14497C7.40424 54 6.74242 53.5995 6.38606 53H10.2073C10.7701 53 11.2255 52.5528 11.2255 52C11.2255 51.4473 10.7701 51 10.2073 51H4.82391C3.28671 51 2.03588 49.8085 2.03588 48.3448V14.3808C2.03588 13.033 3.1882 11.9375 4.60424 11.9375H15.9483C16.7657 11.9375 17.5382 12.3038 18.0315 12.922L19.542 16H14.2541C13.6913 16 13.2359 16.4473 13.2359 17C13.2359 17.5528 13.6913 18 14.2541 18H50.9086C52.5929 18 53.9631 19.3458 53.9631 21V48.3448Z" fill="#9AA8FF"/>
<path d="M27.7671 33.0121L33.8276 30.6926C34.2412 30.5343 34.5027 30.1311 34.4739 29.6956C34.4451 29.2601 34.1318 28.8938 33.7003 28.7893L19.779 25.4348C19.4221 25.3528 19.0472 25.4593 18.7957 25.7211C18.5442 25.9828 18.4556 26.3578 18.5641 26.7016L22.6785 39.7728C22.8089 40.1888 23.1986 40.4741 23.642 40.4778H23.6509C24.0905 40.4778 24.4812 40.2006 24.6184 39.7903L26.3913 34.4883L35.1146 42.9808C35.3134 43.1741 35.572 43.2708 35.8314 43.2708C36.0938 43.2708 36.3555 43.1721 36.5543 42.9748C36.9501 42.5823 36.9481 41.9493 36.5484 41.5608L27.7671 33.0121ZM23.6804 36.1846L21.0395 27.7978L30.0858 29.9776L25.5676 31.7071C25.5653 31.7081 25.5638 31.7103 25.5615 31.7113C25.4352 31.7606 25.3164 31.8336 25.2148 31.9348C25.2118 31.9378 25.2107 31.9421 25.2079 31.9451C25.1815 31.9718 25.1695 32.0081 25.1461 32.0376C25.0809 32.1208 25.0208 32.2053 24.9862 32.3006C24.9824 32.3103 24.9735 32.3168 24.9704 32.3266L23.6804 36.1846Z" fill="#9AA8FF"/>
</svg>
