<svg width="26" height="32" viewBox="0 0 26 32" fill="none" xmlns="http://www.w3.org/2000/svg">
<path fill-rule="evenodd" clip-rule="evenodd" d="M14.3104 1.89538C13.8791 1.53984 13.216 1.83701 13.216 2.38586V6.05418L21.5825 9.87403C22.2806 10.1927 22.726 10.8734 22.726 11.6214V24.2724C22.726 25.7324 21.1193 26.6645 19.7918 25.9746L19.4654 25.8049V26.8018C19.4654 28.0958 18.1784 29.0238 16.8998 28.6516L6.65008 25.6683C5.80748 25.4231 5.23053 24.6713 5.23053 23.8185V11.9374H1.99258C1.62576 11.9374 1.32839 12.2257 1.32839 12.5813V29.6178C1.32839 29.9733 1.62576 30.2616 1.99258 30.2616H23.2468C23.6136 30.2616 23.911 29.9733 23.911 29.6178V10.106C23.911 9.9172 23.8255 9.73789 23.6771 9.61556L14.3104 1.89538ZM5.23053 10.6498H1.99258C0.89211 10.6498 0 11.5145 0 12.5813V29.6178C0 30.6845 0.892111 31.5492 1.99258 31.5492H23.2468C24.3473 31.5492 25.2394 30.6845 25.2394 29.6178V10.106C25.2394 9.53953 24.9828 9.00159 24.5376 8.63461L15.1709 0.91443C13.8768 -0.152181 11.8876 0.7393 11.8876 2.38586V5.44768L8.07218 3.70572C6.75055 3.10231 5.23053 4.03697 5.23053 5.45305V10.6498ZM6.55892 11.9374V23.8185C6.55892 24.1027 6.75124 24.3534 7.0321 24.4351L17.2818 27.4184C17.708 27.5424 18.137 27.2331 18.137 26.8018V25.1145L12.9386 22.4126C12.2914 22.0763 11.8876 21.4222 11.8876 20.7104V11.9374H6.55892ZM11.8876 10.6498H6.55892V5.45305C6.55892 4.98102 7.0656 4.66947 7.50614 4.8706L11.8876 6.87101V10.6498ZM13.216 11.9374V20.7104C13.216 20.9477 13.3506 21.1657 13.5663 21.2778L18.137 23.6535V12.5813C18.137 12.2257 17.8397 11.9374 17.4728 11.9374H13.216ZM19.4654 24.3439V12.5813C19.4654 11.5145 18.5733 10.6498 17.4728 10.6498H13.216V7.4775L21.0165 11.0389C21.2491 11.1452 21.3976 11.3721 21.3976 11.6214V24.2724C21.3976 24.7591 20.862 25.0698 20.4196 24.8398L19.4654 24.3439Z" fill="#EEF0FF"/>
</svg>
