<svg width="151" height="27" viewBox="0 0 151 27" fill="none" xmlns="http://www.w3.org/2000/svg">
<g clip-path="url(#clip0)">
<path d="M36.8865 5.31348V18.5153H43.4743V21.8975H33.0576V5.31348H36.8865Z" />
<path d="M48.2716 8.6416H44.814V21.8972H48.2716V8.6416Z" />
<path d="M53.7541 8.6417V10.4874H53.8292C54.2161 9.766 54.8096 9.18032 55.5315 8.80745C56.1964 8.46634 56.9306 8.28689 57.6758 8.28332C58.4534 8.25573 59.2284 8.3899 59.9528 8.67754C60.5078 8.91527 60.9912 9.2969 61.3544 9.78403C61.713 10.2971 61.9588 10.8822 62.0751 11.4998C62.2169 12.2376 62.2851 12.988 62.2785 13.7397V21.8928H58.821V14.4116C58.8741 13.5657 58.7064 12.7205 58.3346 11.9612C58.1444 11.682 57.8835 11.4598 57.5793 11.3179C57.2752 11.176 56.9389 11.1197 56.6059 11.1548C56.2182 11.1217 55.8285 11.1862 55.4713 11.3425C55.1142 11.4988 54.8007 11.7421 54.5588 12.0508C54.1166 12.6421 53.9265 13.6142 53.9265 14.9626V21.8973H50.4734V8.6417H53.7541Z" />
<path d="M72.713 21.8972V20.0515H72.6422C72.2491 20.724 71.6498 21.2479 70.9356 21.5433C70.2691 21.879 69.5355 22.0552 68.7912 22.0584C68.0145 22.0841 67.2405 21.9531 66.5142 21.6732C65.9578 21.4465 65.4731 21.0701 65.1126 20.5846C64.7554 20.141 64.5083 19.6172 64.3919 19.057C64.2501 18.3192 64.182 17.5688 64.1885 16.8171V8.6416H67.6461V16.1273C67.5929 16.9732 67.7607 17.8183 68.1324 18.5777C68.3226 18.8569 68.5835 19.0791 68.8877 19.221C69.1919 19.3629 69.5281 19.4192 69.8612 19.384C70.2488 19.4171 70.6386 19.3527 70.9957 19.1964C71.3528 19.04 71.6663 18.7967 71.9083 18.4881C72.3504 17.8968 72.5405 16.9291 72.5405 15.5763V8.6416H76.0025V21.8972H72.713Z" />
<path d="M81.4585 8.64155V10.4335H81.5071C81.9276 9.78243 82.4904 9.23826 83.1519 8.84314C83.8255 8.4576 84.5891 8.26265 85.3626 8.27869C86.1161 8.26936 86.8617 8.43486 87.5423 8.76251C88.2352 9.12766 88.7695 9.74078 89.0412 10.4827C89.4415 9.8725 89.9587 9.34997 90.5621 8.94618C91.2348 8.4905 92.0303 8.2573 92.8391 8.27869C93.4649 8.27941 94.0874 8.37144 94.6873 8.55196C95.2309 8.70747 95.7317 8.98801 96.1507 9.37175C96.5757 9.7812 96.8998 10.286 97.0969 10.8456C97.3426 11.55 97.4595 12.2938 97.4418 13.0407V21.9106H93.9798V14.3756C93.9798 13.9277 93.9798 13.511 93.9312 13.1213C93.9109 12.7649 93.8207 12.4162 93.6659 12.0954C93.5201 11.8067 93.2962 11.5659 93.0204 11.4011C92.6632 11.2142 92.2636 11.1262 91.862 11.1457C91.4486 11.1265 91.0385 11.2293 90.6815 11.4414C90.3854 11.6319 90.142 11.8955 89.9741 12.2074C89.7952 12.5427 89.6798 12.9088 89.6336 13.2871C89.5751 13.6905 89.5456 14.0977 89.5452 14.5055V21.8971H86.0877V14.4607C86.0877 14.0665 86.0877 13.6813 86.0611 13.296C86.0503 12.9319 85.9816 12.5718 85.8578 12.2298C85.7382 11.9127 85.5252 11.6405 85.2476 11.4504C84.8673 11.2276 84.4302 11.1247 83.9919 11.1547C83.7725 11.163 83.5552 11.2022 83.3464 11.2712C83.0579 11.3612 82.7923 11.5141 82.5682 11.7191C82.2867 11.9731 82.0659 12.2887 81.9227 12.642C81.7244 13.1425 81.6325 13.6798 81.653 14.2188V21.8971H78.1955V8.64155H81.4585Z" />
<path d="M103.256 5.31348V18.5153H109.844V21.8975H99.4314V5.31348H103.256Z" />
<path d="M119.642 21.9285L123.002 21.8972C123.002 21.8972 122.958 19.5453 122.958 18.9495V12.0507C122.992 11.367 122.812 10.6899 122.445 10.1154C122.103 9.62863 121.648 9.23596 121.118 8.97308C120.562 8.69333 119.965 8.50723 119.35 8.42208C118.711 8.32951 118.067 8.2831 117.422 8.2832C116.723 8.2833 116.025 8.35535 115.34 8.49823C114.683 8.63263 114.053 8.87957 113.478 9.22843C112.879 9.58854 112.382 10.0986 112.033 10.7098C111.685 11.3209 111.497 12.0125 111.489 12.7182H114.951C114.952 12.4275 115.013 12.1403 115.131 11.8749C115.248 11.6096 115.418 11.372 115.631 11.1771C116.104 10.8511 116.67 10.6935 117.241 10.7291C117.535 10.725 117.83 10.746 118.121 10.7919C118.372 10.8256 118.613 10.9126 118.828 11.0472C119.034 11.1795 119.202 11.365 119.314 11.5848C119.451 11.8767 119.515 12.1983 119.5 12.521C119.517 12.6796 119.497 12.84 119.442 12.9894C119.387 13.1388 119.297 13.2729 119.182 13.3812C118.911 13.5995 118.595 13.7527 118.258 13.8291C117.822 13.9394 117.378 14.0173 116.931 14.0621C116.427 14.1114 115.914 14.1786 115.397 14.2637C114.875 14.3509 114.359 14.4675 113.85 14.6131C113.354 14.7462 112.887 14.9694 112.47 15.2716C112.06 15.5768 111.727 15.9759 111.497 16.4363C111.225 17.016 111.094 17.6538 111.117 18.2954C111.099 18.91 111.212 19.5212 111.449 20.0873C111.664 20.4997 111.983 20.8473 112.373 21.0953C112.774 21.428 113.239 21.6721 113.739 21.812C114.285 21.972 114.851 22.0505 115.419 22.045C116.196 22.0446 116.969 21.9237 117.709 21.6866C118.443 21.5178 119.117 21.1491 119.659 20.6204C119.659 20.8444 119.659 21.2924 119.659 21.2924L119.642 21.9285ZM119.5 16.7678C119.494 17.0421 119.474 17.3157 119.438 17.5876C119.393 17.9445 119.282 18.2895 119.111 18.6045C118.911 18.9576 118.625 19.2523 118.28 19.4602C117.796 19.7279 117.247 19.8521 116.697 19.8186C116.433 19.8223 116.17 19.7998 115.91 19.7514C115.667 19.709 115.436 19.6176 115.229 19.4826C115.032 19.352 114.872 19.1713 114.765 18.9584C114.645 18.7028 114.587 18.4216 114.597 18.1386C114.584 17.8468 114.642 17.5561 114.765 17.292C114.87 17.0775 115.021 16.8893 115.207 16.741C115.406 16.5886 115.629 16.4705 115.866 16.3915C116.117 16.3065 116.374 16.2392 116.635 16.19C116.909 16.1362 117.183 16.0959 117.462 16.06C117.74 16.0242 118.001 15.9839 118.253 15.9301C118.494 15.8846 118.73 15.8202 118.961 15.7375C119.164 15.6718 119.35 15.5634 119.509 15.4194L119.5 16.7678Z" />
<path d="M137.332 12.1359C137.07 11.3428 136.66 10.6082 136.125 9.97216C135.674 9.42938 135.113 8.99222 134.48 8.69095C133.888 8.42402 133.248 8.28517 132.601 8.28329C131.826 8.2816 131.06 8.44331 130.35 8.75815C129.638 9.06387 129.036 9.5868 128.63 10.2544H128.582V5.32666H125.124V21.9017H128.414V20.1994H128.462C128.818 20.8567 129.41 21.3494 130.116 21.5747C130.907 21.8871 131.752 22.0393 132.601 22.0227C133.249 22.0191 133.889 21.8788 134.48 21.6105C135.119 21.3202 135.688 20.8922 136.147 20.3562C136.67 19.7966 137.074 19.133 137.332 18.4075C137.661 17.3965 137.818 16.3361 137.796 15.2717C137.817 14.2073 137.66 13.147 137.332 12.1359ZM134.166 16.8934C134.063 17.3693 133.881 17.8239 133.626 18.2373C133.394 18.6133 133.081 18.9316 132.711 19.1691C132.305 19.397 131.849 19.5165 131.385 19.5165C130.921 19.5165 130.464 19.397 130.058 19.1691C129.683 18.9341 129.366 18.6135 129.134 18.2328C128.88 17.8194 128.697 17.3648 128.595 16.8889C128.482 16.3665 128.426 15.8333 128.427 15.2986C128.425 14.7564 128.482 14.2157 128.595 13.6859C128.697 13.2099 128.88 12.7553 129.134 12.3419C129.362 11.9482 129.679 11.615 130.058 11.3698C130.464 11.142 130.921 11.0224 131.385 11.0224C131.849 11.0224 132.305 11.142 132.711 11.3698C133.08 11.6091 133.391 11.929 133.622 12.3061C133.876 12.7195 134.059 13.1741 134.161 13.65C134.275 14.1799 134.331 14.7206 134.329 15.2627C134.333 15.8033 134.278 16.3426 134.166 16.871V16.8934Z" />
<path d="M142.363 18.6046C142.508 18.8797 142.712 19.1184 142.96 19.3035C143.213 19.4885 143.498 19.6237 143.8 19.7022C144.122 19.7874 144.453 19.8295 144.786 19.8276C145.037 19.8306 145.288 19.8051 145.533 19.7515C145.791 19.6975 146.039 19.6023 146.267 19.4692C146.486 19.3433 146.673 19.1687 146.815 18.9585C146.968 18.7187 147.043 18.4371 147.032 18.1522C147.032 17.6057 146.687 17.1935 145.997 16.9203C145.057 16.5745 144.091 16.3005 143.11 16.1005C142.606 15.9795 142.115 15.8406 141.638 15.6749C141.183 15.5261 140.753 15.3103 140.36 15.0343C139.995 14.7732 139.692 14.4316 139.476 14.0353C139.235 13.5833 139.118 13.0746 139.135 12.5615C139.105 11.8309 139.268 11.1053 139.609 10.4605C139.911 9.92598 140.343 9.47876 140.864 9.16134C141.41 8.8359 142.009 8.6114 142.633 8.49834C143.29 8.36823 143.958 8.30371 144.627 8.30571C145.294 8.30397 145.959 8.37152 146.612 8.5073C147.221 8.63375 147.804 8.86885 148.332 9.20166C148.84 9.53365 149.269 9.97585 149.588 10.4963C149.945 11.1174 150.15 11.8165 150.184 12.5346H146.895C146.904 12.2507 146.839 11.9695 146.706 11.7193C146.573 11.4692 146.378 11.259 146.139 11.11C145.641 10.8526 145.088 10.7248 144.53 10.7382C144.318 10.7392 144.107 10.7527 143.897 10.7785C143.684 10.8013 143.475 10.8572 143.278 10.9443C143.092 11.0273 142.928 11.1549 142.801 11.3161C142.652 11.5364 142.585 11.8032 142.611 12.0689C142.638 12.3347 142.757 12.5822 142.947 12.7675C143.207 12.9892 143.507 13.158 143.831 13.2648C144.242 13.4075 144.661 13.5242 145.087 13.6142C145.56 13.7128 146.037 13.8248 146.524 13.9457C147.022 14.0685 147.513 14.2181 147.996 14.3937C148.455 14.5533 148.887 14.7829 149.278 15.0746C149.643 15.3581 149.945 15.7169 150.162 16.1273C150.403 16.6068 150.52 17.1399 150.503 17.6773C150.529 18.3796 150.356 19.0747 150.003 19.6798C149.684 20.2499 149.237 20.7363 148.699 21.0999C148.137 21.457 147.513 21.7018 146.86 21.8211C146.166 21.9685 145.459 22.0421 144.751 22.0406C144.031 22.0426 143.313 21.9645 142.611 21.8077C141.948 21.6703 141.315 21.4107 140.745 21.0416C140.202 20.675 139.748 20.1878 139.418 19.6171C139.045 19.0075 138.846 18.305 138.844 17.5877H142.133C142.123 17.941 142.202 18.2911 142.363 18.6046Z" />
<path d="M28.9722 18.309L25.0814 11.4818L24.9045 11.1727H21.7344L23.1492 8.69097L23.3217 8.38186L23.1492 8.07276L19.2496 1.24563L19.0815 0.936523H10.5881L10.4112 1.24563L6.52038 8.07276L6.34353 8.38186L6.52038 8.69097L7.93523 11.1727H4.75625L4.5794 11.4818L0.688574 18.309L0.511719 18.6181L0.688574 18.9272L4.5794 25.7543L4.75625 26.0634H13.2409L13.4178 25.7543L14.8282 23.2725L16.243 25.7543L16.4199 26.0634H24.9045L25.0814 25.7543L28.9722 18.9272L29.149 18.6181L28.9722 18.309ZM17.145 11.7193V11.6879L18.7234 8.50282H22.0704L20.1913 11.7193H17.145ZM20.6821 12.2524L24.0423 18.4523H20.7396L18.2769 13.883L17.3926 12.23L20.6821 12.2524ZM16.6675 11.5983L14.8149 15.0567H11.7199L15.1023 8.50282H18.2415L16.6675 11.5983ZM11.3618 14.7341L9.71263 11.9612L13.1259 5.41627L14.7707 8.29675L11.3618 14.7341ZM11.0435 15.0164H7.06422L5.46809 12.212L9.44734 12.2792L11.0435 15.0164ZM11.437 15.4375H11.49L14.8414 15.4778L15.7832 17.3369L16.3093 18.4075L8.95657 18.309L7.35161 15.4195L11.437 15.4375ZM16.1236 17.1532L15.2173 15.2717L16.8355 12.0956H16.8709L17.9231 14.0398L20.3638 18.7032L18.5952 21.96L17.313 19.4961L16.1236 17.1532ZM18.7765 22.5289L20.8147 18.9093L20.8501 18.8555H24.0821L20.6777 25.0824L17.313 25.1272L18.7765 22.5289ZM21.1905 12.2524H24.4093L27.9243 18.4523H25.2317H24.4933L21.1905 12.2524ZM18.5864 8.10412H15.1023L13.4575 5.21468H20.3593L22.0571 8.10412H18.5864ZM13.2321 4.82494L12.7722 4.07235L11.4458 1.86831H18.4802L20.1383 4.81598L13.2321 4.82494ZM12.4495 4.28737L12.8916 5.03549L9.42524 11.5714L7.54173 8.29675L11.0788 2.06094L12.4495 4.28737ZM8.62054 18.5016L6.96252 21.3955L3.48731 15.3792L5.14091 12.3957L8.62054 18.5016ZM6.74588 21.7897L6.51154 22.2377L5.1188 24.8584L1.58169 18.6808L3.25298 15.769L6.74588 21.7897ZM5.48136 25.1003L6.85199 22.4124L7.09074 21.9645H14.2888L12.5423 25.06L5.48136 25.1003ZM7.30739 21.5882L8.95215 18.6987L16.0264 18.8197L14.3683 21.5882H7.30739ZM16.4995 18.8555L16.9637 19.6708L18.3564 22.4393L16.9681 24.9659L15.0183 21.4403L16.4995 18.8555ZM21.1021 25.0734L24.5906 18.8555H25.2273L27.9287 18.8869L24.3872 25.0913L21.1021 25.0734Z" />
</g>
<defs>
<clipPath id="clip0">
<rect width="150" height="25.1269" fill="white" transform="translate(0.511719 0.936523)"/>
</clipPath>
</defs>
</svg>