<svg width="153" height="39" viewBox="0 0 153 39" xmlns="http://www.w3.org/2000/svg">
<path d="M87.2819 12.8101L84.99 28.7725C84.9889 28.7777 84.986 28.7823 84.9819 28.7856C84.9778 28.7889 84.9728 28.7907 84.9675 28.7907C84.9622 28.7907 84.9571 28.7889 84.953 28.7856C84.9489 28.7823 84.946 28.7777 84.9449 28.7725L82.932 12.8091C82.9313 12.8034 82.9285 12.7982 82.9243 12.7943C82.9201 12.7905 82.9147 12.7883 82.909 12.7881H77.197C77.1912 12.7881 77.1856 12.7902 77.1814 12.7941C77.1771 12.798 77.1744 12.8033 77.1739 12.8091L75.16 28.7725C75.1589 28.7777 75.156 28.7823 75.1519 28.7856C75.1478 28.7889 75.1427 28.7907 75.1374 28.7907C75.1321 28.7907 75.1271 28.7889 75.123 28.7856C75.1189 28.7823 75.116 28.7777 75.115 28.7725L72.823 12.8101C72.8225 12.8046 72.82 12.7995 72.8159 12.7958C72.8118 12.7921 72.8065 12.7901 72.801 12.7901H69.318C69.3146 12.7902 69.3113 12.791 69.3083 12.7925C69.3053 12.7939 69.3027 12.796 69.3005 12.7985C69.2983 12.801 69.2967 12.804 69.2957 12.8072C69.2948 12.8104 69.2946 12.8138 69.295 12.8171L72.202 31.2913C72.2029 31.2967 72.2057 31.3016 72.2099 31.305C72.2141 31.3085 72.2195 31.3104 72.2249 31.3103H77.925C77.9304 31.3106 77.9357 31.3088 77.9398 31.3052C77.9439 31.3017 77.9465 31.2967 77.947 31.2913L80.0269 15.3549C80.028 15.3497 80.0309 15.3451 80.035 15.3418C80.0391 15.3385 80.0441 15.3366 80.0494 15.3366C80.0547 15.3366 80.0598 15.3385 80.0639 15.3418C80.068 15.3451 80.0709 15.3497 80.072 15.3549L82.1519 31.2913C82.1527 31.2968 82.1555 31.3018 82.1598 31.3053C82.164 31.3088 82.1695 31.3106 82.175 31.3103H87.875C87.8804 31.3102 87.8856 31.3083 87.8897 31.3048C87.8939 31.3014 87.8968 31.2966 87.8979 31.2913L90.8039 12.8171C90.8045 12.8138 90.8044 12.8105 90.8036 12.8073C90.8027 12.8041 90.8012 12.8011 90.7992 12.7985C90.7971 12.796 90.7944 12.7939 90.7915 12.7924C90.7885 12.791 90.7853 12.7902 90.7819 12.7901H87.2989C87.2934 12.7902 87.2881 12.7923 87.2839 12.796C87.2797 12.7996 87.2769 12.8046 87.276 12.8101" />
<path d="M151.251 13.6797C150.83 13.2116 150.31 12.8438 149.728 12.6032C149.147 12.3626 148.519 12.2553 147.89 12.2894C147.044 12.2577 146.207 12.4728 145.481 12.9083C144.755 13.3438 144.171 13.981 143.801 14.7422H143.787C143.553 14.0754 143.137 13.487 142.587 13.043C141.918 12.5252 141.088 12.2579 140.242 12.2874C139.428 12.2702 138.627 12.4957 137.942 12.9351C137.364 13.3312 136.908 13.8805 136.626 14.5213V12.8131C136.626 12.807 136.624 12.8012 136.619 12.7969C136.615 12.7925 136.609 12.7901 136.603 12.7901H133.203C133.197 12.7901 133.191 12.7925 133.187 12.7969C133.182 12.8012 133.18 12.807 133.18 12.8131V31.2884C133.18 31.2913 133.181 31.2943 133.182 31.297C133.183 31.2997 133.185 31.3022 133.187 31.3043C133.189 31.3063 133.191 31.3079 133.194 31.309C133.197 31.31 133.2 31.3105 133.203 31.3103H136.603C136.606 31.3105 136.609 31.31 136.612 31.309C136.614 31.3079 136.617 31.3063 136.619 31.3043C136.621 31.3022 136.623 31.2997 136.624 31.297C136.625 31.2943 136.626 31.2913 136.626 31.2884V18.6603C136.587 17.8561 136.812 17.0612 137.267 16.3964C137.469 16.1273 137.735 15.9123 138.04 15.7706C138.345 15.629 138.681 15.5652 139.017 15.5848C139.3 15.5724 139.582 15.6259 139.84 15.7408C140.099 15.8558 140.328 16.0293 140.508 16.2475C140.907 16.746 141.112 17.3726 141.084 18.0106V31.2884C141.084 31.2913 141.085 31.2943 141.086 31.297C141.087 31.2997 141.089 31.3022 141.091 31.3043C141.093 31.3063 141.095 31.3079 141.098 31.309C141.101 31.31 141.104 31.3105 141.107 31.3103H144.507C144.51 31.3105 144.513 31.31 144.516 31.309C144.519 31.3079 144.521 31.3063 144.523 31.3043C144.525 31.3022 144.527 31.2997 144.528 31.297C144.529 31.2943 144.53 31.2913 144.53 31.2884V18.8772C144.457 17.9859 144.692 17.0966 145.196 16.3574C145.398 16.1066 145.656 15.9063 145.949 15.7723C146.242 15.6384 146.563 15.5745 146.885 15.5858C147.185 15.5577 147.486 15.605 147.763 15.7236C148.039 15.8422 148.282 16.0281 148.468 16.2645C148.834 16.8257 149.016 17.4872 148.987 18.1566V31.2884C148.987 31.2913 148.988 31.2943 148.989 31.297C148.99 31.2997 148.992 31.3022 148.994 31.3043C148.996 31.3063 148.998 31.3079 149.001 31.309C149.004 31.31 149.007 31.3105 149.01 31.3103H152.433V17.218C152.486 15.9332 152.068 14.6733 151.256 13.6757" />
<path d="M111.404 29.2962L109.251 31.7001C109.246 31.7041 109.241 31.7063 109.234 31.7063C109.228 31.7063 109.223 31.7041 109.218 31.7001L105.424 28.4136C105.42 28.411 105.416 28.4096 105.411 28.4096C105.406 28.4096 105.402 28.411 105.398 28.4136L100.86 31.0624C100.12 31.4945 99.2773 31.7209 98.42 31.7181C97.1338 31.7094 95.8981 31.2153 94.9609 30.3347C94.4778 29.8842 94.0951 29.337 93.8379 28.7287C93.5806 28.1203 93.4546 27.4647 93.468 26.8044C93.4676 25.9391 93.6964 25.0892 94.1313 24.3411C94.5663 23.593 95.1917 22.9734 95.944 22.5454L105.109 17.2749C105.113 17.2729 105.115 17.27 105.118 17.2665C105.12 17.263 105.121 17.259 105.121 17.2549V16.0895C105.121 16.0831 105.118 16.077 105.114 16.0725C105.109 16.068 105.103 16.0655 105.097 16.0655H94.397C94.394 16.0655 94.391 16.0649 94.3883 16.0637C94.3856 16.0625 94.3831 16.0608 94.3811 16.0587C94.379 16.0565 94.3774 16.054 94.3763 16.0512C94.3753 16.0484 94.3749 16.0454 94.375 16.0425V12.813C94.375 12.8072 94.3773 12.8016 94.3815 12.7975C94.3856 12.7933 94.3911 12.791 94.397 12.791H108.371C108.377 12.791 108.383 12.7933 108.387 12.7974C108.391 12.8015 108.394 12.8071 108.394 12.813V26.6475C108.394 26.6539 108.397 26.66 108.402 26.6644L111.402 29.2632C111.404 29.2653 111.406 29.2678 111.407 29.2707C111.409 29.2735 111.409 29.2766 111.409 29.2797C111.409 29.2828 111.409 29.2859 111.407 29.2888C111.406 29.2916 111.404 29.2941 111.402 29.2962H111.404ZM99.223 28.2227L105.111 24.8083C105.114 24.8063 105.118 24.8034 105.12 24.7999C105.122 24.7964 105.123 24.7924 105.123 24.7883V21.0901C105.123 21.0861 105.122 21.0822 105.119 21.0788C105.117 21.0754 105.114 21.0726 105.111 21.0706C105.107 21.0686 105.103 21.0675 105.099 21.0674C105.095 21.0673 105.092 21.0683 105.088 21.0701L97.588 25.3811C97.3312 25.5179 97.1171 25.7229 96.9692 25.9735C96.8214 26.2241 96.7455 26.5105 96.75 26.8014C96.7606 27.2325 96.9367 27.643 97.2418 27.948C97.5469 28.2529 97.9577 28.429 98.389 28.4396C98.6828 28.4449 98.9723 28.3691 99.2259 28.2207" />
<path d="M127.779 14.0854C127.22 13.5066 126.547 13.0484 125.804 12.739C125.061 12.4296 124.262 12.2755 123.457 12.2863C122.519 12.2612 121.589 12.4623 120.746 12.8726C119.902 13.2828 119.17 13.8901 118.611 14.6431C118.609 14.6455 118.607 14.6473 118.604 14.6486C118.601 14.6499 118.598 14.6505 118.595 14.6505C118.592 14.6505 118.589 14.6499 118.586 14.6486C118.583 14.6473 118.581 14.6455 118.579 14.6431L116.417 12.6601C116.415 12.6579 116.412 12.6562 116.41 12.655C116.407 12.6538 116.404 12.6532 116.401 12.6532C116.398 12.6532 116.395 12.6538 116.392 12.655C116.39 12.6562 116.387 12.6579 116.385 12.6601L114.255 15.038C114.253 15.04 114.251 15.0425 114.25 15.0452C114.249 15.048 114.248 15.051 114.248 15.054C114.248 15.0569 114.249 15.0599 114.25 15.0627C114.251 15.0654 114.253 15.0679 114.255 15.0699L117.327 17.8556C117.329 17.8577 117.331 17.8604 117.332 17.8633C117.334 17.8663 117.334 17.8694 117.334 17.8726V28.0378C117.334 28.0408 117.334 28.0437 117.333 28.0465C117.332 28.0493 117.33 28.0519 117.328 28.054C117.326 28.0562 117.323 28.0579 117.321 28.059C117.318 28.0602 117.315 28.0608 117.312 28.0608H114.259C114.253 28.0608 114.247 28.0632 114.243 28.0675C114.238 28.0718 114.236 28.0777 114.236 28.0838V31.2763C114.236 31.2824 114.238 31.2882 114.243 31.2925C114.247 31.2968 114.253 31.2993 114.259 31.2993H125.259C125.265 31.2993 125.271 31.2968 125.275 31.2925C125.28 31.2882 125.282 31.2824 125.282 31.2763V28.0858C125.282 28.0797 125.28 28.0738 125.275 28.0695C125.271 28.0652 125.265 28.0628 125.259 28.0628H120.597C120.594 28.0628 120.591 28.0622 120.588 28.061C120.585 28.0599 120.583 28.0582 120.581 28.0561C120.579 28.0539 120.577 28.0514 120.576 28.0486C120.575 28.0458 120.574 28.0428 120.574 28.0398V18.5593C120.559 17.824 120.816 17.109 121.296 16.5514C121.776 15.9938 122.444 15.6329 123.174 15.5377C123.573 15.5005 123.976 15.5469 124.357 15.6739C124.737 15.801 125.087 16.0059 125.384 16.2756C125.681 16.5453 125.919 16.8739 126.082 17.2404C126.244 17.6069 126.329 18.0033 126.33 18.4044V19.4599C126.33 19.4661 126.332 19.472 126.337 19.4765C126.341 19.481 126.347 19.4836 126.353 19.4839H129.553C129.556 19.4839 129.559 19.4832 129.562 19.482C129.565 19.4808 129.567 19.479 129.57 19.4768C129.572 19.4745 129.573 19.4719 129.575 19.469C129.576 19.4661 129.576 19.463 129.576 19.4599V18.4044C129.587 17.5998 129.432 16.8016 129.123 16.0588C128.813 15.3161 128.355 14.6445 127.776 14.0854" />
<path d="M65.9521 23.6143C65.7373 23.1052 65.4036 22.6548 64.979 22.3009C64.5422 21.885 64.0221 21.5665 63.453 21.3664C62.886 21.1059 62.2966 20.8972 61.6921 20.7427C61.0851 20.5807 60.4301 20.4108 59.6921 20.2709C58.5851 20.099 57.5155 19.7401 56.5291 19.2094C56.242 19.0471 56.0016 18.8136 55.8311 18.5314C55.6606 18.2492 55.5658 17.9278 55.5557 17.5983C55.5456 17.2688 55.6207 16.9422 55.7737 16.6502C55.9267 16.3581 56.1523 16.1104 56.429 15.9309C57.2783 15.4014 58.3014 15.2252 59.2791 15.4402C60.2157 15.6742 61.0765 16.1447 61.7791 16.8065C61.9241 16.9345 63.4061 18.2958 63.3791 18.3268L65.51 15.9139C65.51 15.9139 64.4841 14.8754 63.9981 14.4526C62.8585 13.383 61.442 12.6538 59.9091 12.3476C58.311 12.0969 56.6745 12.3443 55.2221 13.0563C54.838 13.2545 54.4756 13.4924 54.141 13.766C53.545 14.2349 53.0661 14.836 52.7425 15.5218C52.4188 16.2075 52.2591 16.9591 52.276 17.7171C52.2176 18.4144 52.335 19.1153 52.6175 19.7556C52.8999 20.3959 53.3384 20.9552 53.893 21.3824C55.2065 22.2705 56.693 22.871 58.255 23.1445C59.4869 23.3642 60.6895 23.7248 61.839 24.219C62.143 24.3169 62.4071 24.5105 62.5918 24.7708C62.7766 25.0311 62.8721 25.3442 62.864 25.6633C62.8836 26.0548 62.7963 26.4443 62.6115 26.7901C62.4267 27.1358 62.1514 27.4249 61.815 27.6264C61.0034 28.0906 60.0853 28.3361 59.1503 28.3391C58.2153 28.3421 57.2955 28.1024 56.481 27.6434C55.8216 27.2099 55.2025 26.7181 54.631 26.1741C54.171 25.7823 53.731 25.3615 53.293 24.9507L53.276 24.9327L51.2021 27.4315C51.1951 27.4395 52.216 28.376 52.302 28.457C53.6222 29.7877 55.2826 30.7305 57.1021 31.1827C57.7768 31.3191 58.4636 31.3861 59.152 31.3826C60.9775 31.4478 62.7706 30.8886 64.235 29.7974C64.92 29.2865 65.4708 28.6172 65.8402 27.8469C66.2097 27.0765 66.3866 26.2282 66.356 25.3745C66.357 24.764 66.2167 24.1616 65.9461 23.6143" />
<path d="M17.454 33.6021V23.8318L8.72705 18.9341L0 23.8318V33.6011L8.72705 38.4988L17.454 33.6021Z" />
<path d="M28.851 10.8971L28.892 10.9181L33.501 8.33029V3.10977L28.851 0.5L24.2369 3.08978V3.13076V8.3073L28.851 10.8971Z" />
<path d="M19.9771 23.8327V33.6021L28.704 38.4998L37.433 33.6021V23.8327L28.705 18.9351L19.9771 23.8327Z" />
<path d="M23.137 10.2621L21.993 9.6204V3.86613L18.652 1.87207L9.93396 6.76975V16.5391L18.66 21.4368L27.387 16.5391V12.647L23.137 10.2621Z" />
</svg>
