<svg width="702" height="518" viewBox="0 0 702 518" fill="none" xmlns="http://www.w3.org/2000/svg">
<g filter="url(#filter0_d)">
<rect x="298.746" y="20" width="105.006" height="53.2929" rx="26.6464" fill="#27292E"/>
<path d="M331.864 49.0985C331.686 49.6958 331.406 50.1952 331.024 50.5965C330.641 50.9978 330.188 51.2965 329.666 51.4925C329.143 51.6885 328.569 51.7865 327.944 51.7865C327.029 51.7865 326.236 51.5952 325.564 51.2125C324.901 50.8298 324.388 50.2838 324.024 49.5745C323.669 48.8652 323.492 48.0158 323.492 47.0265C323.492 46.0372 323.669 45.1878 324.024 44.4785C324.388 43.7692 324.901 43.2232 325.564 42.8405C326.236 42.4578 327.02 42.2665 327.916 42.2665C328.55 42.2665 329.124 42.3552 329.638 42.5325C330.151 42.7005 330.585 42.9665 330.94 43.3305C331.304 43.6852 331.57 44.1285 331.738 44.6605L329.988 45.4025C329.829 44.8425 329.586 44.4458 329.26 44.2125C328.933 43.9698 328.513 43.8485 328 43.8485C327.496 43.8485 327.052 43.9698 326.67 44.2125C326.296 44.4552 326.007 44.8145 325.802 45.2905C325.596 45.7572 325.494 46.3358 325.494 47.0265C325.494 47.7078 325.587 48.2865 325.774 48.7625C325.97 49.2385 326.254 49.5978 326.628 49.8405C327.001 50.0832 327.458 50.2045 328 50.2045C328.504 50.2045 328.938 50.0692 329.302 49.7985C329.675 49.5278 329.936 49.1172 330.086 48.5665L331.864 49.0985ZM336.506 44.5065C337.215 44.5065 337.836 44.6512 338.368 44.9405C338.909 45.2298 339.329 45.6452 339.628 46.1865C339.936 46.7278 340.09 47.3812 340.09 48.1465C340.09 48.9025 339.936 49.5558 339.628 50.1065C339.329 50.6478 338.909 51.0632 338.368 51.3525C337.836 51.6418 337.215 51.7865 336.506 51.7865C335.806 51.7865 335.185 51.6418 334.644 51.3525C334.103 51.0632 333.678 50.6478 333.37 50.1065C333.071 49.5558 332.922 48.9025 332.922 48.1465C332.922 47.3812 333.071 46.7278 333.37 46.1865C333.678 45.6452 334.103 45.2298 334.644 44.9405C335.185 44.6512 335.806 44.5065 336.506 44.5065ZM336.506 45.9345C336.151 45.9345 335.848 46.0185 335.596 46.1865C335.353 46.3452 335.167 46.5878 335.036 46.9145C334.905 47.2412 334.84 47.6518 334.84 48.1465C334.84 48.6412 334.905 49.0518 335.036 49.3785C335.167 49.7052 335.353 49.9525 335.596 50.1205C335.848 50.2792 336.151 50.3585 336.506 50.3585C336.851 50.3585 337.145 50.2792 337.388 50.1205C337.64 49.9525 337.831 49.7052 337.962 49.3785C338.093 49.0518 338.158 48.6412 338.158 48.1465C338.158 47.6518 338.093 47.2412 337.962 46.9145C337.831 46.5878 337.64 46.3452 337.388 46.1865C337.145 46.0185 336.851 45.9345 336.506 45.9345ZM341.695 51.6465V44.6465H343.417L343.529 46.7465L343.291 46.5225C343.403 46.0652 343.58 45.6918 343.823 45.4025C344.066 45.1038 344.36 44.8798 344.705 44.7305C345.06 44.5812 345.447 44.5065 345.867 44.5065C346.352 44.5065 346.782 44.5998 347.155 44.7865C347.538 44.9732 347.836 45.2578 348.051 45.6405C348.275 46.0138 348.387 46.4852 348.387 47.0545V51.6465H346.469V47.6005C346.469 47.0032 346.352 46.5925 346.119 46.3685C345.886 46.1352 345.582 46.0185 345.209 46.0185C344.948 46.0185 344.691 46.0838 344.439 46.2145C344.196 46.3358 343.996 46.5365 343.837 46.8165C343.688 47.0965 343.613 47.4698 343.613 47.9365V51.6465H341.695ZM353.163 51.7865C352.454 51.7865 351.805 51.6605 351.217 51.4085C350.638 51.1565 350.167 50.8018 349.803 50.3445L350.909 49.2245C351.133 49.5605 351.432 49.8358 351.805 50.0505C352.178 50.2652 352.622 50.3725 353.135 50.3725C353.499 50.3725 353.788 50.3212 354.003 50.2185C354.227 50.1065 354.339 49.9338 354.339 49.7005C354.339 49.5512 354.288 49.4252 354.185 49.3225C354.082 49.2105 353.877 49.1218 353.569 49.0565L352.337 48.8045C351.525 48.6365 350.946 48.3845 350.601 48.0485C350.265 47.7032 350.097 47.2598 350.097 46.7185C350.097 46.3358 350.209 45.9765 350.433 45.6405C350.666 45.3045 351.012 45.0338 351.469 44.8285C351.926 44.6138 352.496 44.5065 353.177 44.5065C353.877 44.5065 354.484 44.6185 354.997 44.8425C355.52 45.0572 355.93 45.3792 356.229 45.8085L355.081 46.9285C354.876 46.6018 354.605 46.3545 354.269 46.1865C353.942 46.0092 353.597 45.9205 353.233 45.9205C352.972 45.9205 352.748 45.9485 352.561 46.0045C352.374 46.0605 352.234 46.1398 352.141 46.2425C352.048 46.3358 352.001 46.4572 352.001 46.6065C352.001 46.7558 352.066 46.8865 352.197 46.9985C352.328 47.1012 352.566 47.1898 352.911 47.2645L354.339 47.5585C355.03 47.6985 355.524 47.9365 355.823 48.2725C356.122 48.5992 356.271 48.9958 356.271 49.4625C356.271 49.9105 356.15 50.3118 355.907 50.6665C355.674 51.0118 355.324 51.2872 354.857 51.4925C354.4 51.6885 353.835 51.7865 353.163 51.7865ZM361.021 51.7865C360.284 51.7865 359.64 51.6418 359.089 51.3525C358.548 51.0632 358.128 50.6478 357.829 50.1065C357.53 49.5652 357.381 48.9118 357.381 48.1465C357.381 47.3812 357.53 46.7278 357.829 46.1865C358.128 45.6452 358.543 45.2298 359.075 44.9405C359.616 44.6512 360.232 44.5065 360.923 44.5065C361.632 44.5065 362.234 44.6512 362.729 44.9405C363.224 45.2205 363.602 45.6078 363.863 46.1025C364.124 46.5878 364.255 47.1432 364.255 47.7685C364.255 47.9552 364.25 48.1325 364.241 48.3005C364.232 48.4685 364.218 48.6178 364.199 48.7485H358.613V47.4185H363.359L362.435 47.7545C362.435 47.1665 362.3 46.7138 362.029 46.3965C361.768 46.0792 361.394 45.9205 360.909 45.9205C360.554 45.9205 360.246 46.0045 359.985 46.1725C359.733 46.3405 359.542 46.5925 359.411 46.9285C359.28 47.2552 359.215 47.6705 359.215 48.1745C359.215 48.6692 359.285 49.0798 359.425 49.4065C359.574 49.7238 359.78 49.9618 360.041 50.1205C360.312 50.2792 360.634 50.3585 361.007 50.3585C361.418 50.3585 361.749 50.2792 362.001 50.1205C362.253 49.9618 362.449 49.7425 362.589 49.4625L364.115 50.0505C363.966 50.4145 363.737 50.7272 363.429 50.9885C363.13 51.2498 362.771 51.4505 362.351 51.5905C361.94 51.7212 361.497 51.7865 361.021 51.7865ZM365.881 51.6465V44.6465H367.603L367.715 46.7465L367.477 46.5225C367.589 46.0652 367.766 45.6918 368.009 45.4025C368.251 45.1038 368.545 44.8798 368.891 44.7305C369.245 44.5812 369.633 44.5065 370.053 44.5065C370.538 44.5065 370.967 44.5998 371.341 44.7865C371.723 44.9732 372.022 45.2578 372.237 45.6405C372.461 46.0138 372.573 46.4852 372.573 47.0545V51.6465H370.655V47.6005C370.655 47.0032 370.538 46.5925 370.305 46.3685C370.071 46.1352 369.768 46.0185 369.395 46.0185C369.133 46.0185 368.877 46.0838 368.625 46.2145C368.382 46.3358 368.181 46.5365 368.023 46.8165C367.873 47.0965 367.799 47.4698 367.799 47.9365V51.6465H365.881ZM376.972 42.5045V49.3645C376.972 49.7005 377.056 49.9478 377.224 50.1065C377.401 50.2558 377.639 50.3305 377.938 50.3305C378.181 50.3305 378.386 50.2978 378.554 50.2325C378.731 50.1578 378.89 50.0598 379.03 49.9385L379.338 51.2125C379.114 51.3898 378.834 51.5298 378.498 51.6325C378.162 51.7352 377.807 51.7865 377.434 51.7865C376.967 51.7865 376.552 51.7165 376.188 51.5765C375.833 51.4365 375.553 51.2125 375.348 50.9045C375.152 50.5965 375.054 50.1858 375.054 49.6725V43.0365L376.972 42.5045ZM379.212 44.6465V46.0745H373.766V44.6465H379.212Z" fill="#EEF0FF"/>
</g>
<g filter="url(#filter1_d)">
<rect x="296.663" y="404.707" width="110.007" height="53.2929" rx="26.6464" fill="#27292E"/>
<path d="M334.781 433.806C334.603 434.403 334.323 434.902 333.941 435.304C333.558 435.705 333.105 436.004 332.583 436.2C332.06 436.396 331.486 436.494 330.861 436.494C329.946 436.494 329.153 436.302 328.481 435.92C327.818 435.537 327.305 434.991 326.941 434.282C326.586 433.572 326.409 432.723 326.409 431.734C326.409 430.744 326.586 429.895 326.941 429.186C327.305 428.476 327.818 427.93 328.481 427.548C329.153 427.165 329.937 426.974 330.833 426.974C331.467 426.974 332.041 427.062 332.555 427.24C333.068 427.408 333.502 427.674 333.857 428.038C334.221 428.392 334.487 428.836 334.655 429.368L332.905 430.11C332.746 429.55 332.503 429.153 332.177 428.92C331.85 428.677 331.43 428.556 330.917 428.556C330.413 428.556 329.969 428.677 329.587 428.92C329.213 429.162 328.924 429.522 328.719 429.998C328.513 430.464 328.411 431.043 328.411 431.734C328.411 432.415 328.504 432.994 328.691 433.47C328.887 433.946 329.171 434.305 329.545 434.548C329.918 434.79 330.375 434.912 330.917 434.912C331.421 434.912 331.855 434.776 332.219 434.506C332.592 434.235 332.853 433.824 333.003 433.274L334.781 433.806ZM339.423 429.214C340.132 429.214 340.753 429.358 341.285 429.648C341.826 429.937 342.246 430.352 342.545 430.894C342.853 431.435 343.007 432.088 343.007 432.854C343.007 433.61 342.853 434.263 342.545 434.814C342.246 435.355 341.826 435.77 341.285 436.06C340.753 436.349 340.132 436.494 339.423 436.494C338.723 436.494 338.102 436.349 337.561 436.06C337.02 435.77 336.595 435.355 336.287 434.814C335.988 434.263 335.839 433.61 335.839 432.854C335.839 432.088 335.988 431.435 336.287 430.894C336.595 430.352 337.02 429.937 337.561 429.648C338.102 429.358 338.723 429.214 339.423 429.214ZM339.423 430.642C339.068 430.642 338.765 430.726 338.513 430.894C338.27 431.052 338.084 431.295 337.953 431.622C337.822 431.948 337.757 432.359 337.757 432.854C337.757 433.348 337.822 433.759 337.953 434.086C338.084 434.412 338.27 434.66 338.513 434.828C338.765 434.986 339.068 435.066 339.423 435.066C339.768 435.066 340.062 434.986 340.305 434.828C340.557 434.66 340.748 434.412 340.879 434.086C341.01 433.759 341.075 433.348 341.075 432.854C341.075 432.359 341.01 431.948 340.879 431.622C340.748 431.295 340.557 431.052 340.305 430.894C340.062 430.726 339.768 430.642 339.423 430.642ZM344.612 436.354V429.354H346.334L346.446 431.454L346.208 431.23C346.32 430.772 346.497 430.399 346.74 430.11C346.983 429.811 347.277 429.587 347.622 429.438C347.977 429.288 348.364 429.214 348.784 429.214C349.269 429.214 349.699 429.307 350.072 429.494C350.455 429.68 350.753 429.965 350.968 430.348C351.192 430.721 351.304 431.192 351.304 431.762V436.354H349.386V432.308C349.386 431.71 349.269 431.3 349.036 431.076C348.803 430.842 348.499 430.726 348.126 430.726C347.865 430.726 347.608 430.791 347.356 430.922C347.113 431.043 346.913 431.244 346.754 431.524C346.605 431.804 346.53 432.177 346.53 432.644V436.354H344.612ZM355.703 427.212V434.072C355.703 434.408 355.787 434.655 355.955 434.814C356.133 434.963 356.371 435.038 356.669 435.038C356.912 435.038 357.117 435.005 357.285 434.94C357.463 434.865 357.621 434.767 357.761 434.646L358.069 435.92C357.845 436.097 357.565 436.237 357.229 436.34C356.893 436.442 356.539 436.494 356.165 436.494C355.699 436.494 355.283 436.424 354.919 436.284C354.565 436.144 354.285 435.92 354.079 435.612C353.883 435.304 353.785 434.893 353.785 434.38V427.744L355.703 427.212ZM357.943 429.354V430.782H352.497V429.354H357.943ZM359.241 436.354V429.354H360.907L361.033 430.726C361.22 430.24 361.49 429.867 361.845 429.606C362.209 429.344 362.662 429.214 363.203 429.214C363.362 429.214 363.506 429.228 363.637 429.256C363.768 429.284 363.875 429.321 363.959 429.368L363.735 430.978C363.642 430.94 363.525 430.912 363.385 430.894C363.254 430.875 363.082 430.866 362.867 430.866C362.587 430.866 362.316 430.936 362.055 431.076C361.794 431.206 361.579 431.412 361.411 431.692C361.243 431.962 361.159 432.308 361.159 432.728V436.354H359.241ZM368.202 429.214C368.912 429.214 369.532 429.358 370.064 429.648C370.606 429.937 371.026 430.352 371.324 430.894C371.632 431.435 371.786 432.088 371.786 432.854C371.786 433.61 371.632 434.263 371.324 434.814C371.026 435.355 370.606 435.77 370.064 436.06C369.532 436.349 368.912 436.494 368.202 436.494C367.502 436.494 366.882 436.349 366.34 436.06C365.799 435.77 365.374 435.355 365.066 434.814C364.768 434.263 364.618 433.61 364.618 432.854C364.618 432.088 364.768 431.435 365.066 430.894C365.374 430.352 365.799 429.937 366.34 429.648C366.882 429.358 367.502 429.214 368.202 429.214ZM368.202 430.642C367.848 430.642 367.544 430.726 367.292 430.894C367.05 431.052 366.863 431.295 366.732 431.622C366.602 431.948 366.536 432.359 366.536 432.854C366.536 433.348 366.602 433.759 366.732 434.086C366.863 434.412 367.05 434.66 367.292 434.828C367.544 434.986 367.848 435.066 368.202 435.066C368.548 435.066 368.842 434.986 369.084 434.828C369.336 434.66 369.528 434.412 369.658 434.086C369.789 433.759 369.854 433.348 369.854 432.854C369.854 432.359 369.789 431.948 369.658 431.622C369.528 431.295 369.336 431.052 369.084 430.894C368.842 430.726 368.548 430.642 368.202 430.642ZM375.281 426.288V434.198C375.281 434.524 375.337 434.753 375.449 434.884C375.561 435.014 375.748 435.08 376.009 435.08C376.168 435.08 376.299 435.07 376.401 435.052C376.504 435.024 376.635 434.986 376.793 434.94L376.625 436.2C376.467 436.293 376.266 436.363 376.023 436.41C375.79 436.466 375.557 436.494 375.323 436.494C374.642 436.494 374.143 436.33 373.825 436.004C373.517 435.668 373.363 435.136 373.363 434.408V426.288H375.281Z" fill="#EEF0FF"/>
</g>
<path d="M290.812 213.186L226.623 149.068H191.611" stroke="url(#paint0_linear)" stroke-width="4"/>
<path d="M290.812 273.142L226.623 337.26H193.278" stroke="url(#paint1_linear)" stroke-width="4"/>
<path d="M425.859 213.186L490.047 149.068H537.564" stroke="url(#paint2_linear)" stroke-width="4"/>
<path d="M425.859 273.141L490.047 337.259H537.564" stroke="url(#paint3_linear)" stroke-width="4"/>
<g filter="url(#filter2_d)">
<rect x="40" y="122.423" width="169.01" height="53.2929" rx="26.6464" fill="#27292E"/>
<path d="M68.7791 144.829C70.2258 144.829 71.3458 145.23 72.1391 146.033C72.9325 146.826 73.3291 147.965 73.3291 149.449C73.3291 150.924 72.9325 152.062 72.1391 152.865C71.3458 153.668 70.2258 154.069 68.7791 154.069H65.2091V144.829H68.7791ZM68.6811 152.529C69.5585 152.529 70.2165 152.268 70.6551 151.745C71.1031 151.213 71.3271 150.448 71.3271 149.449C71.3271 148.45 71.1031 147.69 70.6551 147.167C70.2165 146.635 69.5585 146.369 68.6811 146.369H67.1411V152.529H68.6811ZM79.0109 149.603C79.0109 149.202 78.8943 148.889 78.6609 148.665C78.4369 148.441 78.1383 148.329 77.7649 148.329C77.4196 148.329 77.1163 148.418 76.8549 148.595C76.5936 148.772 76.4023 149.066 76.2809 149.477L74.6429 148.973C74.8016 148.357 75.1469 147.862 75.6789 147.489C76.2203 147.116 76.9436 146.929 77.8489 146.929C78.4649 146.929 79.0016 147.027 79.4589 147.223C79.9163 147.41 80.2709 147.694 80.5229 148.077C80.7843 148.46 80.9149 148.94 80.9149 149.519V152.361C80.9149 152.716 81.0829 152.893 81.4189 152.893C81.5776 152.893 81.7269 152.87 81.8669 152.823L81.7549 154.013C81.5123 154.134 81.2089 154.195 80.8449 154.195C80.5183 154.195 80.2243 154.139 79.9629 154.027C79.7016 153.915 79.4963 153.747 79.3469 153.523C79.1976 153.29 79.1229 153 79.1229 152.655V152.599L79.4589 152.543C79.4029 152.898 79.2489 153.201 78.9969 153.453C78.7449 153.696 78.4369 153.882 78.0729 154.013C77.7183 154.144 77.3496 154.209 76.9669 154.209C76.4909 154.209 76.0803 154.139 75.7349 153.999C75.3896 153.85 75.1236 153.635 74.9369 153.355C74.7503 153.075 74.6569 152.73 74.6569 152.319C74.6569 151.796 74.8249 151.372 75.1609 151.045C75.4969 150.709 75.9776 150.48 76.6029 150.359L79.2349 149.827L79.2209 151.017L77.5409 151.353C77.2236 151.418 76.9809 151.507 76.8129 151.619C76.6543 151.722 76.5749 151.894 76.5749 152.137C76.5749 152.37 76.6589 152.548 76.8269 152.669C77.0043 152.79 77.2143 152.851 77.4569 152.851C77.6529 152.851 77.8443 152.828 78.0309 152.781C78.2176 152.734 78.3856 152.66 78.5349 152.557C78.6843 152.454 78.8009 152.314 78.8849 152.137C78.9689 151.96 79.0109 151.745 79.0109 151.493V149.603ZM85.2646 144.927V151.787C85.2646 152.123 85.3486 152.37 85.5166 152.529C85.6939 152.678 85.9319 152.753 86.2306 152.753C86.4732 152.753 86.6786 152.72 86.8466 152.655C87.0239 152.58 87.1826 152.482 87.3226 152.361L87.6306 153.635C87.4066 153.812 87.1266 153.952 86.7906 154.055C86.4546 154.158 86.0999 154.209 85.7266 154.209C85.2599 154.209 84.8446 154.139 84.4806 153.999C84.1259 153.859 83.8459 153.635 83.6406 153.327C83.4446 153.019 83.3466 152.608 83.3466 152.095V145.459L85.2646 144.927ZM87.5046 147.069V148.497H82.0586V147.069H87.5046ZM92.8605 149.603C92.8605 149.202 92.7439 148.889 92.5105 148.665C92.2865 148.441 91.9879 148.329 91.6145 148.329C91.2692 148.329 90.9659 148.418 90.7045 148.595C90.4432 148.772 90.2519 149.066 90.1305 149.477L88.4925 148.973C88.6512 148.357 88.9965 147.862 89.5285 147.489C90.0699 147.116 90.7932 146.929 91.6985 146.929C92.3145 146.929 92.8512 147.027 93.3085 147.223C93.7659 147.41 94.1205 147.694 94.3725 148.077C94.6339 148.46 94.7645 148.94 94.7645 149.519V152.361C94.7645 152.716 94.9325 152.893 95.2685 152.893C95.4272 152.893 95.5765 152.87 95.7165 152.823L95.6045 154.013C95.3619 154.134 95.0585 154.195 94.6945 154.195C94.3679 154.195 94.0739 154.139 93.8125 154.027C93.5512 153.915 93.3459 153.747 93.1965 153.523C93.0472 153.29 92.9725 153 92.9725 152.655V152.599L93.3085 152.543C93.2525 152.898 93.0985 153.201 92.8465 153.453C92.5945 153.696 92.2865 153.882 91.9225 154.013C91.5679 154.144 91.1992 154.209 90.8165 154.209C90.3405 154.209 89.9299 154.139 89.5845 153.999C89.2392 153.85 88.9732 153.635 88.7865 153.355C88.5999 153.075 88.5065 152.73 88.5065 152.319C88.5065 151.796 88.6745 151.372 89.0105 151.045C89.3465 150.709 89.8272 150.48 90.4525 150.359L93.0845 149.827L93.0705 151.017L91.3905 151.353C91.0732 151.418 90.8305 151.507 90.6625 151.619C90.5039 151.722 90.4245 151.894 90.4245 152.137C90.4245 152.37 90.5085 152.548 90.6765 152.669C90.8539 152.79 91.0639 152.851 91.3065 152.851C91.5025 152.851 91.6939 152.828 91.8805 152.781C92.0672 152.734 92.2352 152.66 92.3845 152.557C92.5339 152.454 92.6505 152.314 92.7345 152.137C92.8185 151.96 92.8605 151.745 92.8605 151.493V149.603ZM104.568 144.689C105.408 144.689 106.145 144.834 106.78 145.123C107.414 145.412 107.956 145.842 108.404 146.411L107.326 147.657C106.943 147.172 106.523 146.817 106.066 146.593C105.618 146.36 105.095 146.243 104.498 146.243C104.106 146.243 103.779 146.294 103.518 146.397C103.266 146.5 103.079 146.635 102.958 146.803C102.846 146.971 102.79 147.158 102.79 147.363C102.79 147.615 102.888 147.83 103.084 148.007C103.28 148.175 103.616 148.315 104.092 148.427L105.814 148.819C106.728 149.024 107.382 149.332 107.774 149.743C108.175 150.144 108.376 150.667 108.376 151.311C108.376 151.918 108.217 152.44 107.9 152.879C107.582 153.308 107.139 153.64 106.57 153.873C106 154.097 105.347 154.209 104.61 154.209C103.966 154.209 103.373 154.134 102.832 153.985C102.3 153.826 101.824 153.612 101.404 153.341C100.984 153.07 100.634 152.758 100.354 152.403L101.446 151.101C101.66 151.4 101.926 151.666 102.244 151.899C102.561 152.132 102.92 152.319 103.322 152.459C103.732 152.59 104.162 152.655 104.61 152.655C104.992 152.655 105.314 152.613 105.576 152.529C105.846 152.436 106.047 152.31 106.178 152.151C106.318 151.983 106.388 151.782 106.388 151.549C106.388 151.306 106.304 151.101 106.136 150.933C105.977 150.756 105.678 150.62 105.24 150.527L103.364 150.107C102.822 149.976 102.356 149.808 101.964 149.603C101.581 149.388 101.287 149.118 101.082 148.791C100.886 148.455 100.788 148.058 100.788 147.601C100.788 147.05 100.937 146.556 101.236 146.117C101.534 145.678 101.964 145.333 102.524 145.081C103.093 144.82 103.774 144.689 104.568 144.689ZM113.199 146.929C113.909 146.929 114.529 147.074 115.061 147.363C115.603 147.652 116.023 148.068 116.321 148.609C116.629 149.15 116.783 149.804 116.783 150.569C116.783 151.325 116.629 151.978 116.321 152.529C116.023 153.07 115.603 153.486 115.061 153.775C114.529 154.064 113.909 154.209 113.199 154.209C112.499 154.209 111.879 154.064 111.337 153.775C110.796 153.486 110.371 153.07 110.063 152.529C109.765 151.978 109.615 151.325 109.615 150.569C109.615 149.804 109.765 149.15 110.063 148.609C110.371 148.068 110.796 147.652 111.337 147.363C111.879 147.074 112.499 146.929 113.199 146.929ZM113.199 148.357C112.845 148.357 112.541 148.441 112.289 148.609C112.047 148.768 111.86 149.01 111.729 149.337C111.599 149.664 111.533 150.074 111.533 150.569C111.533 151.064 111.599 151.474 111.729 151.801C111.86 152.128 112.047 152.375 112.289 152.543C112.541 152.702 112.845 152.781 113.199 152.781C113.545 152.781 113.839 152.702 114.081 152.543C114.333 152.375 114.525 152.128 114.655 151.801C114.786 151.474 114.851 151.064 114.851 150.569C114.851 150.074 114.786 149.664 114.655 149.337C114.525 149.01 114.333 148.768 114.081 148.609C113.839 148.441 113.545 148.357 113.199 148.357ZM122.898 147.069H124.886L122.226 154.069H120.014L117.354 147.069H119.412L121.134 152.599L122.898 147.069ZM129.115 154.209C128.377 154.209 127.733 154.064 127.183 153.775C126.641 153.486 126.221 153.07 125.923 152.529C125.624 151.988 125.475 151.334 125.475 150.569C125.475 149.804 125.624 149.15 125.923 148.609C126.221 148.068 126.637 147.652 127.169 147.363C127.71 147.074 128.326 146.929 129.017 146.929C129.726 146.929 130.328 147.074 130.823 147.363C131.317 147.643 131.695 148.03 131.957 148.525C132.218 149.01 132.349 149.566 132.349 150.191C132.349 150.378 132.344 150.555 132.335 150.723C132.325 150.891 132.311 151.04 132.293 151.171H126.707V149.841H131.453L130.529 150.177C130.529 149.589 130.393 149.136 130.123 148.819C129.861 148.502 129.488 148.343 129.003 148.343C128.648 148.343 128.34 148.427 128.079 148.595C127.827 148.763 127.635 149.015 127.505 149.351C127.374 149.678 127.309 150.093 127.309 150.597C127.309 151.092 127.379 151.502 127.519 151.829C127.668 152.146 127.873 152.384 128.135 152.543C128.405 152.702 128.727 152.781 129.101 152.781C129.511 152.781 129.843 152.702 130.095 152.543C130.347 152.384 130.543 152.165 130.683 151.885L132.209 152.473C132.059 152.837 131.831 153.15 131.523 153.411C131.224 153.672 130.865 153.873 130.445 154.013C130.034 154.144 129.591 154.209 129.115 154.209ZM133.974 154.069V147.069H135.64L135.766 148.441C135.953 147.956 136.223 147.582 136.578 147.321C136.942 147.06 137.395 146.929 137.936 146.929C138.095 146.929 138.239 146.943 138.37 146.971C138.501 146.999 138.608 147.036 138.692 147.083L138.468 148.693C138.375 148.656 138.258 148.628 138.118 148.609C137.987 148.59 137.815 148.581 137.6 148.581C137.32 148.581 137.049 148.651 136.788 148.791C136.527 148.922 136.312 149.127 136.144 149.407C135.976 149.678 135.892 150.023 135.892 150.443V154.069H133.974ZM142.992 154.209C142.254 154.209 141.61 154.064 141.06 153.775C140.518 153.486 140.098 153.07 139.8 152.529C139.501 151.988 139.352 151.334 139.352 150.569C139.352 149.804 139.501 149.15 139.8 148.609C140.098 148.068 140.514 147.652 141.046 147.363C141.587 147.074 142.203 146.929 142.894 146.929C143.603 146.929 144.205 147.074 144.7 147.363C145.194 147.643 145.572 148.03 145.834 148.525C146.095 149.01 146.226 149.566 146.226 150.191C146.226 150.378 146.221 150.555 146.212 150.723C146.202 150.891 146.188 151.04 146.17 151.171H140.584V149.841H145.33L144.406 150.177C144.406 149.589 144.27 149.136 144 148.819C143.738 148.502 143.365 148.343 142.88 148.343C142.525 148.343 142.217 148.427 141.956 148.595C141.704 148.763 141.512 149.015 141.382 149.351C141.251 149.678 141.186 150.093 141.186 150.597C141.186 151.092 141.256 151.502 141.396 151.829C141.545 152.146 141.75 152.384 142.012 152.543C142.282 152.702 142.604 152.781 142.978 152.781C143.388 152.781 143.72 152.702 143.972 152.543C144.224 152.384 144.42 152.165 144.56 151.885L146.086 152.473C145.936 152.837 145.708 153.15 145.4 153.411C145.101 153.672 144.742 153.873 144.322 154.013C143.911 154.144 143.468 154.209 142.992 154.209ZM148.817 146.061C148.416 146.061 148.117 145.977 147.921 145.809C147.725 145.632 147.627 145.375 147.627 145.039C147.627 144.694 147.725 144.437 147.921 144.269C148.117 144.092 148.416 144.003 148.817 144.003C149.218 144.003 149.517 144.092 149.713 144.269C149.909 144.437 150.007 144.694 150.007 145.039C150.007 145.375 149.909 145.632 149.713 145.809C149.517 145.977 149.218 146.061 148.817 146.061ZM149.769 147.069V154.069H147.851V147.069H149.769ZM158.256 145.403L158.48 146.775C158.443 146.775 158.401 146.775 158.354 146.775C158.317 146.766 158.275 146.761 158.228 146.761C157.808 146.761 157.486 146.859 157.262 147.055C157.048 147.242 156.94 147.503 156.94 147.839L156.156 147.517C156.156 147.144 156.231 146.798 156.38 146.481C156.53 146.154 156.749 145.893 157.038 145.697C157.337 145.501 157.692 145.403 158.102 145.403C158.121 145.403 158.144 145.403 158.172 145.403C158.2 145.403 158.228 145.403 158.256 145.403ZM155.96 152.753C156.716 152.753 157.3 152.916 157.71 153.243C158.121 153.57 158.326 154.027 158.326 154.615C158.326 155.147 158.172 155.595 157.864 155.959C157.556 156.332 157.122 156.612 156.562 156.799C156.012 156.986 155.372 157.079 154.644 157.079C153.44 157.079 152.558 156.911 151.998 156.575C151.448 156.239 151.172 155.8 151.172 155.259C151.172 154.876 151.317 154.554 151.606 154.293C151.905 154.032 152.395 153.887 153.076 153.859L153.006 154.083C152.521 153.999 152.148 153.84 151.886 153.607C151.634 153.364 151.508 153.033 151.508 152.613C151.508 152.184 151.672 151.834 151.998 151.563C152.334 151.283 152.787 151.12 153.356 151.073L154.196 151.465H154C153.599 151.493 153.314 151.577 153.146 151.717C152.988 151.848 152.908 151.997 152.908 152.165C152.908 152.361 152.983 152.51 153.132 152.613C153.291 152.706 153.515 152.753 153.804 152.753H155.96ZM154.658 155.763C155.144 155.763 155.54 155.721 155.848 155.637C156.166 155.553 156.399 155.446 156.548 155.315C156.707 155.184 156.786 155.04 156.786 154.881C156.786 154.704 156.716 154.559 156.576 154.447C156.436 154.344 156.184 154.293 155.82 154.293H153.454C153.23 154.293 153.044 154.349 152.894 154.461C152.754 154.573 152.684 154.727 152.684 154.923C152.684 155.184 152.857 155.39 153.202 155.539C153.557 155.688 154.042 155.763 154.658 155.763ZM154.672 146.929C155.326 146.929 155.89 147.027 156.366 147.223C156.852 147.41 157.22 147.68 157.472 148.035C157.734 148.39 157.864 148.814 157.864 149.309C157.864 149.794 157.734 150.214 157.472 150.569C157.22 150.924 156.852 151.199 156.366 151.395C155.89 151.582 155.326 151.675 154.672 151.675C153.636 151.675 152.843 151.465 152.292 151.045C151.742 150.616 151.466 150.037 151.466 149.309C151.466 148.814 151.597 148.39 151.858 148.035C152.12 147.68 152.488 147.41 152.964 147.223C153.44 147.027 154.01 146.929 154.672 146.929ZM154.672 148.133C154.299 148.133 153.991 148.236 153.748 148.441C153.506 148.646 153.384 148.931 153.384 149.295C153.384 149.659 153.506 149.948 153.748 150.163C153.991 150.368 154.299 150.471 154.672 150.471C155.046 150.471 155.349 150.368 155.582 150.163C155.825 149.948 155.946 149.659 155.946 149.295C155.946 148.931 155.825 148.646 155.582 148.441C155.349 148.236 155.046 148.133 154.672 148.133ZM159.486 154.069V147.069H161.208L161.32 149.169L161.082 148.945C161.194 148.488 161.371 148.114 161.614 147.825C161.856 147.526 162.15 147.302 162.496 147.153C162.85 147.004 163.238 146.929 163.658 146.929C164.143 146.929 164.572 147.022 164.946 147.209C165.328 147.396 165.627 147.68 165.842 148.063C166.066 148.436 166.178 148.908 166.178 149.477V154.069H164.26V150.023C164.26 149.426 164.143 149.015 163.91 148.791C163.676 148.558 163.373 148.441 163 148.441C162.738 148.441 162.482 148.506 162.23 148.637C161.987 148.758 161.786 148.959 161.628 149.239C161.478 149.519 161.404 149.892 161.404 150.359V154.069H159.486ZM169.12 146.061C168.718 146.061 168.42 145.977 168.224 145.809C168.028 145.632 167.93 145.375 167.93 145.039C167.93 144.694 168.028 144.437 168.224 144.269C168.42 144.092 168.718 144.003 169.12 144.003C169.521 144.003 169.82 144.092 170.016 144.269C170.212 144.437 170.31 144.694 170.31 145.039C170.31 145.375 170.212 145.632 170.016 145.809C169.82 145.977 169.521 146.061 169.12 146.061ZM170.072 147.069V154.069H168.154V147.069H170.072ZM174.583 144.927V151.787C174.583 152.123 174.667 152.37 174.835 152.529C175.012 152.678 175.25 152.753 175.549 152.753C175.792 152.753 175.997 152.72 176.165 152.655C176.342 152.58 176.501 152.482 176.641 152.361L176.949 153.635C176.725 153.812 176.445 153.952 176.109 154.055C175.773 154.158 175.418 154.209 175.045 154.209C174.578 154.209 174.163 154.139 173.799 153.999C173.444 153.859 173.164 153.635 172.959 153.327C172.763 153.019 172.665 152.608 172.665 152.095V145.459L174.583 144.927ZM176.823 147.069V148.497H171.377V147.069H176.823ZM184.701 147.069L181.873 154.503C181.649 155.138 181.397 155.642 181.117 156.015C180.846 156.388 180.529 156.659 180.165 156.827C179.81 156.995 179.385 157.079 178.891 157.079C178.527 157.079 178.191 157.032 177.883 156.939C177.584 156.855 177.323 156.743 177.099 156.603L177.505 155.217C177.682 155.357 177.869 155.455 178.065 155.511C178.261 155.576 178.485 155.609 178.737 155.609C178.998 155.609 179.222 155.553 179.409 155.441C179.605 155.329 179.768 155.105 179.899 154.769L180.137 154.167L179.367 152.347L177.225 147.069H179.353L180.683 151.269L181.047 152.669L181.481 151.185L182.755 147.069H184.701Z" fill="#EEF0FF"/>
</g>
<g filter="url(#filter3_d)">
<rect x="46.4175" y="310.613" width="162.01" height="53.2929" rx="26.6464" fill="#27292E"/>
<path d="M75.1964 333.02C76.643 333.02 77.763 333.421 78.5564 334.224C79.3497 335.017 79.7464 336.156 79.7464 337.64C79.7464 339.114 79.3497 340.253 78.5564 341.056C77.763 341.858 76.643 342.26 75.1964 342.26H71.6264V333.02H75.1964ZM75.0984 340.72C75.9757 340.72 76.6337 340.458 77.0724 339.936C77.5204 339.404 77.7444 338.638 77.7444 337.64C77.7444 336.641 77.5204 335.88 77.0724 335.358C76.6337 334.826 75.9757 334.56 75.0984 334.56H73.5584V340.72H75.0984ZM84.7409 342.4C84.0035 342.4 83.3595 342.255 82.8089 341.966C82.2675 341.676 81.8475 341.261 81.5489 340.72C81.2502 340.178 81.1009 339.525 81.1009 338.76C81.1009 337.994 81.2502 337.341 81.5489 336.8C81.8475 336.258 82.2629 335.843 82.7949 335.554C83.3362 335.264 83.9522 335.12 84.6429 335.12C85.3522 335.12 85.9542 335.264 86.4489 335.554C86.9435 335.834 87.3215 336.221 87.5829 336.716C87.8442 337.201 87.9749 337.756 87.9749 338.382C87.9749 338.568 87.9702 338.746 87.9609 338.914C87.9515 339.082 87.9375 339.231 87.9189 339.362H82.3329V338.032H87.0789L86.1549 338.368C86.1549 337.78 86.0195 337.327 85.7489 337.01C85.4875 336.692 85.1142 336.534 84.6289 336.534C84.2742 336.534 83.9662 336.618 83.7049 336.786C83.4529 336.954 83.2615 337.206 83.1309 337.542C83.0002 337.868 82.9349 338.284 82.9349 338.788C82.9349 339.282 83.0049 339.693 83.1449 340.02C83.2942 340.337 83.4995 340.575 83.7609 340.734C84.0315 340.892 84.3535 340.972 84.7269 340.972C85.1375 340.972 85.4689 340.892 85.7209 340.734C85.9729 340.575 86.1689 340.356 86.3089 340.076L87.8349 340.664C87.6855 341.028 87.4569 341.34 87.1489 341.602C86.8502 341.863 86.4909 342.064 86.0709 342.204C85.6602 342.334 85.2169 342.4 84.7409 342.4ZM92.7783 335.12C93.4036 335.12 93.931 335.213 94.3603 335.4C94.799 335.577 95.149 335.824 95.4103 336.142C95.681 336.45 95.8723 336.795 95.9843 337.178L94.1923 337.822C94.099 337.402 93.9403 337.084 93.7163 336.87C93.4923 336.655 93.189 336.548 92.8063 336.548C92.4516 336.548 92.1483 336.632 91.8963 336.8C91.6443 336.958 91.453 337.206 91.3223 337.542C91.1916 337.868 91.1263 338.279 91.1263 338.774C91.1263 339.268 91.1916 339.679 91.3223 340.006C91.4623 340.332 91.6583 340.575 91.9103 340.734C92.1716 340.892 92.475 340.972 92.8203 340.972C93.1003 340.972 93.3383 340.925 93.5343 340.832C93.7303 340.729 93.889 340.584 94.0103 340.398C94.141 340.211 94.2296 339.987 94.2763 339.726L96.0123 340.286C95.9096 340.706 95.7183 341.074 95.4383 341.392C95.1583 341.709 94.799 341.956 94.3603 342.134C93.9216 342.311 93.413 342.4 92.8343 342.4C92.1156 342.4 91.481 342.255 90.9303 341.966C90.3796 341.676 89.955 341.261 89.6563 340.72C89.3576 340.178 89.2083 339.525 89.2083 338.76C89.2083 337.994 89.3576 337.341 89.6563 336.8C89.955 336.258 90.375 335.843 90.9163 335.554C91.4576 335.264 92.0783 335.12 92.7783 335.12ZM100.751 342.4C100.013 342.4 99.3693 342.255 98.8186 341.966C98.2773 341.676 97.8573 341.261 97.5586 340.72C97.26 340.178 97.1106 339.525 97.1106 338.76C97.1106 337.994 97.26 337.341 97.5586 336.8C97.8573 336.258 98.2726 335.843 98.8046 335.554C99.346 335.264 99.962 335.12 100.653 335.12C101.362 335.12 101.964 335.264 102.459 335.554C102.953 335.834 103.331 336.221 103.593 336.716C103.854 337.201 103.985 337.756 103.985 338.382C103.985 338.568 103.98 338.746 103.971 338.914C103.961 339.082 103.947 339.231 103.929 339.362H98.3426V338.032H103.089L102.165 338.368C102.165 337.78 102.029 337.327 101.759 337.01C101.497 336.692 101.124 336.534 100.639 336.534C100.284 336.534 99.976 336.618 99.7146 336.786C99.4626 336.954 99.2713 337.206 99.1406 337.542C99.01 337.868 98.9446 338.284 98.9446 338.788C98.9446 339.282 99.0146 339.693 99.1546 340.02C99.304 340.337 99.5093 340.575 99.7706 340.734C100.041 340.892 100.363 340.972 100.737 340.972C101.147 340.972 101.479 340.892 101.731 340.734C101.983 340.575 102.179 340.356 102.319 340.076L103.845 340.664C103.695 341.028 103.467 341.34 103.159 341.602C102.86 341.863 102.501 342.064 102.081 342.204C101.67 342.334 101.227 342.4 100.751 342.4ZM105.61 342.26V335.26H107.332L107.444 337.36L107.206 337.136C107.318 336.678 107.495 336.305 107.738 336.016C107.981 335.717 108.275 335.493 108.62 335.344C108.975 335.194 109.362 335.12 109.782 335.12C110.267 335.12 110.697 335.213 111.07 335.4C111.453 335.586 111.751 335.871 111.966 336.254C112.19 336.627 112.302 337.098 112.302 337.668V342.26H110.384V338.214C110.384 337.616 110.267 337.206 110.034 336.982C109.801 336.748 109.497 336.632 109.124 336.632C108.863 336.632 108.606 336.697 108.354 336.828C108.111 336.949 107.911 337.15 107.752 337.43C107.603 337.71 107.528 338.083 107.528 338.55V342.26H105.61ZM116.701 333.118V339.978C116.701 340.314 116.785 340.561 116.953 340.72C117.131 340.869 117.369 340.944 117.667 340.944C117.91 340.944 118.115 340.911 118.283 340.846C118.461 340.771 118.619 340.673 118.759 340.552L119.067 341.826C118.843 342.003 118.563 342.143 118.227 342.246C117.891 342.348 117.537 342.4 117.163 342.4C116.697 342.4 116.281 342.33 115.917 342.19C115.563 342.05 115.283 341.826 115.077 341.518C114.881 341.21 114.783 340.799 114.783 340.286V333.65L116.701 333.118ZM118.941 335.26V336.688H113.495V335.26H118.941ZM120.239 342.26V335.26H121.905L122.031 336.632C122.218 336.146 122.488 335.773 122.843 335.512C123.207 335.25 123.66 335.12 124.201 335.12C124.36 335.12 124.504 335.134 124.635 335.162C124.766 335.19 124.873 335.227 124.957 335.274L124.733 336.884C124.64 336.846 124.523 336.818 124.383 336.8C124.252 336.781 124.08 336.772 123.865 336.772C123.585 336.772 123.314 336.842 123.053 336.982C122.792 337.112 122.577 337.318 122.409 337.598C122.241 337.868 122.157 338.214 122.157 338.634V342.26H120.239ZM130.012 337.794C130.012 337.392 129.895 337.08 129.662 336.856C129.438 336.632 129.139 336.52 128.766 336.52C128.421 336.52 128.117 336.608 127.856 336.786C127.595 336.963 127.403 337.257 127.282 337.668L125.644 337.164C125.803 336.548 126.148 336.053 126.68 335.68C127.221 335.306 127.945 335.12 128.85 335.12C129.466 335.12 130.003 335.218 130.46 335.414C130.917 335.6 131.272 335.885 131.524 336.268C131.785 336.65 131.916 337.131 131.916 337.71V340.552C131.916 340.906 132.084 341.084 132.42 341.084C132.579 341.084 132.728 341.06 132.868 341.014L132.756 342.204C132.513 342.325 132.21 342.386 131.846 342.386C131.519 342.386 131.225 342.33 130.964 342.218C130.703 342.106 130.497 341.938 130.348 341.714C130.199 341.48 130.124 341.191 130.124 340.846V340.79L130.46 340.734C130.404 341.088 130.25 341.392 129.998 341.644C129.746 341.886 129.438 342.073 129.074 342.204C128.719 342.334 128.351 342.4 127.968 342.4C127.492 342.4 127.081 342.33 126.736 342.19C126.391 342.04 126.125 341.826 125.938 341.546C125.751 341.266 125.658 340.92 125.658 340.51C125.658 339.987 125.826 339.562 126.162 339.236C126.498 338.9 126.979 338.671 127.604 338.55L130.236 338.018L130.222 339.208L128.542 339.544C128.225 339.609 127.982 339.698 127.814 339.81C127.655 339.912 127.576 340.085 127.576 340.328C127.576 340.561 127.66 340.738 127.828 340.86C128.005 340.981 128.215 341.042 128.458 341.042C128.654 341.042 128.845 341.018 129.032 340.972C129.219 340.925 129.387 340.85 129.536 340.748C129.685 340.645 129.802 340.505 129.886 340.328C129.97 340.15 130.012 339.936 130.012 339.684V337.794ZM135.951 332.194V340.104C135.951 340.43 136.007 340.659 136.119 340.79C136.231 340.92 136.418 340.986 136.679 340.986C136.838 340.986 136.969 340.976 137.071 340.958C137.174 340.93 137.305 340.892 137.463 340.846L137.295 342.106C137.137 342.199 136.936 342.269 136.693 342.316C136.46 342.372 136.227 342.4 135.993 342.4C135.312 342.4 134.813 342.236 134.495 341.91C134.187 341.574 134.033 341.042 134.033 340.314V332.194H135.951ZM139.498 334.252C139.097 334.252 138.798 334.168 138.602 334C138.406 333.822 138.308 333.566 138.308 333.23C138.308 332.884 138.406 332.628 138.602 332.46C138.798 332.282 139.097 332.194 139.498 332.194C139.899 332.194 140.198 332.282 140.394 332.46C140.59 332.628 140.688 332.884 140.688 333.23C140.688 333.566 140.59 333.822 140.394 334C140.198 334.168 139.899 334.252 139.498 334.252ZM140.45 335.26V342.26H138.532V335.26H140.45ZM142.077 342.26V341.028L145.185 337.444L145.983 336.646L144.821 336.674H142.105V335.26H148.111V336.492L145.017 340.062L144.219 340.874L145.493 340.846H148.223V342.26H142.077ZM153.801 337.794C153.801 337.392 153.685 337.08 153.451 336.856C153.227 336.632 152.929 336.52 152.555 336.52C152.21 336.52 151.907 336.608 151.645 336.786C151.384 336.963 151.193 337.257 151.071 337.668L149.433 337.164C149.592 336.548 149.937 336.053 150.469 335.68C151.011 335.306 151.734 335.12 152.639 335.12C153.255 335.12 153.792 335.218 154.249 335.414C154.707 335.6 155.061 335.885 155.313 336.268C155.575 336.65 155.705 337.131 155.705 337.71V340.552C155.705 340.906 155.873 341.084 156.209 341.084C156.368 341.084 156.517 341.06 156.657 341.014L156.545 342.204C156.303 342.325 155.999 342.386 155.635 342.386C155.309 342.386 155.015 342.33 154.753 342.218C154.492 342.106 154.287 341.938 154.137 341.714C153.988 341.48 153.913 341.191 153.913 340.846V340.79L154.249 340.734C154.193 341.088 154.039 341.392 153.787 341.644C153.535 341.886 153.227 342.073 152.863 342.204C152.509 342.334 152.14 342.4 151.757 342.4C151.281 342.4 150.871 342.33 150.525 342.19C150.18 342.04 149.914 341.826 149.727 341.546C149.541 341.266 149.447 340.92 149.447 340.51C149.447 339.987 149.615 339.562 149.951 339.236C150.287 338.9 150.768 338.671 151.393 338.55L154.025 338.018L154.011 339.208L152.331 339.544C152.014 339.609 151.771 339.698 151.603 339.81C151.445 339.912 151.365 340.085 151.365 340.328C151.365 340.561 151.449 340.738 151.617 340.86C151.795 340.981 152.005 341.042 152.247 341.042C152.443 341.042 152.635 341.018 152.821 340.972C153.008 340.925 153.176 340.85 153.325 340.748C153.475 340.645 153.591 340.505 153.675 340.328C153.759 340.15 153.801 339.936 153.801 339.684V337.794ZM160.055 333.118V339.978C160.055 340.314 160.139 340.561 160.307 340.72C160.484 340.869 160.722 340.944 161.021 340.944C161.264 340.944 161.469 340.911 161.637 340.846C161.814 340.771 161.973 340.673 162.113 340.552L162.421 341.826C162.197 342.003 161.917 342.143 161.581 342.246C161.245 342.348 160.89 342.4 160.517 342.4C160.05 342.4 159.635 342.33 159.271 342.19C158.916 342.05 158.636 341.826 158.431 341.518C158.235 341.21 158.137 340.799 158.137 340.286V333.65L160.055 333.118ZM162.295 335.26V336.688H156.849V335.26H162.295ZM164.558 334.252C164.157 334.252 163.858 334.168 163.662 334C163.466 333.822 163.368 333.566 163.368 333.23C163.368 332.884 163.466 332.628 163.662 332.46C163.858 332.282 164.157 332.194 164.558 332.194C164.96 332.194 165.258 332.282 165.454 332.46C165.65 332.628 165.748 332.884 165.748 333.23C165.748 333.566 165.65 333.822 165.454 334C165.258 334.168 164.96 334.252 164.558 334.252ZM165.51 335.26V342.26H163.592V335.26H165.51ZM170.736 335.12C171.445 335.12 172.066 335.264 172.598 335.554C173.139 335.843 173.559 336.258 173.858 336.8C174.166 337.341 174.32 337.994 174.32 338.76C174.32 339.516 174.166 340.169 173.858 340.72C173.559 341.261 173.139 341.676 172.598 341.966C172.066 342.255 171.445 342.4 170.736 342.4C170.036 342.4 169.415 342.255 168.874 341.966C168.332 341.676 167.908 341.261 167.6 340.72C167.301 340.169 167.152 339.516 167.152 338.76C167.152 337.994 167.301 337.341 167.6 336.8C167.908 336.258 168.332 335.843 168.874 335.554C169.415 335.264 170.036 335.12 170.736 335.12ZM170.736 336.548C170.381 336.548 170.078 336.632 169.826 336.8C169.583 336.958 169.396 337.201 169.266 337.528C169.135 337.854 169.07 338.265 169.07 338.76C169.07 339.254 169.135 339.665 169.266 339.992C169.396 340.318 169.583 340.566 169.826 340.734C170.078 340.892 170.381 340.972 170.736 340.972C171.081 340.972 171.375 340.892 171.618 340.734C171.87 340.566 172.061 340.318 172.192 339.992C172.322 339.665 172.388 339.254 172.388 338.76C172.388 338.265 172.322 337.854 172.192 337.528C172.061 337.201 171.87 336.958 171.618 336.8C171.375 336.632 171.081 336.548 170.736 336.548ZM175.925 342.26V335.26H177.647L177.759 337.36L177.521 337.136C177.633 336.678 177.81 336.305 178.053 336.016C178.295 335.717 178.589 335.493 178.935 335.344C179.289 335.194 179.677 335.12 180.097 335.12C180.582 335.12 181.011 335.213 181.385 335.4C181.767 335.586 182.066 335.871 182.281 336.254C182.505 336.627 182.617 337.098 182.617 337.668V342.26H180.699V338.214C180.699 337.616 180.582 337.206 180.349 336.982C180.115 336.748 179.812 336.632 179.439 336.632C179.177 336.632 178.921 336.697 178.669 336.828C178.426 336.949 178.225 337.15 178.067 337.43C177.917 337.71 177.843 338.083 177.843 338.55V342.26H175.925Z" fill="#EEF0FF"/>
</g>
<path d="M351.667 129.918V73.2939" stroke="url(#paint4_linear)" stroke-width="4"/>
<path d="M461.704 239C461.704 299.245 412.812 348.084 352.5 348.084C292.189 348.084 243.296 299.245 243.296 239C243.296 178.755 292.189 129.916 352.5 129.916C412.812 129.916 461.704 178.755 461.704 239ZM285.873 239C285.873 275.756 315.703 305.553 352.5 305.553C389.297 305.553 419.127 275.756 419.127 239C419.127 202.243 389.297 172.446 352.5 172.446C315.703 172.446 285.873 202.243 285.873 239Z" fill="url(#paint5_linear)"/>
<path d="M351.667 348.085V404.709" stroke="url(#paint6_linear)" stroke-width="4"/>
<g filter="url(#filter4_d)">
<rect x="506.99" y="122.423" width="155.009" height="53.2929" rx="26.6464" fill="#27292E"/>
<path d="M534.131 144.829V154.069H532.199V144.829H534.131ZM536.296 154.069V147.069H538.018L538.13 149.169L537.892 148.945C538.004 148.488 538.181 148.115 538.424 147.825C538.667 147.527 538.961 147.303 539.306 147.153C539.661 147.004 540.048 146.929 540.468 146.929C540.953 146.929 541.383 147.023 541.756 147.209C542.139 147.396 542.437 147.681 542.652 148.063C542.876 148.437 542.988 148.908 542.988 149.477V154.069H541.07V150.023C541.07 149.426 540.953 149.015 540.72 148.791C540.487 148.558 540.183 148.441 539.81 148.441C539.549 148.441 539.292 148.507 539.04 148.637C538.797 148.759 538.597 148.959 538.438 149.239C538.289 149.519 538.214 149.893 538.214 150.359V154.069H536.296ZM547.387 144.927V151.787C547.387 152.123 547.471 152.371 547.639 152.529C547.817 152.679 548.055 152.753 548.353 152.753C548.596 152.753 548.801 152.721 548.969 152.655C549.147 152.581 549.305 152.483 549.445 152.361L549.753 153.635C549.529 153.813 549.249 153.953 548.913 154.055C548.577 154.158 548.223 154.209 547.849 154.209C547.383 154.209 546.967 154.139 546.603 153.999C546.249 153.859 545.969 153.635 545.763 153.327C545.567 153.019 545.469 152.609 545.469 152.095V145.459L547.387 144.927ZM549.627 147.069V148.497H544.181V147.069H549.627ZM554.173 154.209C553.436 154.209 552.792 154.065 552.241 153.775C551.7 153.486 551.28 153.071 550.981 152.529C550.682 151.988 550.533 151.335 550.533 150.569C550.533 149.804 550.682 149.151 550.981 148.609C551.28 148.068 551.695 147.653 552.227 147.363C552.768 147.074 553.384 146.929 554.075 146.929C554.784 146.929 555.386 147.074 555.881 147.363C556.376 147.643 556.754 148.031 557.015 148.525C557.276 149.011 557.407 149.566 557.407 150.191C557.407 150.378 557.402 150.555 557.393 150.723C557.384 150.891 557.37 151.041 557.351 151.171H551.765V149.841H556.511L555.587 150.177C555.587 149.589 555.452 149.137 555.181 148.819C554.92 148.502 554.546 148.343 554.061 148.343C553.706 148.343 553.398 148.427 553.137 148.595C552.885 148.763 552.694 149.015 552.563 149.351C552.432 149.678 552.367 150.093 552.367 150.597C552.367 151.092 552.437 151.503 552.577 151.829C552.726 152.147 552.932 152.385 553.193 152.543C553.464 152.702 553.786 152.781 554.159 152.781C554.57 152.781 554.901 152.702 555.153 152.543C555.405 152.385 555.601 152.165 555.741 151.885L557.267 152.473C557.118 152.837 556.889 153.15 556.581 153.411C556.282 153.673 555.923 153.873 555.503 154.013C555.092 154.144 554.649 154.209 554.173 154.209ZM559.032 154.069V147.069H560.698L560.824 148.441C561.011 147.956 561.282 147.583 561.636 147.321C562 147.06 562.453 146.929 562.994 146.929C563.153 146.929 563.298 146.943 563.428 146.971C563.559 146.999 563.666 147.037 563.75 147.083L563.526 148.693C563.433 148.656 563.316 148.628 563.176 148.609C563.046 148.591 562.873 148.581 562.658 148.581C562.378 148.581 562.108 148.651 561.846 148.791C561.585 148.922 561.37 149.127 561.202 149.407C561.034 149.678 560.95 150.023 560.95 150.443V154.069H559.032ZM567.994 146.929C568.703 146.929 569.324 147.074 569.856 147.363C570.397 147.653 570.817 148.068 571.116 148.609C571.424 149.151 571.578 149.804 571.578 150.569C571.578 151.325 571.424 151.979 571.116 152.529C570.817 153.071 570.397 153.486 569.856 153.775C569.324 154.065 568.703 154.209 567.994 154.209C567.294 154.209 566.673 154.065 566.132 153.775C565.591 153.486 565.166 153.071 564.858 152.529C564.559 151.979 564.41 151.325 564.41 150.569C564.41 149.804 564.559 149.151 564.858 148.609C565.166 148.068 565.591 147.653 566.132 147.363C566.673 147.074 567.294 146.929 567.994 146.929ZM567.994 148.357C567.639 148.357 567.336 148.441 567.084 148.609C566.841 148.768 566.655 149.011 566.524 149.337C566.393 149.664 566.328 150.075 566.328 150.569C566.328 151.064 566.393 151.475 566.524 151.801C566.655 152.128 566.841 152.375 567.084 152.543C567.336 152.702 567.639 152.781 567.994 152.781C568.339 152.781 568.633 152.702 568.876 152.543C569.128 152.375 569.319 152.128 569.45 151.801C569.581 151.475 569.646 151.064 569.646 150.569C569.646 150.075 569.581 149.664 569.45 149.337C569.319 149.011 569.128 148.768 568.876 148.609C568.633 148.441 568.339 148.357 567.994 148.357ZM573.183 157.009V147.069H574.905L575.031 149.295L574.793 149.043C574.877 148.633 575.031 148.269 575.255 147.951C575.488 147.634 575.782 147.387 576.137 147.209C576.491 147.023 576.888 146.929 577.327 146.929C577.896 146.929 578.405 147.074 578.853 147.363C579.301 147.653 579.651 148.068 579.903 148.609C580.164 149.141 580.295 149.79 580.295 150.555C580.295 151.321 580.164 151.979 579.903 152.529C579.641 153.071 579.282 153.486 578.825 153.775C578.377 154.065 577.863 154.209 577.285 154.209C576.669 154.209 576.155 154.037 575.745 153.691C575.343 153.346 575.068 152.912 574.919 152.389L575.101 152.095V157.009H573.183ZM576.725 152.739C577.238 152.739 577.639 152.557 577.929 152.193C578.227 151.82 578.377 151.279 578.377 150.569C578.377 149.86 578.232 149.323 577.943 148.959C577.663 148.586 577.266 148.399 576.753 148.399C576.426 148.399 576.137 148.488 575.885 148.665C575.642 148.833 575.451 149.081 575.311 149.407C575.171 149.725 575.101 150.112 575.101 150.569C575.101 151.008 575.166 151.395 575.297 151.731C575.427 152.058 575.614 152.31 575.857 152.487C576.109 152.655 576.398 152.739 576.725 152.739ZM585.208 154.209C584.471 154.209 583.827 154.065 583.276 153.775C582.735 153.486 582.315 153.071 582.016 152.529C581.717 151.988 581.568 151.335 581.568 150.569C581.568 149.804 581.717 149.151 582.016 148.609C582.315 148.068 582.73 147.653 583.262 147.363C583.803 147.074 584.419 146.929 585.11 146.929C585.819 146.929 586.421 147.074 586.916 147.363C587.411 147.643 587.789 148.031 588.05 148.525C588.311 149.011 588.442 149.566 588.442 150.191C588.442 150.378 588.437 150.555 588.428 150.723C588.419 150.891 588.405 151.041 588.386 151.171H582.8V149.841H587.546L586.622 150.177C586.622 149.589 586.487 149.137 586.216 148.819C585.955 148.502 585.581 148.343 585.096 148.343C584.741 148.343 584.433 148.427 584.172 148.595C583.92 148.763 583.729 149.015 583.598 149.351C583.467 149.678 583.402 150.093 583.402 150.597C583.402 151.092 583.472 151.503 583.612 151.829C583.761 152.147 583.967 152.385 584.228 152.543C584.499 152.702 584.821 152.781 585.194 152.781C585.605 152.781 585.936 152.702 586.188 152.543C586.44 152.385 586.636 152.165 586.776 151.885L588.302 152.473C588.153 152.837 587.924 153.15 587.616 153.411C587.317 153.673 586.958 153.873 586.538 154.013C586.127 154.144 585.684 154.209 585.208 154.209ZM590.068 154.069V147.069H591.734L591.86 148.441C592.046 147.956 592.317 147.583 592.672 147.321C593.036 147.06 593.488 146.929 594.03 146.929C594.188 146.929 594.333 146.943 594.464 146.971C594.594 146.999 594.702 147.037 594.786 147.083L594.562 148.693C594.468 148.656 594.352 148.628 594.212 148.609C594.081 148.591 593.908 148.581 593.694 148.581C593.414 148.581 593.143 148.651 592.882 148.791C592.62 148.922 592.406 149.127 592.238 149.407C592.07 149.678 591.986 150.023 591.986 150.443V154.069H590.068ZM599.841 149.603C599.841 149.202 599.724 148.889 599.491 148.665C599.267 148.441 598.968 148.329 598.595 148.329C598.249 148.329 597.946 148.418 597.685 148.595C597.423 148.773 597.232 149.067 597.111 149.477L595.473 148.973C595.631 148.357 595.977 147.863 596.509 147.489C597.05 147.116 597.773 146.929 598.679 146.929C599.295 146.929 599.831 147.027 600.289 147.223C600.746 147.41 601.101 147.695 601.353 148.077C601.614 148.46 601.745 148.941 601.745 149.519V152.361C601.745 152.716 601.913 152.893 602.249 152.893C602.407 152.893 602.557 152.87 602.697 152.823L602.585 154.013C602.342 154.135 602.039 154.195 601.675 154.195C601.348 154.195 601.054 154.139 600.793 154.027C600.531 153.915 600.326 153.747 600.177 153.523C600.027 153.29 599.953 153.001 599.953 152.655V152.599L600.289 152.543C600.233 152.898 600.079 153.201 599.827 153.453C599.575 153.696 599.267 153.883 598.903 154.013C598.548 154.144 598.179 154.209 597.797 154.209C597.321 154.209 596.91 154.139 596.565 153.999C596.219 153.85 595.953 153.635 595.767 153.355C595.58 153.075 595.487 152.73 595.487 152.319C595.487 151.797 595.655 151.372 595.991 151.045C596.327 150.709 596.807 150.481 597.433 150.359L600.065 149.827L600.051 151.017L598.371 151.353C598.053 151.419 597.811 151.507 597.643 151.619C597.484 151.722 597.405 151.895 597.405 152.137C597.405 152.371 597.489 152.548 597.657 152.669C597.834 152.791 598.044 152.851 598.287 152.851C598.483 152.851 598.674 152.828 598.861 152.781C599.047 152.735 599.215 152.66 599.365 152.557C599.514 152.455 599.631 152.315 599.715 152.137C599.799 151.96 599.841 151.745 599.841 151.493V149.603ZM608.006 154.209C607.577 154.209 607.185 154.121 606.83 153.943C606.485 153.757 606.195 153.505 605.962 153.187C605.738 152.861 605.584 152.497 605.5 152.095L605.696 151.843L605.584 154.069H603.89V144.003H605.808V149.043L605.626 148.749C605.775 148.227 606.06 147.793 606.48 147.447C606.9 147.102 607.427 146.929 608.062 146.929C608.622 146.929 609.121 147.074 609.56 147.363C610.008 147.653 610.358 148.068 610.61 148.609C610.871 149.151 611.002 149.809 611.002 150.583C611.002 151.339 610.871 151.988 610.61 152.529C610.358 153.071 610.003 153.486 609.546 153.775C609.098 154.065 608.585 154.209 608.006 154.209ZM607.432 152.739C607.945 152.739 608.347 152.557 608.636 152.193C608.935 151.82 609.084 151.279 609.084 150.569C609.084 149.86 608.939 149.323 608.65 148.959C608.361 148.586 607.959 148.399 607.446 148.399C607.11 148.399 606.821 148.488 606.578 148.665C606.335 148.843 606.144 149.095 606.004 149.421C605.873 149.748 605.808 150.135 605.808 150.583C605.808 151.031 605.873 151.419 606.004 151.745C606.144 152.072 606.335 152.319 606.578 152.487C606.83 152.655 607.115 152.739 607.432 152.739ZM613.633 146.061C613.232 146.061 612.933 145.977 612.737 145.809C612.541 145.632 612.443 145.375 612.443 145.039C612.443 144.694 612.541 144.437 612.737 144.269C612.933 144.092 613.232 144.003 613.633 144.003C614.035 144.003 614.333 144.092 614.529 144.269C614.725 144.437 614.823 144.694 614.823 145.039C614.823 145.375 614.725 145.632 614.529 145.809C614.333 145.977 614.035 146.061 613.633 146.061ZM614.585 147.069V154.069H612.667V147.069H614.585ZM618.508 144.003V151.913C618.508 152.24 618.564 152.469 618.676 152.599C618.788 152.73 618.975 152.795 619.236 152.795C619.395 152.795 619.526 152.786 619.628 152.767C619.731 152.739 619.862 152.702 620.02 152.655L619.852 153.915C619.694 154.009 619.493 154.079 619.25 154.125C619.017 154.181 618.784 154.209 618.55 154.209C617.869 154.209 617.37 154.046 617.052 153.719C616.744 153.383 616.59 152.851 616.59 152.123V144.003H618.508ZM622.055 146.061C621.654 146.061 621.355 145.977 621.159 145.809C620.963 145.632 620.865 145.375 620.865 145.039C620.865 144.694 620.963 144.437 621.159 144.269C621.355 144.092 621.654 144.003 622.055 144.003C622.456 144.003 622.755 144.092 622.951 144.269C623.147 144.437 623.245 144.694 623.245 145.039C623.245 145.375 623.147 145.632 622.951 145.809C622.755 145.977 622.456 146.061 622.055 146.061ZM623.007 147.069V154.069H621.089V147.069H623.007ZM627.518 144.927V151.787C627.518 152.123 627.602 152.371 627.77 152.529C627.948 152.679 628.186 152.753 628.484 152.753C628.727 152.753 628.932 152.721 629.1 152.655C629.278 152.581 629.436 152.483 629.576 152.361L629.884 153.635C629.66 153.813 629.38 153.953 629.044 154.055C628.708 154.158 628.354 154.209 627.98 154.209C627.514 154.209 627.098 154.139 626.734 153.999C626.38 153.859 626.1 153.635 625.894 153.327C625.698 153.019 625.6 152.609 625.6 152.095V145.459L627.518 144.927ZM629.758 147.069V148.497H624.312V147.069H629.758ZM637.636 147.069L634.808 154.503C634.584 155.138 634.332 155.642 634.052 156.015C633.781 156.389 633.464 156.659 633.1 156.827C632.745 156.995 632.321 157.079 631.826 157.079C631.462 157.079 631.126 157.033 630.818 156.939C630.519 156.855 630.258 156.743 630.034 156.603L630.44 155.217C630.617 155.357 630.804 155.455 631 155.511C631.196 155.577 631.42 155.609 631.672 155.609C631.933 155.609 632.157 155.553 632.344 155.441C632.54 155.329 632.703 155.105 632.834 154.769L633.072 154.167L632.302 152.347L630.16 147.069H632.288L633.618 151.269L633.982 152.669L634.416 151.185L635.69 147.069H637.636Z" fill="#EEF0FF"/>
</g>
<g filter="url(#filter5_d)">
<rect x="507.322" y="310.613" width="139.009" height="53.2929" rx="26.6464" fill="#27292E"/>
<path d="M536.52 332.88C537.435 332.88 538.224 333.071 538.886 333.454C539.549 333.836 540.058 334.382 540.412 335.092C540.776 335.801 540.958 336.65 540.958 337.64C540.958 338.629 540.776 339.478 540.412 340.188C540.058 340.897 539.549 341.443 538.886 341.826C538.224 342.208 537.435 342.4 536.52 342.4C535.606 342.4 534.812 342.208 534.14 341.826C533.478 341.443 532.964 340.897 532.6 340.188C532.246 339.478 532.068 338.629 532.068 337.64C532.068 336.65 532.246 335.801 532.6 335.092C532.964 334.382 533.478 333.836 534.14 333.454C534.812 333.071 535.606 332.88 536.52 332.88ZM536.52 334.462C536.007 334.462 535.564 334.583 535.19 334.826C534.826 335.068 534.546 335.428 534.35 335.904C534.164 336.38 534.07 336.958 534.07 337.64C534.07 338.321 534.164 338.9 534.35 339.376C534.546 339.852 534.826 340.211 535.19 340.454C535.564 340.696 536.007 340.818 536.52 340.818C537.034 340.818 537.472 340.696 537.836 340.454C538.2 340.211 538.476 339.852 538.662 339.376C538.858 338.9 538.956 338.321 538.956 337.64C538.956 336.958 538.858 336.38 538.662 335.904C538.476 335.428 538.2 335.068 537.836 334.826C537.472 334.583 537.034 334.462 536.52 334.462ZM542.67 345.2V335.26H544.392L544.518 337.486L544.28 337.234C544.364 336.823 544.518 336.459 544.742 336.142C544.975 335.824 545.269 335.577 545.624 335.4C545.979 335.213 546.375 335.12 546.814 335.12C547.383 335.12 547.892 335.264 548.34 335.554C548.788 335.843 549.138 336.258 549.39 336.8C549.651 337.332 549.782 337.98 549.782 338.746C549.782 339.511 549.651 340.169 549.39 340.72C549.129 341.261 548.769 341.676 548.312 341.966C547.864 342.255 547.351 342.4 546.772 342.4C546.156 342.4 545.643 342.227 545.232 341.882C544.831 341.536 544.555 341.102 544.406 340.58L544.588 340.286V345.2H542.67ZM546.212 340.93C546.725 340.93 547.127 340.748 547.416 340.384C547.715 340.01 547.864 339.469 547.864 338.76C547.864 338.05 547.719 337.514 547.43 337.15C547.15 336.776 546.753 336.59 546.24 336.59C545.913 336.59 545.624 336.678 545.372 336.856C545.129 337.024 544.938 337.271 544.798 337.598C544.658 337.915 544.588 338.302 544.588 338.76C544.588 339.198 544.653 339.586 544.784 339.922C544.915 340.248 545.101 340.5 545.344 340.678C545.596 340.846 545.885 340.93 546.212 340.93ZM554.695 342.4C553.958 342.4 553.314 342.255 552.763 341.966C552.222 341.676 551.802 341.261 551.503 340.72C551.205 340.178 551.055 339.525 551.055 338.76C551.055 337.994 551.205 337.341 551.503 336.8C551.802 336.258 552.217 335.843 552.749 335.554C553.291 335.264 553.907 335.12 554.597 335.12C555.307 335.12 555.909 335.264 556.403 335.554C556.898 335.834 557.276 336.221 557.537 336.716C557.799 337.201 557.929 337.756 557.929 338.382C557.929 338.568 557.925 338.746 557.915 338.914C557.906 339.082 557.892 339.231 557.873 339.362H552.287V338.032H557.033L556.109 338.368C556.109 337.78 555.974 337.327 555.703 337.01C555.442 336.692 555.069 336.534 554.583 336.534C554.229 336.534 553.921 336.618 553.659 336.786C553.407 336.954 553.216 337.206 553.085 337.542C552.955 337.868 552.889 338.284 552.889 338.788C552.889 339.282 552.959 339.693 553.099 340.02C553.249 340.337 553.454 340.575 553.715 340.734C553.986 340.892 554.308 340.972 554.681 340.972C555.092 340.972 555.423 340.892 555.675 340.734C555.927 340.575 556.123 340.356 556.263 340.076L557.789 340.664C557.64 341.028 557.411 341.34 557.103 341.602C556.805 341.863 556.445 342.064 556.025 342.204C555.615 342.334 555.171 342.4 554.695 342.4ZM559.555 342.26V335.26H561.277L561.389 337.36L561.151 337.136C561.263 336.678 561.44 336.305 561.683 336.016C561.926 335.717 562.22 335.493 562.565 335.344C562.92 335.194 563.307 335.12 563.727 335.12C564.212 335.12 564.642 335.213 565.015 335.4C565.398 335.586 565.696 335.871 565.911 336.254C566.135 336.627 566.247 337.098 566.247 337.668V342.26H564.329V338.214C564.329 337.616 564.212 337.206 563.979 336.982C563.746 336.748 563.442 336.632 563.069 336.632C562.808 336.632 562.551 336.697 562.299 336.828C562.056 336.949 561.856 337.15 561.697 337.43C561.548 337.71 561.473 338.083 561.473 338.55V342.26H559.555ZM573.333 337.724V339.376H568.391V337.724H573.333ZM578.779 332.88C579.619 332.88 580.357 333.024 580.991 333.314C581.626 333.603 582.167 334.032 582.615 334.602L581.537 335.848C581.155 335.362 580.735 335.008 580.277 334.784C579.829 334.55 579.307 334.434 578.709 334.434C578.317 334.434 577.991 334.485 577.729 334.588C577.477 334.69 577.291 334.826 577.169 334.994C577.057 335.162 577.001 335.348 577.001 335.554C577.001 335.806 577.099 336.02 577.295 336.198C577.491 336.366 577.827 336.506 578.303 336.618L580.025 337.01C580.94 337.215 581.593 337.523 581.985 337.934C582.387 338.335 582.587 338.858 582.587 339.502C582.587 340.108 582.429 340.631 582.111 341.07C581.794 341.499 581.351 341.83 580.781 342.064C580.212 342.288 579.559 342.4 578.821 342.4C578.177 342.4 577.585 342.325 577.043 342.176C576.511 342.017 576.035 341.802 575.615 341.532C575.195 341.261 574.845 340.948 574.565 340.594L575.657 339.292C575.872 339.59 576.138 339.856 576.455 340.09C576.773 340.323 577.132 340.51 577.533 340.65C577.944 340.78 578.373 340.846 578.821 340.846C579.204 340.846 579.526 340.804 579.787 340.72C580.058 340.626 580.259 340.5 580.389 340.342C580.529 340.174 580.599 339.973 580.599 339.74C580.599 339.497 580.515 339.292 580.347 339.124C580.189 338.946 579.89 338.811 579.451 338.718L577.575 338.298C577.034 338.167 576.567 337.999 576.175 337.794C575.793 337.579 575.499 337.308 575.293 336.982C575.097 336.646 574.999 336.249 574.999 335.792C574.999 335.241 575.149 334.746 575.447 334.308C575.746 333.869 576.175 333.524 576.735 333.272C577.305 333.01 577.986 332.88 578.779 332.88ZM587.411 335.12C588.12 335.12 588.741 335.264 589.273 335.554C589.814 335.843 590.234 336.258 590.533 336.8C590.841 337.341 590.995 337.994 590.995 338.76C590.995 339.516 590.841 340.169 590.533 340.72C590.234 341.261 589.814 341.676 589.273 341.966C588.741 342.255 588.12 342.4 587.411 342.4C586.711 342.4 586.09 342.255 585.549 341.966C585.008 341.676 584.583 341.261 584.275 340.72C583.976 340.169 583.827 339.516 583.827 338.76C583.827 337.994 583.976 337.341 584.275 336.8C584.583 336.258 585.008 335.843 585.549 335.554C586.09 335.264 586.711 335.12 587.411 335.12ZM587.411 336.548C587.056 336.548 586.753 336.632 586.501 336.8C586.258 336.958 586.072 337.201 585.941 337.528C585.81 337.854 585.745 338.265 585.745 338.76C585.745 339.254 585.81 339.665 585.941 339.992C586.072 340.318 586.258 340.566 586.501 340.734C586.753 340.892 587.056 340.972 587.411 340.972C587.756 340.972 588.05 340.892 588.293 340.734C588.545 340.566 588.736 340.318 588.867 339.992C588.998 339.665 589.063 339.254 589.063 338.76C589.063 338.265 588.998 337.854 588.867 337.528C588.736 337.201 588.545 336.958 588.293 336.8C588.05 336.632 587.756 336.548 587.411 336.548ZM595.036 342.4C594.569 342.4 594.149 342.316 593.776 342.148C593.402 341.98 593.104 341.714 592.88 341.35C592.665 340.976 592.558 340.496 592.558 339.908V335.26H594.476V339.446C594.476 339.987 594.588 340.365 594.812 340.58C595.036 340.785 595.358 340.888 595.778 340.888C595.974 340.888 596.165 340.855 596.352 340.79C596.538 340.715 596.702 340.603 596.842 340.454C596.991 340.304 597.108 340.113 597.192 339.88C597.276 339.637 597.318 339.352 597.318 339.026V335.26H599.236V342.26H597.528L597.458 341.042C597.224 341.508 596.902 341.854 596.492 342.078C596.09 342.292 595.605 342.4 595.036 342.4ZM601.254 342.26V335.26H602.92L603.046 336.632C603.233 336.146 603.503 335.773 603.858 335.512C604.222 335.25 604.675 335.12 605.216 335.12C605.375 335.12 605.519 335.134 605.65 335.162C605.781 335.19 605.888 335.227 605.972 335.274L605.748 336.884C605.655 336.846 605.538 336.818 605.398 336.8C605.267 336.781 605.095 336.772 604.88 336.772C604.6 336.772 604.329 336.842 604.068 336.982C603.807 337.112 603.592 337.318 603.424 337.598C603.256 337.868 603.172 338.214 603.172 338.634V342.26H601.254ZM610.202 335.12C610.827 335.12 611.354 335.213 611.784 335.4C612.222 335.577 612.572 335.824 612.834 336.142C613.104 336.45 613.296 336.795 613.408 337.178L611.616 337.822C611.522 337.402 611.364 337.084 611.14 336.87C610.916 336.655 610.612 336.548 610.23 336.548C609.875 336.548 609.572 336.632 609.32 336.8C609.068 336.958 608.876 337.206 608.746 337.542C608.615 337.868 608.55 338.279 608.55 338.774C608.55 339.268 608.615 339.679 608.746 340.006C608.886 340.332 609.082 340.575 609.334 340.734C609.595 340.892 609.898 340.972 610.244 340.972C610.524 340.972 610.762 340.925 610.958 340.832C611.154 340.729 611.312 340.584 611.434 340.398C611.564 340.211 611.653 339.987 611.7 339.726L613.436 340.286C613.333 340.706 613.142 341.074 612.862 341.392C612.582 341.709 612.222 341.956 611.784 342.134C611.345 342.311 610.836 342.4 610.258 342.4C609.539 342.4 608.904 342.255 608.354 341.966C607.803 341.676 607.378 341.261 607.08 340.72C606.781 340.178 606.632 339.525 606.632 338.76C606.632 337.994 606.781 337.341 607.08 336.8C607.378 336.258 607.798 335.843 608.34 335.554C608.881 335.264 609.502 335.12 610.202 335.12ZM618.174 342.4C617.437 342.4 616.793 342.255 616.242 341.966C615.701 341.676 615.281 341.261 614.982 340.72C614.683 340.178 614.534 339.525 614.534 338.76C614.534 337.994 614.683 337.341 614.982 336.8C615.281 336.258 615.696 335.843 616.228 335.554C616.769 335.264 617.385 335.12 618.076 335.12C618.785 335.12 619.387 335.264 619.882 335.554C620.377 335.834 620.755 336.221 621.016 336.716C621.277 337.201 621.408 337.756 621.408 338.382C621.408 338.568 621.403 338.746 621.394 338.914C621.385 339.082 621.371 339.231 621.352 339.362H615.766V338.032H620.512L619.588 338.368C619.588 337.78 619.453 337.327 619.182 337.01C618.921 336.692 618.547 336.534 618.062 336.534C617.707 336.534 617.399 336.618 617.138 336.786C616.886 336.954 616.695 337.206 616.564 337.542C616.433 337.868 616.368 338.284 616.368 338.788C616.368 339.282 616.438 339.693 616.578 340.02C616.727 340.337 616.933 340.575 617.194 340.734C617.465 340.892 617.787 340.972 618.16 340.972C618.571 340.972 618.902 340.892 619.154 340.734C619.406 340.575 619.602 340.356 619.742 340.076L621.268 340.664C621.119 341.028 620.89 341.34 620.582 341.602C620.283 341.863 619.924 342.064 619.504 342.204C619.093 342.334 618.65 342.4 618.174 342.4Z" fill="#EEF0FF"/>
</g>
<defs>
<filter id="filter0_d" x="258.746" y="0" width="185.006" height="133.293" filterUnits="userSpaceOnUse" color-interpolation-filters="sRGB">
<feFlood flood-opacity="0" result="BackgroundImageFix"/>
<feColorMatrix in="SourceAlpha" type="matrix" values="0 0 0 0 0 0 0 0 0 0 0 0 0 0 0 0 0 0 127 0"/>
<feOffset dy="20"/>
<feGaussianBlur stdDeviation="20"/>
<feColorMatrix type="matrix" values="0 0 0 0 0.2775 0 0 0 0 0.225 0 0 0 0 0.6 0 0 0 0.4 0"/>
<feBlend mode="normal" in2="BackgroundImageFix" result="effect1_dropShadow"/>
<feBlend mode="normal" in="SourceGraphic" in2="effect1_dropShadow" result="shape"/>
</filter>
<filter id="filter1_d" x="256.663" y="384.707" width="190.007" height="133.293" filterUnits="userSpaceOnUse" color-interpolation-filters="sRGB">
<feFlood flood-opacity="0" result="BackgroundImageFix"/>
<feColorMatrix in="SourceAlpha" type="matrix" values="0 0 0 0 0 0 0 0 0 0 0 0 0 0 0 0 0 0 127 0"/>
<feOffset dy="20"/>
<feGaussianBlur stdDeviation="20"/>
<feColorMatrix type="matrix" values="0 0 0 0 0.2775 0 0 0 0 0.225 0 0 0 0 0.6 0 0 0 0.4 0"/>
<feBlend mode="normal" in2="BackgroundImageFix" result="effect1_dropShadow"/>
<feBlend mode="normal" in="SourceGraphic" in2="effect1_dropShadow" result="shape"/>
</filter>
<filter id="filter2_d" x="0" y="102.423" width="249.01" height="133.293" filterUnits="userSpaceOnUse" color-interpolation-filters="sRGB">
<feFlood flood-opacity="0" result="BackgroundImageFix"/>
<feColorMatrix in="SourceAlpha" type="matrix" values="0 0 0 0 0 0 0 0 0 0 0 0 0 0 0 0 0 0 127 0"/>
<feOffset dy="20"/>
<feGaussianBlur stdDeviation="20"/>
<feColorMatrix type="matrix" values="0 0 0 0 0.2775 0 0 0 0 0.225 0 0 0 0 0.6 0 0 0 0.4 0"/>
<feBlend mode="normal" in2="BackgroundImageFix" result="effect1_dropShadow"/>
<feBlend mode="normal" in="SourceGraphic" in2="effect1_dropShadow" result="shape"/>
</filter>
<filter id="filter3_d" x="6.41748" y="290.613" width="242.01" height="133.293" filterUnits="userSpaceOnUse" color-interpolation-filters="sRGB">
<feFlood flood-opacity="0" result="BackgroundImageFix"/>
<feColorMatrix in="SourceAlpha" type="matrix" values="0 0 0 0 0 0 0 0 0 0 0 0 0 0 0 0 0 0 127 0"/>
<feOffset dy="20"/>
<feGaussianBlur stdDeviation="20"/>
<feColorMatrix type="matrix" values="0 0 0 0 0.2775 0 0 0 0 0.225 0 0 0 0 0.6 0 0 0 0.4 0"/>
<feBlend mode="normal" in2="BackgroundImageFix" result="effect1_dropShadow"/>
<feBlend mode="normal" in="SourceGraphic" in2="effect1_dropShadow" result="shape"/>
</filter>
<filter id="filter4_d" x="466.99" y="102.423" width="235.009" height="133.293" filterUnits="userSpaceOnUse" color-interpolation-filters="sRGB">
<feFlood flood-opacity="0" result="BackgroundImageFix"/>
<feColorMatrix in="SourceAlpha" type="matrix" values="0 0 0 0 0 0 0 0 0 0 0 0 0 0 0 0 0 0 127 0"/>
<feOffset dy="20"/>
<feGaussianBlur stdDeviation="20"/>
<feColorMatrix type="matrix" values="0 0 0 0 0.2775 0 0 0 0 0.225 0 0 0 0 0.6 0 0 0 0.4 0"/>
<feBlend mode="normal" in2="BackgroundImageFix" result="effect1_dropShadow"/>
<feBlend mode="normal" in="SourceGraphic" in2="effect1_dropShadow" result="shape"/>
</filter>
<filter id="filter5_d" x="467.322" y="290.613" width="219.009" height="133.293" filterUnits="userSpaceOnUse" color-interpolation-filters="sRGB">
<feFlood flood-opacity="0" result="BackgroundImageFix"/>
<feColorMatrix in="SourceAlpha" type="matrix" values="0 0 0 0 0 0 0 0 0 0 0 0 0 0 0 0 0 0 127 0"/>
<feOffset dy="20"/>
<feGaussianBlur stdDeviation="20"/>
<feColorMatrix type="matrix" values="0 0 0 0 0.2775 0 0 0 0 0.225 0 0 0 0 0.6 0 0 0 0.4 0"/>
<feBlend mode="normal" in2="BackgroundImageFix" result="effect1_dropShadow"/>
<feBlend mode="normal" in="SourceGraphic" in2="effect1_dropShadow" result="shape"/>
</filter>
<linearGradient id="paint0_linear" x1="236.216" y1="141.722" x2="236.216" y2="227.88" gradientUnits="userSpaceOnUse">
<stop stop-color="#5B48D1"/>
<stop offset="1" stop-color="#6784FF"/>
</linearGradient>
<linearGradient id="paint1_linear" x1="237.133" y1="344.607" x2="237.133" y2="258.448" gradientUnits="userSpaceOnUse">
<stop stop-color="#5B48D1"/>
<stop offset="1" stop-color="#6784FF"/>
</linearGradient>
<linearGradient id="paint2_linear" x1="487.337" y1="141.722" x2="487.337" y2="227.88" gradientUnits="userSpaceOnUse">
<stop stop-color="#5B48D1"/>
<stop offset="1" stop-color="#6784FF"/>
</linearGradient>
<linearGradient id="paint3_linear" x1="487.337" y1="344.606" x2="487.337" y2="258.448" gradientUnits="userSpaceOnUse">
<stop stop-color="#5B48D1"/>
<stop offset="1" stop-color="#6784FF"/>
</linearGradient>
<linearGradient id="paint4_linear" x1="352.116" y1="66.8058" x2="352.117" y2="142.894" gradientUnits="userSpaceOnUse">
<stop stop-color="#5B48D1"/>
<stop offset="1" stop-color="#6784FF"/>
</linearGradient>
<linearGradient id="paint5_linear" x1="341.501" y1="104.918" x2="341.501" y2="398.081" gradientUnits="userSpaceOnUse">
<stop stop-color="#5B48D1"/>
<stop offset="1" stop-color="#6784FF"/>
</linearGradient>
<linearGradient id="paint6_linear" x1="352.116" y1="411.197" x2="352.117" y2="335.109" gradientUnits="userSpaceOnUse">
<stop stop-color="#5B48D1"/>
<stop offset="1" stop-color="#6784FF"/>
</linearGradient>
</defs>
</svg>
