<svg width="32" height="32" viewBox="0 0 32 32" fill="none" xmlns="http://www.w3.org/2000/svg">
<rect width="32" height="32" rx="16" fill="#F0F4F7"/>
<path d="M9.26316 10.5592H11.3158V7.21711C11.3158 6.3064 12.2794 5.70531 13.1172 6.09337L15.5359 7.21366V5.24454C15.5359 4.18561 16.7969 3.61229 17.6173 4.29824L23.5551 9.26323C23.8373 9.49923 24 9.8452 24 10.2095V22.7579C24 23.4439 23.4345 24 22.7368 24H9.26316C8.56554 24 8 23.4439 8 22.7578V11.8014C8 11.1154 8.56553 10.5592 9.26316 10.5592Z" fill="#A6B7FF" fill-opacity="0.52"/>
<path fill-rule="evenodd" clip-rule="evenodd" d="M17.0718 4.92911C16.7983 4.70046 16.378 4.89157 16.378 5.24454V7.6037L21.6818 10.0603C22.1243 10.2653 22.4067 10.703 22.4067 11.1841V19.3202C22.4067 20.2591 21.3881 20.8586 20.5466 20.4149L20.3397 20.3058V20.9468C20.3397 21.779 19.5238 22.3758 18.7133 22.1365L12.2157 20.2179C11.6815 20.0602 11.3158 19.5767 11.3158 19.0282V11.3873H9.26316C9.03062 11.3873 8.84211 11.5727 8.84211 11.8014V22.7578C8.84211 22.9865 9.03062 23.1719 9.26316 23.1719H22.7368C22.9694 23.1719 23.1579 22.9865 23.1579 22.7578V10.2095C23.1579 10.0881 23.1037 9.97276 23.0096 9.89409L17.0718 4.92911ZM11.3158 10.5592H9.26316C8.56553 10.5592 8 11.1154 8 11.8014V22.7578C8 23.4439 8.56554 24 9.26316 24H22.7368C23.4345 24 24 23.4439 24 22.7578V10.2095C24 9.8452 23.8373 9.49923 23.5551 9.26322L17.6173 4.29824C16.7969 3.61229 15.5359 4.18561 15.5359 5.24454V7.21366L13.1172 6.09337C12.2794 5.70531 11.3158 6.3064 11.3158 7.21711V10.5592ZM12.1579 11.3873V19.0282C12.1579 19.211 12.2798 19.3722 12.4579 19.4248L18.9555 21.3434C19.2256 21.4232 19.4976 21.2242 19.4976 20.9468V19.8617L16.2021 18.1241C15.7919 17.9078 15.5359 17.4871 15.5359 17.0294V11.3873H12.1579ZM15.5359 10.5592H12.1579V7.21711C12.1579 6.91354 12.4791 6.71317 12.7584 6.84253L15.5359 8.12902V10.5592ZM16.378 11.3873V17.0294C16.378 17.182 16.4633 17.3222 16.6001 17.3943L19.4976 18.9221V11.8014C19.4976 11.5727 19.3091 11.3873 19.0766 11.3873H16.378ZM20.3397 19.3661V11.8014C20.3397 11.1154 19.7742 10.5592 19.0766 10.5592H16.378V8.51907L21.323 10.8095C21.4705 10.8778 21.5646 11.0237 21.5646 11.1841V19.3202C21.5646 19.6331 21.2251 19.833 20.9446 19.6851L20.3397 19.3661Z" fill="#7367FF"/>
</svg>
