<svg width="22" height="24" viewBox="0 0 22 24" fill="none" xmlns="http://www.w3.org/2000/svg">
<path d="M8.66296 10.0679C7.97896 10.0679 7.43896 10.6679 7.43896 11.3999C7.43896 12.1319 7.99096 12.7319 8.66296 12.7319C9.34696 12.7319 9.88696 12.1319 9.88696 11.3999C9.89896 10.6679 9.34696 10.0679 8.66296 10.0679ZM13.043 10.0679C12.359 10.0679 11.819 10.6679 11.819 11.3999C11.819 12.1319 12.371 12.7319 13.043 12.7319C13.727 12.7319 14.267 12.1319 14.267 11.3999C14.267 10.6679 13.727 10.0679 13.043 10.0679Z" />
<path d="M18.875 0H2.79496C1.43896 0 0.334961 1.104 0.334961 2.472V18.696C0.334961 20.064 1.43896 21.168 2.79496 21.168H16.403L15.767 18.948L17.303 20.376L18.755 21.72L21.335 24V2.472C21.335 1.104 20.231 0 18.875 0ZM14.243 15.672C14.243 15.672 13.811 15.156 13.451 14.7C15.023 14.256 15.623 13.272 15.623 13.272C15.131 13.596 14.663 13.824 14.243 13.98C13.643 14.232 13.067 14.4 12.503 14.496C11.4752 14.6852 10.4212 14.6812 9.39496 14.484C8.79247 14.3661 8.20201 14.1934 7.63096 13.968C7.32995 13.8522 7.03726 13.7159 6.75496 13.56C6.71896 13.536 6.68296 13.524 6.64696 13.5C6.62296 13.488 6.61096 13.476 6.59896 13.464C6.38296 13.344 6.26296 13.26 6.26296 13.26C6.26296 13.26 6.83896 14.22 8.36296 14.676C8.00296 15.132 7.55896 15.672 7.55896 15.672C4.90696 15.588 3.89896 13.848 3.89896 13.848C3.89896 9.984 5.62696 6.852 5.62696 6.852C7.35496 5.556 8.99896 5.592 8.99896 5.592L9.11896 5.736C6.95896 6.36 5.96296 7.308 5.96296 7.308C5.96296 7.308 6.22696 7.164 6.67096 6.96C7.95496 6.396 8.97496 6.24 9.39496 6.204C9.46696 6.192 9.52696 6.18 9.59896 6.18C11.6799 5.89835 13.7962 6.29384 15.635 7.308C15.635 7.308 14.687 6.408 12.647 5.784L12.815 5.592C12.815 5.592 14.459 5.556 16.187 6.852C16.187 6.852 17.915 9.984 17.915 13.848C17.915 13.848 16.895 15.588 14.243 15.672Z" />
</svg>
