<svg  viewBox="0 0 56 44" fill="none" xmlns="http://www.w3.org/2000/svg">
<path d="M11.9978 16.3217C11.9978 16.8602 12.4396 17.2967 12.9848 17.2967H43.0155C43.5607 17.2967 44.0025 16.8602 44.0025 16.3217C44.0025 15.7831 43.5607 15.3466 43.0155 15.3466H12.9848C12.4396 15.3466 11.9978 15.7831 11.9978 16.3217Z" fill="#82848E"/>
<path d="M17.4128 11.4935C17.4128 12.032 17.8547 12.4686 18.3998 12.4686H37.6002C38.1453 12.4686 38.5872 12.032 38.5872 11.4935C38.5872 10.9549 38.1453 10.5184 37.6002 10.5184H18.3998C17.8547 10.5184 17.4128 10.955 17.4128 11.4935Z" fill="#82848E"/>
<path d="M33.5756 7.4132C34.1207 7.4132 34.5626 6.97668 34.5626 6.43811C34.5626 5.89953 34.1207 5.46301 33.5756 5.46301H22.4245C21.8793 5.46301 21.4375 5.89953 21.4375 6.43811C21.4375 6.97668 21.8793 7.4132 22.4245 7.4132H33.5756Z" fill="#82848E"/>
<path d="M55.013 20.8097H42.4617C39.9942 20.8097 37.8378 22.3543 37.0954 24.6535C35.8285 28.5779 32.1733 31.2146 27.9999 31.2146C23.8266 31.2146 20.1715 28.5779 18.9045 24.6535C18.1622 22.3543 16.0057 20.8097 13.5382 20.8097H2.76315L13.8348 3.22182C14.3361 2.42549 15.202 1.95019 16.1511 1.95019H39.849C40.7982 1.95019 41.6641 2.4256 42.1653 3.22182L50.053 15.7518C50.3409 16.2092 50.9493 16.3495 51.4124 16.0649C51.8753 15.7805 52.0173 15.1792 51.7294 14.7219L43.8416 2.1919C42.9777 0.819404 41.4851 0 39.8491 0H16.1511C14.5151 0 13.0225 0.819404 12.1586 2.1919L0.148927 21.2698C0.149146 21.2699 0.149475 21.2701 0.149694 21.2704C0.0553814 21.4198 0 21.5957 0 21.7848V38.3104C0 41.4476 2.58351 44 5.759 44H50.241C53.4165 44 56 41.4476 56 38.3104V21.7848C56 21.2462 55.5582 20.8097 55.013 20.8097ZM54.026 38.3104C54.026 40.3723 52.3282 42.0498 50.241 42.0498H5.759C3.67195 42.0498 1.97399 40.3724 1.97399 38.3104V22.7599H13.5384C15.1431 22.7599 16.5439 23.759 17.024 25.2459C18.5531 29.9824 22.9641 33.1647 28.0001 33.1647C33.0361 33.1647 37.4471 29.9824 38.9761 25.246C39.4562 23.7589 40.857 22.7599 42.4617 22.7599H54.026V38.3104Z" fill="#82848E"/>
</svg>
