<svg width="25" height="24" viewBox="0 0 25 24" fill="none" xmlns="http://www.w3.org/2000/svg">
<path fill-rule="evenodd" clip-rule="evenodd" d="M24.835 12C24.835 18.627 19.462 24 12.835 24C6.20796 24 0.834961 18.627 0.834961 12C0.834961 5.373 6.20796 0 12.835 0C19.462 0 24.835 5.373 24.835 12ZM20.523 11.058C20.717 11.335 20.827 11.662 20.839 12C20.8442 12.3307 20.7557 12.6561 20.5837 12.9385C20.4116 13.221 20.1632 13.4489 19.867 13.596C19.881 13.772 19.881 13.948 19.867 14.124C19.867 16.812 16.735 18.996 12.871 18.996C9.00696 18.996 5.87496 16.812 5.87496 14.124C5.86145 13.9483 5.86145 13.7717 5.87496 13.596C5.64613 13.4889 5.44321 13.3335 5.28015 13.1405C5.11709 12.9475 4.99775 12.7215 4.93034 12.478C4.86292 12.2345 4.84904 11.9793 4.88963 11.7299C4.93022 11.4805 5.02434 11.2429 5.1655 11.0333C5.30666 10.8238 5.49152 10.6473 5.70737 10.516C5.92323 10.3847 6.16496 10.3016 6.41594 10.2726C6.66693 10.2436 6.92122 10.2693 7.16135 10.3479C7.40147 10.4265 7.62172 10.5562 7.80696 10.728C9.18969 9.79023 10.8164 9.27718 12.487 9.252L13.375 5.088C13.3849 5.03979 13.4044 4.99405 13.4322 4.95341C13.4599 4.91277 13.4955 4.87805 13.5368 4.85127C13.5781 4.82448 13.6243 4.80615 13.6727 4.79735C13.7212 4.78855 13.7709 4.78945 13.819 4.8L16.759 5.388C16.9025 5.14132 17.1293 4.9539 17.3986 4.85937C17.6679 4.76484 17.9621 4.7694 18.2284 4.87222C18.4946 4.97505 18.7155 5.1694 18.8514 5.42041C18.9873 5.67141 19.0292 5.96262 18.9697 6.24177C18.9102 6.52092 18.7532 6.76972 18.5268 6.94352C18.3004 7.11732 18.0195 7.20473 17.7344 7.19006C17.4494 7.1754 17.1789 7.05962 16.9715 6.8635C16.7642 6.66739 16.6335 6.40378 16.603 6.12L14.035 5.58L13.255 9.324C14.9052 9.3594 16.5099 9.87206 17.875 10.8C18.0572 10.6248 18.2752 10.4911 18.514 10.4082C18.7528 10.3252 19.0067 10.295 19.2583 10.3195C19.51 10.344 19.7533 10.4227 19.9716 10.5502C20.1899 10.6777 20.378 10.8509 20.523 11.058ZM9.04096 12.533C8.95337 12.6641 8.89245 12.8111 8.86168 12.9657C8.83091 13.1203 8.83089 13.2794 8.86163 13.4341C8.9237 13.7463 9.10728 14.0211 9.37196 14.198C9.63665 14.3749 9.96076 14.4394 10.273 14.3773C10.4276 14.3466 10.5747 14.2857 10.7057 14.1981C10.8368 14.1106 10.9494 13.9981 11.037 13.867C11.2139 13.6023 11.2784 13.2782 11.2163 12.9659C11.1542 12.6537 10.9706 12.3789 10.706 12.202C10.4413 12.0251 10.1172 11.9606 9.80491 12.0227C9.49266 12.0847 9.21786 12.2683 9.04096 12.533ZM12.847 17.424C13.912 17.468 14.96 17.19 15.811 16.548C15.8746 16.4859 15.911 16.4011 15.9121 16.3122C15.9133 16.2234 15.879 16.1377 15.817 16.074C15.7862 16.0425 15.7496 16.0173 15.7091 16C15.6687 15.9826 15.6252 15.9734 15.5812 15.9728C15.4923 15.9717 15.4066 16.0059 15.343 16.068C14.6147 16.5904 13.7299 16.8487 12.835 16.8C11.9411 16.8399 11.0604 16.5732 10.339 16.044C10.2768 15.993 10.1979 15.9669 10.1175 15.9708C10.0372 15.9748 9.96118 16.0085 9.90431 16.0653C9.84743 16.1222 9.81375 16.1982 9.8098 16.2786C9.80586 16.3589 9.83193 16.4378 9.88296 16.5C10.7343 17.1416 11.7818 17.4681 12.847 17.424ZM14.928 14.246C15.126 14.378 15.346 14.496 15.583 14.496C15.7457 14.4979 15.9072 14.4666 16.0574 14.4041C16.2077 14.3416 16.3437 14.2492 16.4571 14.1324C16.5705 14.0156 16.6589 13.877 16.717 13.725C16.7751 13.5729 16.8016 13.4106 16.795 13.248C16.7949 13.0407 16.7411 12.837 16.6389 12.6567C16.5367 12.4763 16.3895 12.3256 16.2117 12.219C16.0339 12.1125 15.8315 12.0539 15.6243 12.0488C15.4171 12.0437 15.2121 12.0924 15.0293 12.1902C14.8465 12.2879 14.6921 12.4313 14.5812 12.6064C14.4703 12.7815 14.4066 12.9824 14.3964 13.1894C14.3862 13.3964 14.4298 13.6026 14.523 13.7877C14.6161 13.9729 14.7557 14.1308 14.928 14.246Z" fill="#CED0DD"/>
</svg>
