<svg width="48" height="48" viewBox="0 0 48 48" fill="none" xmlns="http://www.w3.org/2000/svg">
<path d="M46.5936 33.1569C43.7401 33.1569 41.0602 32.056 39.0468 30.0569C37.0341 28.0588 35.9259 25.3976 35.9259 22.5635C35.9259 21.7867 35.296 21.1572 34.5197 21.1572C33.7429 21.1572 33.1134 21.7867 33.1134 22.5635C33.1134 25.3976 32.0049 28.0588 29.9922 30.0569C27.9788 32.056 25.2988 33.1569 22.4453 33.1569C21.6686 33.1569 21.0391 33.7864 21.0391 34.5631C21.0391 35.3398 21.6686 35.9694 22.4453 35.9694C28.3274 35.9694 33.1134 40.7356 33.1134 46.5939C33.1134 47.3706 33.7429 48.0001 34.5197 48.0001C35.296 48.0001 35.9259 47.3706 35.9259 46.5939C35.9259 40.7356 40.7115 35.9694 46.5936 35.9694C47.3704 35.9694 47.9999 35.3398 47.9999 34.5631C47.9999 33.7864 47.3704 33.1569 46.5936 33.1569ZM34.5197 40.6213C33.2137 38.0092 31.0791 35.8774 28.4614 34.5708C29.745 33.9343 30.9301 33.0891 31.9738 32.0527C33.0222 31.012 33.8766 29.8291 34.5193 28.5474C35.1624 29.8291 36.0167 31.012 37.0648 32.0527C38.1085 33.0891 39.2939 33.9343 40.5771 34.5708C37.9598 35.8774 35.8252 38.0092 34.5197 40.6213Z" fill="#9AA8FF"/>
<path d="M19.2407 22.1611C15.0992 22.1611 11.7297 18.8165 11.7297 14.7051C11.7297 13.9287 11.1002 13.2988 10.3235 13.2988C9.54675 13.2988 8.91724 13.9287 8.91724 14.7051C8.91724 18.8165 5.54773 22.1611 1.40625 22.1611C0.629517 22.1611 0 22.791 0 23.5674C0 24.3441 0.629517 24.9736 1.40625 24.9736C5.54773 24.9736 8.91724 28.3289 8.91724 32.4528C8.91724 33.2291 9.54675 33.859 10.3235 33.859C11.1002 33.859 11.7297 33.2291 11.7297 32.4528C11.7297 28.3289 15.0992 24.9736 19.2407 24.9736C20.0175 24.9736 20.647 24.3441 20.647 23.5674C20.647 22.791 20.0175 22.1611 19.2407 22.1611ZM10.3235 27.2716C9.42664 25.7434 8.14563 24.465 6.61377 23.5692C8.14563 22.6753 9.42664 21.3998 10.3235 19.8749C11.2203 21.3998 12.5013 22.6753 14.0332 23.5692C12.5013 24.465 11.2203 25.743 10.3235 27.2716Z" fill="#9AA8FF"/>
<path d="M21.5283 9.71777C24.5741 9.71777 27.0522 12.1769 27.0522 15.1992C27.0522 15.9756 27.6818 16.6055 28.4585 16.6055C29.2352 16.6055 29.8647 15.9756 29.8647 15.1992C29.8647 12.167 32.3429 9.7002 35.3887 9.7002C36.1654 9.7002 36.7949 9.07031 36.7949 8.29395C36.7949 7.51721 36.1654 6.8877 35.3887 6.8877C32.3429 6.8877 29.8647 4.42859 29.8647 1.40625C29.8647 0.629517 29.2352 0 28.4585 0C27.6818 0 27.0522 0.629517 27.0522 1.40625C27.0522 4.43848 24.5741 6.90527 21.5283 6.90527C20.7516 6.90527 20.1221 7.53479 20.1221 8.31152C20.1221 9.08826 20.7516 9.71777 21.5283 9.71777ZM28.4618 6.01648C29.0686 6.91589 29.8475 7.69116 30.7513 8.29541C29.8442 8.90295 29.0631 9.68335 28.4552 10.589C27.8484 9.68958 27.0695 8.91431 26.1656 8.31006C27.0728 7.70251 27.8542 6.92212 28.4618 6.01648Z" fill="#9AA8FF"/>
</svg>
