<svg width="229" height="378" viewBox="0 0 229 378" fill="none" xmlns="http://www.w3.org/2000/svg">
<g opacity="0.7">
<path d="M5.89359 5.39154L7.6835 5.04229L10.1719 4.21283L9.75717 2.88131L7.22511 3.66712L5.588 4.43111L5.80628 2.6412V0H4.36562V2.6412L4.5839 4.43111L2.9468 3.66712L0.414734 2.88131L0 4.21283L2.48841 5.04229L4.27831 5.39154L3.03411 6.72306L1.50614 8.86222L2.6412 9.69168L4.21283 7.57436L5.08595 5.9809L5.95908 7.57436L7.5307 9.69168L8.66576 8.86222L7.13779 6.72306L5.89359 5.39154Z" fill="#A6B7FF"/>
<path d="M5.89359 24.775L7.6835 24.4257L10.1719 23.5962L9.75717 22.2647L7.22511 23.0505L5.588 23.8145L5.80628 22.0246V19.3834H4.36562V22.0246L4.5839 23.8145L2.9468 23.0505L0.414734 22.2647L0 23.5962L2.48841 24.4257L4.27831 24.775L3.03411 26.1065L1.50614 28.2456L2.6412 29.0751L4.21283 26.9578L5.08595 25.3643L5.95908 26.9578L7.5307 29.0751L8.66576 28.2456L7.13779 26.1065L5.89359 24.775Z" fill="#A6B7FF"/>
<path d="M5.89359 44.1583L7.6835 43.809L10.1719 42.9796L9.75717 41.648L7.22511 42.4338L5.588 43.1978L5.80628 41.4079V38.7667H4.36562V41.4079L4.5839 43.1978L2.9468 42.4338L0.414734 41.648L0 42.9796L2.48841 43.809L4.27831 44.1583L3.03411 45.4898L1.50614 47.6289L2.6412 48.4584L4.21283 46.3411L5.08595 44.7476L5.95908 46.3411L7.5307 48.4584L8.66576 47.6289L7.13779 45.4898L5.89359 44.1583Z" fill="#A6B7FF"/>
<path d="M5.89359 63.5417L7.6835 63.1924L10.1719 62.363L9.75717 61.0315L7.22511 61.8173L5.588 62.5813L5.80628 60.7913V58.1501H4.36562V60.7913L4.5839 62.5813L2.9468 61.8173L0.414734 61.0315L0 62.363L2.48841 63.1924L4.27831 63.5417L3.03411 64.8732L1.50614 67.0124L2.6412 67.8418L4.21283 65.7245L5.08595 64.1311L5.95908 65.7245L7.5307 67.8418L8.66576 67.0124L7.13779 64.8732L5.89359 63.5417Z" fill="#A6B7FF"/>
<path d="M5.89359 82.925L7.6835 82.5757L10.1719 81.7463L9.75717 80.4148L7.22511 81.2006L5.588 81.9646L5.80628 80.1746V77.5334H4.36562V80.1746L4.5839 81.9646L2.9468 81.2006L0.414734 80.4148L0 81.7463L2.48841 82.5757L4.27831 82.925L3.03411 84.2565L1.50614 86.3957L2.6412 87.2251L4.21283 85.1078L5.08595 83.5144L5.95908 85.1078L7.5307 87.2251L8.66576 86.3957L7.13779 84.2565L5.89359 82.925Z" fill="#A6B7FF"/>
<path d="M5.89359 102.308L7.6835 101.959L10.1719 101.13L9.75717 99.7982L7.22511 100.584L5.588 101.348L5.80628 99.5581V96.9169H4.36562V99.5581L4.5839 101.348L2.9468 100.584L0.414734 99.7982L0 101.13L2.48841 101.959L4.27831 102.308L3.03411 103.64L1.50614 105.779L2.6412 106.609L4.21283 104.491L5.08595 102.898L5.95908 104.491L7.5307 106.609L8.66576 105.779L7.13779 103.64L5.89359 102.308Z" fill="#A6B7FF"/>
<path d="M5.89359 121.692L7.6835 121.343L10.1719 120.513L9.75717 119.182L7.22511 119.967L5.588 120.731L5.80628 118.941V116.3H4.36562V118.941L4.5839 120.731L2.9468 119.967L0.414734 119.182L0 120.513L2.48841 121.343L4.27831 121.692L3.03411 123.023L1.50614 125.163L2.6412 125.992L4.21283 123.875L5.08595 122.281L5.95908 123.875L7.5307 125.992L8.66576 125.163L7.13779 123.023L5.89359 121.692Z" fill="#A6B7FF"/>
<path d="M5.89359 141.075L7.6835 140.726L10.1719 139.896L9.75717 138.565L7.22511 139.351L5.588 140.115L5.80628 138.325V135.684H4.36562V138.325L4.5839 140.115L2.9468 139.351L0.414734 138.565L0 139.896L2.48841 140.726L4.27831 141.075L3.03411 142.407L1.50614 144.546L2.6412 145.375L4.21283 143.258L5.08595 141.664L5.95908 143.258L7.5307 145.375L8.66576 144.546L7.13779 142.407L5.89359 141.075Z" fill="#A6B7FF"/>
<path d="M5.89359 160.458L7.6835 160.109L10.1719 159.28L9.75717 157.948L7.22511 158.734L5.588 159.498L5.80628 157.708V155.067H4.36562V157.708L4.5839 159.498L2.9468 158.734L0.414734 157.948L0 159.28L2.48841 160.109L4.27831 160.458L3.03411 161.79L1.50614 163.929L2.6412 164.759L4.21283 162.641L5.08595 161.048L5.95908 162.641L7.5307 164.759L8.66576 163.929L7.13779 161.79L5.89359 160.458Z" fill="#A6B7FF"/>
<path d="M5.89359 179.842L7.6835 179.493L10.1719 178.663L9.75717 177.332L7.22511 178.118L5.588 178.882L5.80628 177.092V174.45H4.36562V177.092L4.5839 178.882L2.9468 178.118L0.414734 177.332L0 178.663L2.48841 179.493L4.27831 179.842L3.03411 181.173L1.50614 183.313L2.6412 184.142L4.21283 182.025L5.08595 180.431L5.95908 182.025L7.5307 184.142L8.66576 183.313L7.13779 181.173L5.89359 179.842Z" fill="#A6B7FF"/>
<path d="M25.7576 5.39154L27.5475 5.04229L30.0359 4.21283L29.6212 2.88131L27.0891 3.66712L25.452 4.43111L25.6703 2.6412V0H24.2296V2.6412L24.4479 4.43111L22.8108 3.66712L20.2787 2.88131L19.864 4.21283L22.3524 5.04229L24.1423 5.39154L22.8981 6.72306L21.3702 8.86222L22.5052 9.69168L24.0768 7.57436L24.95 5.9809L25.8231 7.57436L27.3947 9.69168L28.5298 8.86222L27.0018 6.72306L25.7576 5.39154Z" fill="#A6B7FF"/>
<path d="M25.7576 24.775L27.5475 24.4257L30.0359 23.5962L29.6212 22.2647L27.0891 23.0505L25.452 23.8145L25.6703 22.0246V19.3834H24.2296V22.0246L24.4479 23.8145L22.8108 23.0505L20.2787 22.2647L19.864 23.5962L22.3524 24.4257L24.1423 24.775L22.8981 26.1065L21.3702 28.2456L22.5052 29.0751L24.0768 26.9578L24.95 25.3643L25.8231 26.9578L27.3947 29.0751L28.5298 28.2456L27.0018 26.1065L25.7576 24.775Z" fill="#A6B7FF"/>
<path d="M25.7576 44.1583L27.5475 43.809L30.0359 42.9796L29.6212 41.648L27.0891 42.4338L25.452 43.1978L25.6703 41.4079V38.7667H24.2296V41.4079L24.4479 43.1978L22.8108 42.4338L20.2787 41.648L19.864 42.9796L22.3524 43.809L24.1423 44.1583L22.8981 45.4898L21.3702 47.6289L22.5052 48.4584L24.0768 46.3411L24.95 44.7476L25.8231 46.3411L27.3947 48.4584L28.5298 47.6289L27.0018 45.4898L25.7576 44.1583Z" fill="#A6B7FF"/>
<path d="M25.7576 63.5417L27.5475 63.1924L30.0359 62.363L29.6212 61.0315L27.0891 61.8173L25.452 62.5813L25.6703 60.7913V58.1501H24.2296V60.7913L24.4479 62.5813L22.8108 61.8173L20.2787 61.0315L19.864 62.363L22.3524 63.1924L24.1423 63.5417L22.8981 64.8732L21.3702 67.0124L22.5052 67.8418L24.0768 65.7245L24.95 64.1311L25.8231 65.7245L27.3947 67.8418L28.5298 67.0124L27.0018 64.8732L25.7576 63.5417Z" fill="#A6B7FF"/>
<path d="M25.7576 82.925L27.5475 82.5757L30.0359 81.7463L29.6212 80.4148L27.0891 81.2006L25.452 81.9646L25.6703 80.1746V77.5334H24.2296V80.1746L24.4479 81.9646L22.8108 81.2006L20.2787 80.4148L19.864 81.7463L22.3524 82.5757L24.1423 82.925L22.8981 84.2565L21.3702 86.3957L22.5052 87.2251L24.0768 85.1078L24.95 83.5144L25.8231 85.1078L27.3947 87.2251L28.5298 86.3957L27.0018 84.2565L25.7576 82.925Z" fill="#A6B7FF"/>
<path d="M25.7576 102.308L27.5475 101.959L30.0359 101.13L29.6212 99.7982L27.0891 100.584L25.452 101.348L25.6703 99.5581V96.9169H24.2296V99.5581L24.4479 101.348L22.8108 100.584L20.2787 99.7982L19.864 101.13L22.3524 101.959L24.1423 102.308L22.8981 103.64L21.3702 105.779L22.5052 106.609L24.0768 104.491L24.95 102.898L25.8231 104.491L27.3947 106.609L28.5298 105.779L27.0018 103.64L25.7576 102.308Z" fill="#A6B7FF"/>
<path d="M25.7576 121.692L27.5475 121.343L30.0359 120.513L29.6212 119.182L27.0891 119.967L25.452 120.731L25.6703 118.941V116.3H24.2296V118.941L24.4479 120.731L22.8108 119.967L20.2787 119.182L19.864 120.513L22.3524 121.343L24.1423 121.692L22.8981 123.023L21.3702 125.163L22.5052 125.992L24.0768 123.875L24.95 122.281L25.8231 123.875L27.3947 125.992L28.5298 125.163L27.0018 123.023L25.7576 121.692Z" fill="#A6B7FF"/>
<path d="M25.7576 141.075L27.5475 140.726L30.0359 139.896L29.6212 138.565L27.0891 139.351L25.452 140.115L25.6703 138.325V135.684H24.2296V138.325L24.4479 140.115L22.8108 139.351L20.2787 138.565L19.864 139.896L22.3524 140.726L24.1423 141.075L22.8981 142.407L21.3702 144.546L22.5052 145.375L24.0768 143.258L24.95 141.664L25.8231 143.258L27.3947 145.375L28.5298 144.546L27.0018 142.407L25.7576 141.075Z" fill="#A6B7FF"/>
<path d="M25.7576 160.458L27.5475 160.109L30.0359 159.28L29.6212 157.948L27.0891 158.734L25.452 159.498L25.6703 157.708V155.067H24.2296V157.708L24.4479 159.498L22.8108 158.734L20.2787 157.948L19.864 159.28L22.3524 160.109L24.1423 160.458L22.8981 161.79L21.3702 163.929L22.5052 164.759L24.0768 162.641L24.95 161.048L25.8231 162.641L27.3947 164.759L28.5298 163.929L27.0018 161.79L25.7576 160.458Z" fill="#A6B7FF"/>
<path d="M25.7576 179.842L27.5475 179.493L30.0359 178.663L29.6212 177.332L27.0891 178.118L25.452 178.882L25.6703 177.092V174.45H24.2296V177.092L24.4479 178.882L22.8108 178.118L20.2787 177.332L19.864 178.663L22.3524 179.493L24.1423 179.842L22.8981 181.173L21.3702 183.313L22.5052 184.142L24.0768 182.025L24.95 180.431L25.8231 182.025L27.3947 184.142L28.5298 183.313L27.0018 181.173L25.7576 179.842Z" fill="#A6B7FF"/>
<path d="M45.6209 5.39154L47.4108 5.04229L49.8992 4.21283L49.4845 2.88131L46.9524 3.66712L45.3153 4.43111L45.5336 2.6412V0H44.0929V2.6412L44.3112 4.43111L42.6741 3.66712L40.142 2.88131L39.7273 4.21283L42.2157 5.04229L44.0056 5.39154L42.7614 6.72306L41.2334 8.86222L42.3685 9.69168L43.9401 7.57436L44.8132 5.9809L45.6864 7.57436L47.258 9.69168L48.3931 8.86222L46.8651 6.72306L45.6209 5.39154Z" fill="#A6B7FF"/>
<path d="M45.6209 24.775L47.4108 24.4257L49.8992 23.5962L49.4845 22.2647L46.9524 23.0505L45.3153 23.8145L45.5336 22.0246V19.3834H44.0929V22.0246L44.3112 23.8145L42.6741 23.0505L40.142 22.2647L39.7273 23.5962L42.2157 24.4257L44.0056 24.775L42.7614 26.1065L41.2334 28.2456L42.3685 29.0751L43.9401 26.9578L44.8132 25.3643L45.6864 26.9578L47.258 29.0751L48.3931 28.2456L46.8651 26.1065L45.6209 24.775Z" fill="#A6B7FF"/>
<path d="M45.6209 44.1583L47.4108 43.809L49.8992 42.9796L49.4845 41.648L46.9524 42.4338L45.3153 43.1978L45.5336 41.4079V38.7667H44.0929V41.4079L44.3112 43.1978L42.6741 42.4338L40.142 41.648L39.7273 42.9796L42.2157 43.809L44.0056 44.1583L42.7614 45.4898L41.2334 47.6289L42.3685 48.4584L43.9401 46.3411L44.8132 44.7476L45.6864 46.3411L47.258 48.4584L48.3931 47.6289L46.8651 45.4898L45.6209 44.1583Z" fill="#A6B7FF"/>
<path d="M45.6209 63.5417L47.4108 63.1924L49.8992 62.363L49.4845 61.0315L46.9524 61.8173L45.3153 62.5813L45.5336 60.7913V58.1501H44.0929V60.7913L44.3112 62.5813L42.6741 61.8173L40.142 61.0315L39.7273 62.363L42.2157 63.1924L44.0056 63.5417L42.7614 64.8732L41.2334 67.0124L42.3685 67.8418L43.9401 65.7245L44.8132 64.1311L45.6864 65.7245L47.258 67.8418L48.3931 67.0124L46.8651 64.8732L45.6209 63.5417Z" fill="#A6B7FF"/>
<path d="M45.6209 82.925L47.4108 82.5757L49.8992 81.7463L49.4845 80.4148L46.9524 81.2006L45.3153 81.9646L45.5336 80.1746V77.5334H44.0929V80.1746L44.3112 81.9646L42.6741 81.2006L40.142 80.4148L39.7273 81.7463L42.2157 82.5757L44.0056 82.925L42.7614 84.2565L41.2334 86.3957L42.3685 87.2251L43.9401 85.1078L44.8132 83.5144L45.6864 85.1078L47.258 87.2251L48.3931 86.3957L46.8651 84.2565L45.6209 82.925Z" fill="#A6B7FF"/>
<path d="M45.6209 102.308L47.4108 101.959L49.8992 101.13L49.4845 99.7982L46.9524 100.584L45.3153 101.348L45.5336 99.5581V96.9169H44.0929V99.5581L44.3112 101.348L42.6741 100.584L40.142 99.7982L39.7273 101.13L42.2157 101.959L44.0056 102.308L42.7614 103.64L41.2334 105.779L42.3685 106.609L43.9401 104.491L44.8132 102.898L45.6864 104.491L47.258 106.609L48.3931 105.779L46.8651 103.64L45.6209 102.308Z" fill="#A6B7FF"/>
<path d="M45.6209 121.692L47.4108 121.343L49.8992 120.513L49.4845 119.182L46.9524 119.967L45.3153 120.731L45.5336 118.941V116.3H44.0929V118.941L44.3112 120.731L42.6741 119.967L40.142 119.182L39.7273 120.513L42.2157 121.343L44.0056 121.692L42.7614 123.023L41.2334 125.163L42.3685 125.992L43.9401 123.875L44.8132 122.281L45.6864 123.875L47.258 125.992L48.3931 125.163L46.8651 123.023L45.6209 121.692Z" fill="#A6B7FF"/>
<path d="M45.6209 141.075L47.4108 140.726L49.8992 139.896L49.4845 138.565L46.9524 139.351L45.3153 140.115L45.5336 138.325V135.684H44.0929V138.325L44.3112 140.115L42.6741 139.351L40.142 138.565L39.7273 139.896L42.2157 140.726L44.0056 141.075L42.7614 142.407L41.2334 144.546L42.3685 145.375L43.9401 143.258L44.8132 141.664L45.6864 143.258L47.258 145.375L48.3931 144.546L46.8651 142.407L45.6209 141.075Z" fill="#A6B7FF"/>
<path d="M45.6209 160.458L47.4108 160.109L49.8992 159.28L49.4845 157.948L46.9524 158.734L45.3153 159.498L45.5336 157.708V155.067H44.0929V157.708L44.3112 159.498L42.6741 158.734L40.142 157.948L39.7273 159.28L42.2157 160.109L44.0056 160.458L42.7614 161.79L41.2334 163.929L42.3685 164.759L43.9401 162.641L44.8132 161.048L45.6864 162.641L47.258 164.759L48.3931 163.929L46.8651 161.79L45.6209 160.458Z" fill="#A6B7FF"/>
<path d="M45.6209 179.842L47.4108 179.493L49.8992 178.663L49.4845 177.332L46.9524 178.118L45.3153 178.882L45.5336 177.092V174.45H44.0929V177.092L44.3112 178.882L42.6741 178.118L40.142 177.332L39.7273 178.663L42.2157 179.493L44.0056 179.842L42.7614 181.173L41.2334 183.313L42.3685 184.142L43.9401 182.025L44.8132 180.431L45.6864 182.025L47.258 184.142L48.3931 183.313L46.8651 181.173L45.6209 179.842Z" fill="#A6B7FF"/>
<path d="M5.89359 199.225L7.6835 198.876L10.1719 198.047L9.75717 196.715L7.22511 197.501L5.588 198.265L5.80628 196.475V193.834H4.36562V196.475L4.5839 198.265L2.9468 197.501L0.414734 196.715L0 198.047L2.48841 198.876L4.27831 199.225L3.03411 200.557L1.50614 202.696L2.6412 203.525L4.21283 201.408L5.08595 199.815L5.95908 201.408L7.5307 203.525L8.66576 202.696L7.13779 200.557L5.89359 199.225Z" fill="#A6B7FF"/>
<path d="M5.89359 218.609L7.6835 218.259L10.1719 217.43L9.75717 216.098L7.22511 216.884L5.588 217.648L5.80628 215.858V213.217H4.36562V215.858L4.5839 217.648L2.9468 216.884L0.414734 216.098L0 217.43L2.48841 218.259L4.27831 218.609L3.03411 219.94L1.50614 222.079L2.6412 222.909L4.21283 220.791L5.08595 219.198L5.95908 220.791L7.5307 222.909L8.66576 222.079L7.13779 219.94L5.89359 218.609Z" fill="#A6B7FF"/>
<path d="M5.89359 237.992L7.6835 237.643L10.1719 236.813L9.75717 235.482L7.22511 236.268L5.588 237.032L5.80628 235.242V232.6H4.36562V235.242L4.5839 237.032L2.9468 236.268L0.414734 235.482L0 236.813L2.48841 237.643L4.27831 237.992L3.03411 239.324L1.50614 241.463L2.6412 242.292L4.21283 240.175L5.08595 238.581L5.95908 240.175L7.5307 242.292L8.66576 241.463L7.13779 239.324L5.89359 237.992Z" fill="#A6B7FF"/>
<path d="M5.89359 257.375L7.6835 257.026L10.1719 256.197L9.75717 254.865L7.22511 255.651L5.588 256.415L5.80628 254.625V251.984H4.36562V254.625L4.5839 256.415L2.9468 255.651L0.414734 254.865L0 256.197L2.48841 257.026L4.27831 257.375L3.03411 258.707L1.50614 260.846L2.6412 261.676L4.21283 259.558L5.08595 257.965L5.95908 259.558L7.5307 261.676L8.66576 260.846L7.13779 258.707L5.89359 257.375Z" fill="#A6B7FF"/>
<path d="M5.89359 276.759L7.6835 276.409L10.1719 275.58L9.75717 274.248L7.22511 275.034L5.588 275.798L5.80628 274.008V271.367H4.36562V274.008L4.5839 275.798L2.9468 275.034L0.414734 274.248L0 275.58L2.48841 276.409L4.27831 276.759L3.03411 278.09L1.50614 280.229L2.6412 281.059L4.21283 278.942L5.08595 277.348L5.95908 278.942L7.5307 281.059L8.66576 280.229L7.13779 278.09L5.89359 276.759Z" fill="#A6B7FF"/>
<path d="M5.89359 296.142L7.6835 295.793L10.1719 294.963L9.75717 293.632L7.22511 294.418L5.588 295.182L5.80628 293.392V290.75H4.36562V293.392L4.5839 295.182L2.9468 294.418L0.414734 293.632L0 294.963L2.48841 295.793L4.27831 296.142L3.03411 297.474L1.50614 299.613L2.6412 300.442L4.21283 298.325L5.08595 296.731L5.95908 298.325L7.5307 300.442L8.66576 299.613L7.13779 297.474L5.89359 296.142Z" fill="#A6B7FF"/>
<path d="M5.89359 315.525L7.6835 315.176L10.1719 314.347L9.75717 313.015L7.22511 313.801L5.588 314.565L5.80628 312.775V310.134H4.36562V312.775L4.5839 314.565L2.9468 313.801L0.414734 313.015L0 314.347L2.48841 315.176L4.27831 315.525L3.03411 316.857L1.50614 318.996L2.6412 319.826L4.21283 317.708L5.08595 316.115L5.95908 317.708L7.5307 319.826L8.66576 318.996L7.13779 316.857L5.89359 315.525Z" fill="#A6B7FF"/>
<path d="M5.89359 334.909L7.6835 334.56L10.1719 333.73L9.75717 332.399L7.22511 333.184L5.588 333.948L5.80628 332.159V329.517H4.36562V332.159L4.5839 333.948L2.9468 333.184L0.414734 332.399L0 333.73L2.48841 334.56L4.27831 334.909L3.03411 336.24L1.50614 338.38L2.6412 339.209L4.21283 337.092L5.08595 335.498L5.95908 337.092L7.5307 339.209L8.66576 338.38L7.13779 336.24L5.89359 334.909Z" fill="#A6B7FF"/>
<path d="M5.89359 354.292L7.6835 353.943L10.1719 353.113L9.75717 351.782L7.22511 352.568L5.588 353.332L5.80628 351.542V348.901H4.36562V351.542L4.5839 353.332L2.9468 352.568L0.414734 351.782L0 353.113L2.48841 353.943L4.27831 354.292L3.03411 355.624L1.50614 357.763L2.6412 358.592L4.21283 356.475L5.08595 354.882L5.95908 356.475L7.5307 358.592L8.66576 357.763L7.13779 355.624L5.89359 354.292Z" fill="#A6B7FF"/>
<path d="M5.89359 373.676L7.6835 373.326L10.1719 372.497L9.75717 371.165L7.22511 371.951L5.588 372.715L5.80628 370.925V368.284H4.36562V370.925L4.5839 372.715L2.9468 371.951L0.414734 371.165L0 372.497L2.48841 373.326L4.27831 373.676L3.03411 375.007L1.50614 377.146L2.6412 377.976L4.21283 375.858L5.08595 374.265L5.95908 375.858L7.5307 377.976L8.66576 377.146L7.13779 375.007L5.89359 373.676Z" fill="#A6B7FF"/>
<path d="M25.7576 199.225L27.5475 198.876L30.0359 198.047L29.6212 196.715L27.0891 197.501L25.452 198.265L25.6703 196.475V193.834H24.2296V196.475L24.4479 198.265L22.8108 197.501L20.2787 196.715L19.864 198.047L22.3524 198.876L24.1423 199.225L22.8981 200.557L21.3702 202.696L22.5052 203.525L24.0768 201.408L24.95 199.815L25.8231 201.408L27.3947 203.525L28.5298 202.696L27.0018 200.557L25.7576 199.225Z" fill="#A6B7FF"/>
<path d="M25.7576 218.609L27.5475 218.259L30.0359 217.43L29.6212 216.098L27.0891 216.884L25.452 217.648L25.6703 215.858V213.217H24.2296V215.858L24.4479 217.648L22.8108 216.884L20.2787 216.098L19.864 217.43L22.3524 218.259L24.1423 218.609L22.8981 219.94L21.3702 222.079L22.5052 222.909L24.0768 220.791L24.95 219.198L25.8231 220.791L27.3947 222.909L28.5298 222.079L27.0018 219.94L25.7576 218.609Z" fill="#A6B7FF"/>
<path d="M25.7576 237.992L27.5475 237.643L30.0359 236.813L29.6212 235.482L27.0891 236.268L25.452 237.032L25.6703 235.242V232.6H24.2296V235.242L24.4479 237.032L22.8108 236.268L20.2787 235.482L19.864 236.813L22.3524 237.643L24.1423 237.992L22.8981 239.324L21.3702 241.463L22.5052 242.292L24.0768 240.175L24.95 238.581L25.8231 240.175L27.3947 242.292L28.5298 241.463L27.0018 239.324L25.7576 237.992Z" fill="#A6B7FF"/>
<path d="M25.7576 257.375L27.5475 257.026L30.0359 256.197L29.6212 254.865L27.0891 255.651L25.452 256.415L25.6703 254.625V251.984H24.2296V254.625L24.4479 256.415L22.8108 255.651L20.2787 254.865L19.864 256.197L22.3524 257.026L24.1423 257.375L22.8981 258.707L21.3702 260.846L22.5052 261.676L24.0768 259.558L24.95 257.965L25.8231 259.558L27.3947 261.676L28.5298 260.846L27.0018 258.707L25.7576 257.375Z" fill="#A6B7FF"/>
<path d="M25.7576 276.759L27.5475 276.409L30.0359 275.58L29.6212 274.248L27.0891 275.034L25.452 275.798L25.6703 274.008V271.367H24.2296V274.008L24.4479 275.798L22.8108 275.034L20.2787 274.248L19.864 275.58L22.3524 276.409L24.1423 276.759L22.8981 278.09L21.3702 280.229L22.5052 281.059L24.0768 278.942L24.95 277.348L25.8231 278.942L27.3947 281.059L28.5298 280.229L27.0018 278.09L25.7576 276.759Z" fill="#A6B7FF"/>
<path d="M25.7576 296.142L27.5475 295.793L30.0359 294.963L29.6212 293.632L27.0891 294.418L25.452 295.182L25.6703 293.392V290.75H24.2296V293.392L24.4479 295.182L22.8108 294.418L20.2787 293.632L19.864 294.963L22.3524 295.793L24.1423 296.142L22.8981 297.474L21.3702 299.613L22.5052 300.442L24.0768 298.325L24.95 296.731L25.8231 298.325L27.3947 300.442L28.5298 299.613L27.0018 297.474L25.7576 296.142Z" fill="#A6B7FF"/>
<path d="M25.7576 315.525L27.5475 315.176L30.0359 314.347L29.6212 313.015L27.0891 313.801L25.452 314.565L25.6703 312.775V310.134H24.2296V312.775L24.4479 314.565L22.8108 313.801L20.2787 313.015L19.864 314.347L22.3524 315.176L24.1423 315.525L22.8981 316.857L21.3702 318.996L22.5052 319.826L24.0768 317.708L24.95 316.115L25.8231 317.708L27.3947 319.826L28.5298 318.996L27.0018 316.857L25.7576 315.525Z" fill="#A6B7FF"/>
<path d="M25.7576 334.909L27.5475 334.56L30.0359 333.73L29.6212 332.399L27.0891 333.184L25.452 333.948L25.6703 332.159V329.517H24.2296V332.159L24.4479 333.948L22.8108 333.184L20.2787 332.399L19.864 333.73L22.3524 334.56L24.1423 334.909L22.8981 336.24L21.3702 338.38L22.5052 339.209L24.0768 337.092L24.95 335.498L25.8231 337.092L27.3947 339.209L28.5298 338.38L27.0018 336.24L25.7576 334.909Z" fill="#A6B7FF"/>
<path d="M25.7576 354.292L27.5475 353.943L30.0359 353.113L29.6212 351.782L27.0891 352.568L25.452 353.332L25.6703 351.542V348.901H24.2296V351.542L24.4479 353.332L22.8108 352.568L20.2787 351.782L19.864 353.113L22.3524 353.943L24.1423 354.292L22.8981 355.624L21.3702 357.763L22.5052 358.592L24.0768 356.475L24.95 354.882L25.8231 356.475L27.3947 358.592L28.5298 357.763L27.0018 355.624L25.7576 354.292Z" fill="#A6B7FF"/>
<path d="M25.7576 373.676L27.5475 373.326L30.0359 372.497L29.6212 371.165L27.0891 371.951L25.452 372.715L25.6703 370.925V368.284H24.2296V370.925L24.4479 372.715L22.8108 371.951L20.2787 371.165L19.864 372.497L22.3524 373.326L24.1423 373.676L22.8981 375.007L21.3702 377.146L22.5052 377.976L24.0768 375.858L24.95 374.265L25.8231 375.858L27.3947 377.976L28.5298 377.146L27.0018 375.007L25.7576 373.676Z" fill="#A6B7FF"/>
<path d="M45.6209 199.225L47.4108 198.876L49.8992 198.047L49.4845 196.715L46.9524 197.501L45.3153 198.265L45.5336 196.475V193.834H44.0929V196.475L44.3112 198.265L42.6741 197.501L40.142 196.715L39.7273 198.047L42.2157 198.876L44.0056 199.225L42.7614 200.557L41.2334 202.696L42.3685 203.525L43.9401 201.408L44.8132 199.815L45.6864 201.408L47.258 203.525L48.3931 202.696L46.8651 200.557L45.6209 199.225Z" fill="#A6B7FF"/>
<path d="M45.6209 218.609L47.4108 218.259L49.8992 217.43L49.4845 216.098L46.9524 216.884L45.3153 217.648L45.5336 215.858V213.217H44.0929V215.858L44.3112 217.648L42.6741 216.884L40.142 216.098L39.7273 217.43L42.2157 218.259L44.0056 218.609L42.7614 219.94L41.2334 222.079L42.3685 222.909L43.9401 220.791L44.8132 219.198L45.6864 220.791L47.258 222.909L48.3931 222.079L46.8651 219.94L45.6209 218.609Z" fill="#A6B7FF"/>
<path d="M45.6209 237.992L47.4108 237.643L49.8992 236.813L49.4845 235.482L46.9524 236.268L45.3153 237.032L45.5336 235.242V232.6H44.0929V235.242L44.3112 237.032L42.6741 236.268L40.142 235.482L39.7273 236.813L42.2157 237.643L44.0056 237.992L42.7614 239.324L41.2334 241.463L42.3685 242.292L43.9401 240.175L44.8132 238.581L45.6864 240.175L47.258 242.292L48.3931 241.463L46.8651 239.324L45.6209 237.992Z" fill="#A6B7FF"/>
<path d="M45.6209 257.375L47.4108 257.026L49.8992 256.197L49.4845 254.865L46.9524 255.651L45.3153 256.415L45.5336 254.625V251.984H44.0929V254.625L44.3112 256.415L42.6741 255.651L40.142 254.865L39.7273 256.197L42.2157 257.026L44.0056 257.375L42.7614 258.707L41.2334 260.846L42.3685 261.676L43.9401 259.558L44.8132 257.965L45.6864 259.558L47.258 261.676L48.3931 260.846L46.8651 258.707L45.6209 257.375Z" fill="#A6B7FF"/>
<path d="M45.6209 276.759L47.4108 276.409L49.8992 275.58L49.4845 274.248L46.9524 275.034L45.3153 275.798L45.5336 274.008V271.367H44.0929V274.008L44.3112 275.798L42.6741 275.034L40.142 274.248L39.7273 275.58L42.2157 276.409L44.0056 276.759L42.7614 278.09L41.2334 280.229L42.3685 281.059L43.9401 278.942L44.8132 277.348L45.6864 278.942L47.258 281.059L48.3931 280.229L46.8651 278.09L45.6209 276.759Z" fill="#A6B7FF"/>
<path d="M45.6209 296.142L47.4108 295.793L49.8992 294.963L49.4845 293.632L46.9524 294.418L45.3153 295.182L45.5336 293.392V290.75H44.0929V293.392L44.3112 295.182L42.6741 294.418L40.142 293.632L39.7273 294.963L42.2157 295.793L44.0056 296.142L42.7614 297.474L41.2334 299.613L42.3685 300.442L43.9401 298.325L44.8132 296.731L45.6864 298.325L47.258 300.442L48.3931 299.613L46.8651 297.474L45.6209 296.142Z" fill="#A6B7FF"/>
<path d="M45.6209 315.525L47.4108 315.176L49.8992 314.347L49.4845 313.015L46.9524 313.801L45.3153 314.565L45.5336 312.775V310.134H44.0929V312.775L44.3112 314.565L42.6741 313.801L40.142 313.015L39.7273 314.347L42.2157 315.176L44.0056 315.525L42.7614 316.857L41.2334 318.996L42.3685 319.826L43.9401 317.708L44.8132 316.115L45.6864 317.708L47.258 319.826L48.3931 318.996L46.8651 316.857L45.6209 315.525Z" fill="#A6B7FF"/>
<path d="M45.6209 334.909L47.4108 334.56L49.8992 333.73L49.4845 332.399L46.9524 333.184L45.3153 333.948L45.5336 332.159V329.517H44.0929V332.159L44.3112 333.948L42.6741 333.184L40.142 332.399L39.7273 333.73L42.2157 334.56L44.0056 334.909L42.7614 336.24L41.2334 338.38L42.3685 339.209L43.9401 337.092L44.8132 335.498L45.6864 337.092L47.258 339.209L48.3931 338.38L46.8651 336.24L45.6209 334.909Z" fill="#A6B7FF"/>
<path d="M45.6209 354.292L47.4108 353.943L49.8992 353.113L49.4845 351.782L46.9524 352.568L45.3153 353.332L45.5336 351.542V348.901H44.0929V351.542L44.3112 353.332L42.6741 352.568L40.142 351.782L39.7273 353.113L42.2157 353.943L44.0056 354.292L42.7614 355.624L41.2334 357.763L42.3685 358.592L43.9401 356.475L44.8132 354.882L45.6864 356.475L47.258 358.592L48.3931 357.763L46.8651 355.624L45.6209 354.292Z" fill="#A6B7FF"/>
<path d="M45.6209 373.676L47.4108 373.326L49.8992 372.497L49.4845 371.165L46.9524 371.951L45.3153 372.715L45.5336 370.925V368.284H44.0929V370.925L44.3112 372.715L42.6741 371.951L40.142 371.165L39.7273 372.497L42.2157 373.326L44.0056 373.676L42.7614 375.007L41.2334 377.146L42.3685 377.976L43.9401 375.858L44.8132 374.265L45.6864 375.858L47.258 377.976L48.3931 377.146L46.8651 375.007L45.6209 373.676Z" fill="#A6B7FF"/>
<path d="M65.4849 5.39154L67.2748 5.04229L69.7632 4.21283L69.3485 2.88131L66.8164 3.66712L65.1793 4.43111L65.3976 2.6412V0H63.9569V2.6412L64.1752 4.43111L62.5381 3.66712L60.006 2.88131L59.5913 4.21283L62.0797 5.04229L63.8696 5.39154L62.6254 6.72306L61.0974 8.86222L62.2325 9.69168L63.8041 7.57436L64.6773 5.9809L65.5504 7.57436L67.122 9.69168L68.2571 8.86222L66.7291 6.72306L65.4849 5.39154Z" fill="#A6B7FF"/>
<path d="M65.4849 24.775L67.2748 24.4257L69.7632 23.5962L69.3485 22.2647L66.8164 23.0505L65.1793 23.8145L65.3976 22.0246V19.3834H63.9569V22.0246L64.1752 23.8145L62.5381 23.0505L60.006 22.2647L59.5913 23.5962L62.0797 24.4257L63.8696 24.775L62.6254 26.1065L61.0974 28.2456L62.2325 29.0751L63.8041 26.9578L64.6773 25.3643L65.5504 26.9578L67.122 29.0751L68.2571 28.2456L66.7291 26.1065L65.4849 24.775Z" fill="#A6B7FF"/>
<path d="M65.4849 44.1583L67.2748 43.809L69.7632 42.9796L69.3485 41.648L66.8164 42.4338L65.1793 43.1978L65.3976 41.4079V38.7667H63.9569V41.4079L64.1752 43.1978L62.5381 42.4338L60.006 41.648L59.5913 42.9796L62.0797 43.809L63.8696 44.1583L62.6254 45.4898L61.0974 47.6289L62.2325 48.4584L63.8041 46.3411L64.6773 44.7476L65.5504 46.3411L67.122 48.4584L68.2571 47.6289L66.7291 45.4898L65.4849 44.1583Z" fill="#A6B7FF"/>
<path d="M65.4849 63.5417L67.2748 63.1924L69.7632 62.363L69.3485 61.0315L66.8164 61.8173L65.1793 62.5813L65.3976 60.7913V58.1501H63.9569V60.7913L64.1752 62.5813L62.5381 61.8173L60.006 61.0315L59.5913 62.363L62.0797 63.1924L63.8696 63.5417L62.6254 64.8732L61.0974 67.0124L62.2325 67.8418L63.8041 65.7245L64.6773 64.1311L65.5504 65.7245L67.122 67.8418L68.2571 67.0124L66.7291 64.8732L65.4849 63.5417Z" fill="#A6B7FF"/>
<path d="M65.4849 82.925L67.2748 82.5757L69.7632 81.7463L69.3485 80.4148L66.8164 81.2006L65.1793 81.9646L65.3976 80.1746V77.5334H63.9569V80.1746L64.1752 81.9646L62.5381 81.2006L60.006 80.4148L59.5913 81.7463L62.0797 82.5757L63.8696 82.925L62.6254 84.2565L61.0974 86.3957L62.2325 87.2251L63.8041 85.1078L64.6773 83.5144L65.5504 85.1078L67.122 87.2251L68.2571 86.3957L66.7291 84.2565L65.4849 82.925Z" fill="#A6B7FF"/>
<path d="M65.4849 102.308L67.2748 101.959L69.7632 101.13L69.3485 99.7982L66.8164 100.584L65.1793 101.348L65.3976 99.5581V96.9169H63.9569V99.5581L64.1752 101.348L62.5381 100.584L60.006 99.7982L59.5913 101.13L62.0797 101.959L63.8696 102.308L62.6254 103.64L61.0974 105.779L62.2325 106.609L63.8041 104.491L64.6773 102.898L65.5504 104.491L67.122 106.609L68.2571 105.779L66.7291 103.64L65.4849 102.308Z" fill="#A6B7FF"/>
<path d="M65.4849 121.692L67.2748 121.343L69.7632 120.513L69.3485 119.182L66.8164 119.967L65.1793 120.731L65.3976 118.941V116.3H63.9569V118.941L64.1752 120.731L62.5381 119.967L60.006 119.182L59.5913 120.513L62.0797 121.343L63.8696 121.692L62.6254 123.023L61.0974 125.163L62.2325 125.992L63.8041 123.875L64.6773 122.281L65.5504 123.875L67.122 125.992L68.2571 125.163L66.7291 123.023L65.4849 121.692Z" fill="#A6B7FF"/>
<path d="M65.4849 141.075L67.2748 140.726L69.7632 139.896L69.3485 138.565L66.8164 139.351L65.1793 140.115L65.3976 138.325V135.684H63.9569V138.325L64.1752 140.115L62.5381 139.351L60.006 138.565L59.5913 139.896L62.0797 140.726L63.8696 141.075L62.6254 142.407L61.0974 144.546L62.2325 145.375L63.8041 143.258L64.6773 141.664L65.5504 143.258L67.122 145.375L68.2571 144.546L66.7291 142.407L65.4849 141.075Z" fill="#A6B7FF"/>
<path d="M65.4849 160.458L67.2748 160.109L69.7632 159.28L69.3485 157.948L66.8164 158.734L65.1793 159.498L65.3976 157.708V155.067H63.9569V157.708L64.1752 159.498L62.5381 158.734L60.006 157.948L59.5913 159.28L62.0797 160.109L63.8696 160.458L62.6254 161.79L61.0974 163.929L62.2325 164.759L63.8041 162.641L64.6773 161.048L65.5504 162.641L67.122 164.759L68.2571 163.929L66.7291 161.79L65.4849 160.458Z" fill="#A6B7FF"/>
<path d="M65.4849 179.842L67.2748 179.493L69.7632 178.663L69.3485 177.332L66.8164 178.118L65.1793 178.882L65.3976 177.092V174.45H63.9569V177.092L64.1752 178.882L62.5381 178.118L60.006 177.332L59.5913 178.663L62.0797 179.493L63.8696 179.842L62.6254 181.173L61.0974 183.313L62.2325 184.142L63.8041 182.025L64.6773 180.431L65.5504 182.025L67.122 184.142L68.2571 183.313L66.7291 181.173L65.4849 179.842Z" fill="#A6B7FF"/>
<path d="M85.3484 5.39154L87.1383 5.04229L89.6267 4.21283L89.212 2.88131L86.6799 3.66712L85.0428 4.43111L85.2611 2.6412V0H83.8205V2.6412L84.0387 4.43111L82.4016 3.66712L79.8696 2.88131L79.4548 4.21283L81.9432 5.04229L83.7331 5.39154L82.4889 6.72306L80.961 8.86222L82.096 9.69168L83.6677 7.57436L84.5408 5.9809L85.4139 7.57436L86.9855 9.69168L88.1206 8.86222L86.5926 6.72306L85.3484 5.39154Z" fill="#A6B7FF"/>
<path d="M85.3484 24.775L87.1383 24.4257L89.6267 23.5962L89.212 22.2647L86.6799 23.0505L85.0428 23.8145L85.2611 22.0246V19.3834H83.8205V22.0246L84.0387 23.8145L82.4016 23.0505L79.8696 22.2647L79.4548 23.5962L81.9432 24.4257L83.7331 24.775L82.4889 26.1065L80.961 28.2456L82.096 29.0751L83.6677 26.9578L84.5408 25.3643L85.4139 26.9578L86.9855 29.0751L88.1206 28.2456L86.5926 26.1065L85.3484 24.775Z" fill="#A6B7FF"/>
<path d="M85.3484 44.1583L87.1383 43.809L89.6267 42.9796L89.212 41.648L86.6799 42.4338L85.0428 43.1978L85.2611 41.4079V38.7667H83.8205V41.4079L84.0387 43.1978L82.4016 42.4338L79.8696 41.648L79.4548 42.9796L81.9432 43.809L83.7331 44.1583L82.4889 45.4898L80.961 47.6289L82.096 48.4584L83.6677 46.3411L84.5408 44.7476L85.4139 46.3411L86.9855 48.4584L88.1206 47.6289L86.5926 45.4898L85.3484 44.1583Z" fill="#A6B7FF"/>
<path d="M85.3484 63.5417L87.1383 63.1924L89.6267 62.363L89.212 61.0315L86.6799 61.8173L85.0428 62.5813L85.2611 60.7913V58.1501H83.8205V60.7913L84.0387 62.5813L82.4016 61.8173L79.8696 61.0315L79.4548 62.363L81.9432 63.1924L83.7331 63.5417L82.4889 64.8732L80.961 67.0124L82.096 67.8418L83.6677 65.7245L84.5408 64.1311L85.4139 65.7245L86.9855 67.8418L88.1206 67.0124L86.5926 64.8732L85.3484 63.5417Z" fill="#A6B7FF"/>
<path d="M85.3484 82.925L87.1383 82.5757L89.6267 81.7463L89.212 80.4148L86.6799 81.2006L85.0428 81.9646L85.2611 80.1746V77.5334H83.8205V80.1746L84.0387 81.9646L82.4016 81.2006L79.8696 80.4148L79.4548 81.7463L81.9432 82.5757L83.7331 82.925L82.4889 84.2565L80.961 86.3957L82.096 87.2251L83.6677 85.1078L84.5408 83.5144L85.4139 85.1078L86.9855 87.2251L88.1206 86.3957L86.5926 84.2565L85.3484 82.925Z" fill="#A6B7FF"/>
<path d="M85.3484 102.308L87.1383 101.959L89.6267 101.13L89.212 99.7982L86.6799 100.584L85.0428 101.348L85.2611 99.5581V96.9169H83.8205V99.5581L84.0387 101.348L82.4016 100.584L79.8696 99.7982L79.4548 101.13L81.9432 101.959L83.7331 102.308L82.4889 103.64L80.961 105.779L82.096 106.609L83.6677 104.491L84.5408 102.898L85.4139 104.491L86.9855 106.609L88.1206 105.779L86.5926 103.64L85.3484 102.308Z" fill="#A6B7FF"/>
<path d="M85.3484 121.692L87.1383 121.343L89.6267 120.513L89.212 119.182L86.6799 119.967L85.0428 120.731L85.2611 118.941V116.3H83.8205V118.941L84.0387 120.731L82.4016 119.967L79.8696 119.182L79.4548 120.513L81.9432 121.343L83.7331 121.692L82.4889 123.023L80.961 125.163L82.096 125.992L83.6677 123.875L84.5408 122.281L85.4139 123.875L86.9855 125.992L88.1206 125.163L86.5926 123.023L85.3484 121.692Z" fill="#A6B7FF"/>
<path d="M85.3484 141.075L87.1383 140.726L89.6267 139.896L89.212 138.565L86.6799 139.351L85.0428 140.115L85.2611 138.325V135.684H83.8205V138.325L84.0387 140.115L82.4016 139.351L79.8696 138.565L79.4548 139.896L81.9432 140.726L83.7331 141.075L82.4889 142.407L80.961 144.546L82.096 145.375L83.6677 143.258L84.5408 141.664L85.4139 143.258L86.9855 145.375L88.1206 144.546L86.5926 142.407L85.3484 141.075Z" fill="#A6B7FF"/>
<path d="M85.3484 160.458L87.1383 160.109L89.6267 159.28L89.212 157.948L86.6799 158.734L85.0428 159.498L85.2611 157.708V155.067H83.8205V157.708L84.0387 159.498L82.4016 158.734L79.8696 157.948L79.4548 159.28L81.9432 160.109L83.7331 160.458L82.4889 161.79L80.961 163.929L82.096 164.759L83.6677 162.641L84.5408 161.048L85.4139 162.641L86.9855 164.759L88.1206 163.929L86.5926 161.79L85.3484 160.458Z" fill="#A6B7FF"/>
<path d="M85.3484 179.842L87.1383 179.493L89.6267 178.663L89.212 177.332L86.6799 178.118L85.0428 178.882L85.2611 177.092V174.45H83.8205V177.092L84.0387 178.882L82.4016 178.118L79.8696 177.332L79.4548 178.663L81.9432 179.493L83.7331 179.842L82.4889 181.173L80.961 183.313L82.096 184.142L83.6677 182.025L84.5408 180.431L85.4139 182.025L86.9855 184.142L88.1206 183.313L86.5926 181.173L85.3484 179.842Z" fill="#A6B7FF"/>
<path d="M105.212 5.39154L107.002 5.04229L109.491 4.21283L109.076 2.88131L106.544 3.66712L104.907 4.43111L105.125 2.6412V0H103.684V2.6412L103.903 4.43111L102.266 3.66712L99.7336 2.88131L99.3188 4.21283L101.807 5.04229L103.597 5.39154L102.353 6.72306L100.825 8.86222L101.96 9.69168L103.532 7.57436L104.405 5.9809L105.278 7.57436L106.85 9.69168L107.985 8.86222L106.457 6.72306L105.212 5.39154Z" fill="#A6B7FF"/>
<path d="M105.212 24.775L107.002 24.4257L109.491 23.5962L109.076 22.2647L106.544 23.0505L104.907 23.8145L105.125 22.0246V19.3834H103.684V22.0246L103.903 23.8145L102.266 23.0505L99.7336 22.2647L99.3188 23.5962L101.807 24.4257L103.597 24.775L102.353 26.1065L100.825 28.2456L101.96 29.0751L103.532 26.9578L104.405 25.3643L105.278 26.9578L106.85 29.0751L107.985 28.2456L106.457 26.1065L105.212 24.775Z" fill="#A6B7FF"/>
<path d="M105.212 44.1583L107.002 43.809L109.491 42.9796L109.076 41.648L106.544 42.4338L104.907 43.1978L105.125 41.4079V38.7667H103.684V41.4079L103.903 43.1978L102.266 42.4338L99.7336 41.648L99.3188 42.9796L101.807 43.809L103.597 44.1583L102.353 45.4898L100.825 47.6289L101.96 48.4584L103.532 46.3411L104.405 44.7476L105.278 46.3411L106.85 48.4584L107.985 47.6289L106.457 45.4898L105.212 44.1583Z" fill="#A6B7FF"/>
<path d="M105.212 63.5417L107.002 63.1924L109.491 62.363L109.076 61.0315L106.544 61.8173L104.907 62.5813L105.125 60.7913V58.1501H103.684V60.7913L103.903 62.5813L102.266 61.8173L99.7336 61.0315L99.3188 62.363L101.807 63.1924L103.597 63.5417L102.353 64.8732L100.825 67.0124L101.96 67.8418L103.532 65.7245L104.405 64.1311L105.278 65.7245L106.85 67.8418L107.985 67.0124L106.457 64.8732L105.212 63.5417Z" fill="#A6B7FF"/>
<path d="M105.212 82.925L107.002 82.5757L109.491 81.7463L109.076 80.4148L106.544 81.2006L104.907 81.9646L105.125 80.1746V77.5334H103.684V80.1746L103.903 81.9646L102.266 81.2006L99.7336 80.4148L99.3188 81.7463L101.807 82.5757L103.597 82.925L102.353 84.2565L100.825 86.3957L101.96 87.2251L103.532 85.1078L104.405 83.5144L105.278 85.1078L106.85 87.2251L107.985 86.3957L106.457 84.2565L105.212 82.925Z" fill="#A6B7FF"/>
<path d="M105.212 102.308L107.002 101.959L109.491 101.13L109.076 99.7982L106.544 100.584L104.907 101.348L105.125 99.5581V96.9169H103.684V99.5581L103.903 101.348L102.266 100.584L99.7336 99.7982L99.3188 101.13L101.807 101.959L103.597 102.308L102.353 103.64L100.825 105.779L101.96 106.609L103.532 104.491L104.405 102.898L105.278 104.491L106.85 106.609L107.985 105.779L106.457 103.64L105.212 102.308Z" fill="#A6B7FF"/>
<path d="M105.212 121.692L107.002 121.343L109.491 120.513L109.076 119.182L106.544 119.967L104.907 120.731L105.125 118.941V116.3H103.684V118.941L103.903 120.731L102.266 119.967L99.7336 119.182L99.3188 120.513L101.807 121.343L103.597 121.692L102.353 123.023L100.825 125.163L101.96 125.992L103.532 123.875L104.405 122.281L105.278 123.875L106.85 125.992L107.985 125.163L106.457 123.023L105.212 121.692Z" fill="#A6B7FF"/>
<path d="M105.212 141.075L107.002 140.726L109.491 139.896L109.076 138.565L106.544 139.351L104.907 140.115L105.125 138.325V135.684H103.684V138.325L103.903 140.115L102.266 139.351L99.7336 138.565L99.3188 139.896L101.807 140.726L103.597 141.075L102.353 142.407L100.825 144.546L101.96 145.375L103.532 143.258L104.405 141.664L105.278 143.258L106.85 145.375L107.985 144.546L106.457 142.407L105.212 141.075Z" fill="#A6B7FF"/>
<path d="M105.212 160.458L107.002 160.109L109.491 159.28L109.076 157.948L106.544 158.734L104.907 159.498L105.125 157.708V155.067H103.684V157.708L103.903 159.498L102.266 158.734L99.7336 157.948L99.3188 159.28L101.807 160.109L103.597 160.458L102.353 161.79L100.825 163.929L101.96 164.759L103.532 162.641L104.405 161.048L105.278 162.641L106.85 164.759L107.985 163.929L106.457 161.79L105.212 160.458Z" fill="#A6B7FF"/>
<path d="M105.212 179.842L107.002 179.493L109.491 178.663L109.076 177.332L106.544 178.118L104.907 178.882L105.125 177.092V174.45H103.684V177.092L103.903 178.882L102.266 178.118L99.7336 177.332L99.3188 178.663L101.807 179.493L103.597 179.842L102.353 181.173L100.825 183.313L101.96 184.142L103.532 182.025L104.405 180.431L105.278 182.025L106.85 184.142L107.985 183.313L106.457 181.173L105.212 179.842Z" fill="#A6B7FF"/>
<path d="M65.4849 199.225L67.2748 198.876L69.7632 198.047L69.3485 196.715L66.8164 197.501L65.1793 198.265L65.3976 196.475V193.834H63.9569V196.475L64.1752 198.265L62.5381 197.501L60.006 196.715L59.5913 198.047L62.0797 198.876L63.8696 199.225L62.6254 200.557L61.0974 202.696L62.2325 203.525L63.8041 201.408L64.6773 199.815L65.5504 201.408L67.122 203.525L68.2571 202.696L66.7291 200.557L65.4849 199.225Z" fill="#A6B7FF"/>
<path d="M65.4849 218.609L67.2748 218.259L69.7632 217.43L69.3485 216.098L66.8164 216.884L65.1793 217.648L65.3976 215.858V213.217H63.9569V215.858L64.1752 217.648L62.5381 216.884L60.006 216.098L59.5913 217.43L62.0797 218.259L63.8696 218.609L62.6254 219.94L61.0974 222.079L62.2325 222.909L63.8041 220.791L64.6773 219.198L65.5504 220.791L67.122 222.909L68.2571 222.079L66.7291 219.94L65.4849 218.609Z" fill="#A6B7FF"/>
<path d="M65.4849 237.992L67.2748 237.643L69.7632 236.813L69.3485 235.482L66.8164 236.268L65.1793 237.032L65.3976 235.242V232.6H63.9569V235.242L64.1752 237.032L62.5381 236.268L60.006 235.482L59.5913 236.813L62.0797 237.643L63.8696 237.992L62.6254 239.324L61.0974 241.463L62.2325 242.292L63.8041 240.175L64.6773 238.581L65.5504 240.175L67.122 242.292L68.2571 241.463L66.7291 239.324L65.4849 237.992Z" fill="#A6B7FF"/>
<path d="M65.4849 257.375L67.2748 257.026L69.7632 256.197L69.3485 254.865L66.8164 255.651L65.1793 256.415L65.3976 254.625V251.984H63.9569V254.625L64.1752 256.415L62.5381 255.651L60.006 254.865L59.5913 256.197L62.0797 257.026L63.8696 257.375L62.6254 258.707L61.0974 260.846L62.2325 261.676L63.8041 259.558L64.6773 257.965L65.5504 259.558L67.122 261.676L68.2571 260.846L66.7291 258.707L65.4849 257.375Z" fill="#A6B7FF"/>
<path d="M65.4849 276.759L67.2748 276.409L69.7632 275.58L69.3485 274.248L66.8164 275.034L65.1793 275.798L65.3976 274.008V271.367H63.9569V274.008L64.1752 275.798L62.5381 275.034L60.006 274.248L59.5913 275.58L62.0797 276.409L63.8696 276.759L62.6254 278.09L61.0974 280.229L62.2325 281.059L63.8041 278.942L64.6773 277.348L65.5504 278.942L67.122 281.059L68.2571 280.229L66.7291 278.09L65.4849 276.759Z" fill="#A6B7FF"/>
<path d="M65.4849 296.142L67.2748 295.793L69.7632 294.963L69.3485 293.632L66.8164 294.418L65.1793 295.182L65.3976 293.392V290.75H63.9569V293.392L64.1752 295.182L62.5381 294.418L60.006 293.632L59.5913 294.963L62.0797 295.793L63.8696 296.142L62.6254 297.474L61.0974 299.613L62.2325 300.442L63.8041 298.325L64.6773 296.731L65.5504 298.325L67.122 300.442L68.2571 299.613L66.7291 297.474L65.4849 296.142Z" fill="#A6B7FF"/>
<path d="M65.4849 315.525L67.2748 315.176L69.7632 314.347L69.3485 313.015L66.8164 313.801L65.1793 314.565L65.3976 312.775V310.134H63.9569V312.775L64.1752 314.565L62.5381 313.801L60.006 313.015L59.5913 314.347L62.0797 315.176L63.8696 315.525L62.6254 316.857L61.0974 318.996L62.2325 319.826L63.8041 317.708L64.6773 316.115L65.5504 317.708L67.122 319.826L68.2571 318.996L66.7291 316.857L65.4849 315.525Z" fill="#A6B7FF"/>
<path d="M65.4849 334.909L67.2748 334.56L69.7632 333.73L69.3485 332.399L66.8164 333.184L65.1793 333.948L65.3976 332.159V329.517H63.9569V332.159L64.1752 333.948L62.5381 333.184L60.006 332.399L59.5913 333.73L62.0797 334.56L63.8696 334.909L62.6254 336.24L61.0974 338.38L62.2325 339.209L63.8041 337.092L64.6773 335.498L65.5504 337.092L67.122 339.209L68.2571 338.38L66.7291 336.24L65.4849 334.909Z" fill="#A6B7FF"/>
<path d="M65.4849 354.292L67.2748 353.943L69.7632 353.113L69.3485 351.782L66.8164 352.568L65.1793 353.332L65.3976 351.542V348.901H63.9569V351.542L64.1752 353.332L62.5381 352.568L60.006 351.782L59.5913 353.113L62.0797 353.943L63.8696 354.292L62.6254 355.624L61.0974 357.763L62.2325 358.592L63.8041 356.475L64.6773 354.882L65.5504 356.475L67.122 358.592L68.2571 357.763L66.7291 355.624L65.4849 354.292Z" fill="#A6B7FF"/>
<path d="M65.4849 373.676L67.2748 373.326L69.7632 372.497L69.3485 371.165L66.8164 371.951L65.1793 372.715L65.3976 370.925V368.284H63.9569V370.925L64.1752 372.715L62.5381 371.951L60.006 371.165L59.5913 372.497L62.0797 373.326L63.8696 373.676L62.6254 375.007L61.0974 377.146L62.2325 377.976L63.8041 375.858L64.6773 374.265L65.5504 375.858L67.122 377.976L68.2571 377.146L66.7291 375.007L65.4849 373.676Z" fill="#A6B7FF"/>
<path d="M85.3484 199.225L87.1383 198.876L89.6267 198.047L89.212 196.715L86.6799 197.501L85.0428 198.265L85.2611 196.475V193.834H83.8205V196.475L84.0387 198.265L82.4016 197.501L79.8696 196.715L79.4548 198.047L81.9432 198.876L83.7331 199.225L82.4889 200.557L80.961 202.696L82.096 203.525L83.6677 201.408L84.5408 199.815L85.4139 201.408L86.9855 203.525L88.1206 202.696L86.5926 200.557L85.3484 199.225Z" fill="#A6B7FF"/>
<path d="M85.3484 218.609L87.1383 218.259L89.6267 217.43L89.212 216.098L86.6799 216.884L85.0428 217.648L85.2611 215.858V213.217H83.8205V215.858L84.0387 217.648L82.4016 216.884L79.8696 216.098L79.4548 217.43L81.9432 218.259L83.7331 218.609L82.4889 219.94L80.961 222.079L82.096 222.909L83.6677 220.791L84.5408 219.198L85.4139 220.791L86.9855 222.909L88.1206 222.079L86.5926 219.94L85.3484 218.609Z" fill="#A6B7FF"/>
<path d="M85.3484 237.992L87.1383 237.643L89.6267 236.813L89.212 235.482L86.6799 236.268L85.0428 237.032L85.2611 235.242V232.6H83.8205V235.242L84.0387 237.032L82.4016 236.268L79.8696 235.482L79.4548 236.813L81.9432 237.643L83.7331 237.992L82.4889 239.324L80.961 241.463L82.096 242.292L83.6677 240.175L84.5408 238.581L85.4139 240.175L86.9855 242.292L88.1206 241.463L86.5926 239.324L85.3484 237.992Z" fill="#A6B7FF"/>
<path d="M85.3484 257.375L87.1383 257.026L89.6267 256.197L89.212 254.865L86.6799 255.651L85.0428 256.415L85.2611 254.625V251.984H83.8205V254.625L84.0387 256.415L82.4016 255.651L79.8696 254.865L79.4548 256.197L81.9432 257.026L83.7331 257.375L82.4889 258.707L80.961 260.846L82.096 261.676L83.6677 259.558L84.5408 257.965L85.4139 259.558L86.9855 261.676L88.1206 260.846L86.5926 258.707L85.3484 257.375Z" fill="#A6B7FF"/>
<path d="M85.3484 276.759L87.1383 276.409L89.6267 275.58L89.212 274.248L86.6799 275.034L85.0428 275.798L85.2611 274.008V271.367H83.8205V274.008L84.0387 275.798L82.4016 275.034L79.8696 274.248L79.4548 275.58L81.9432 276.409L83.7331 276.759L82.4889 278.09L80.961 280.229L82.096 281.059L83.6677 278.942L84.5408 277.348L85.4139 278.942L86.9855 281.059L88.1206 280.229L86.5926 278.09L85.3484 276.759Z" fill="#A6B7FF"/>
<path d="M85.3484 296.142L87.1383 295.793L89.6267 294.963L89.212 293.632L86.6799 294.418L85.0428 295.182L85.2611 293.392V290.75H83.8205V293.392L84.0387 295.182L82.4016 294.418L79.8696 293.632L79.4548 294.963L81.9432 295.793L83.7331 296.142L82.4889 297.474L80.961 299.613L82.096 300.442L83.6677 298.325L84.5408 296.731L85.4139 298.325L86.9855 300.442L88.1206 299.613L86.5926 297.474L85.3484 296.142Z" fill="#A6B7FF"/>
<path d="M85.3484 315.525L87.1383 315.176L89.6267 314.347L89.212 313.015L86.6799 313.801L85.0428 314.565L85.2611 312.775V310.134H83.8205V312.775L84.0387 314.565L82.4016 313.801L79.8696 313.015L79.4548 314.347L81.9432 315.176L83.7331 315.525L82.4889 316.857L80.961 318.996L82.096 319.826L83.6677 317.708L84.5408 316.115L85.4139 317.708L86.9855 319.826L88.1206 318.996L86.5926 316.857L85.3484 315.525Z" fill="#A6B7FF"/>
<path d="M85.3484 334.909L87.1383 334.56L89.6267 333.73L89.212 332.399L86.6799 333.184L85.0428 333.948L85.2611 332.159V329.517H83.8205V332.159L84.0387 333.948L82.4016 333.184L79.8696 332.399L79.4548 333.73L81.9432 334.56L83.7331 334.909L82.4889 336.24L80.961 338.38L82.096 339.209L83.6677 337.092L84.5408 335.498L85.4139 337.092L86.9855 339.209L88.1206 338.38L86.5926 336.24L85.3484 334.909Z" fill="#A6B7FF"/>
<path d="M85.3484 354.292L87.1383 353.943L89.6267 353.113L89.212 351.782L86.6799 352.568L85.0428 353.332L85.2611 351.542V348.901H83.8205V351.542L84.0387 353.332L82.4016 352.568L79.8696 351.782L79.4548 353.113L81.9432 353.943L83.7331 354.292L82.4889 355.624L80.961 357.763L82.096 358.592L83.6677 356.475L84.5408 354.882L85.4139 356.475L86.9855 358.592L88.1206 357.763L86.5926 355.624L85.3484 354.292Z" fill="#A6B7FF"/>
<path d="M85.3484 373.676L87.1383 373.326L89.6267 372.497L89.212 371.165L86.6799 371.951L85.0428 372.715L85.2611 370.925V368.284H83.8205V370.925L84.0387 372.715L82.4016 371.951L79.8696 371.165L79.4548 372.497L81.9432 373.326L83.7331 373.676L82.4889 375.007L80.961 377.146L82.096 377.976L83.6677 375.858L84.5408 374.265L85.4139 375.858L86.9855 377.976L88.1206 377.146L86.5926 375.007L85.3484 373.676Z" fill="#A6B7FF"/>
<path d="M105.212 199.225L107.002 198.876L109.491 198.047L109.076 196.715L106.544 197.501L104.907 198.265L105.125 196.475V193.834H103.684V196.475L103.903 198.265L102.266 197.501L99.7336 196.715L99.3188 198.047L101.807 198.876L103.597 199.225L102.353 200.557L100.825 202.696L101.96 203.525L103.532 201.408L104.405 199.815L105.278 201.408L106.85 203.525L107.985 202.696L106.457 200.557L105.212 199.225Z" fill="#A6B7FF"/>
<path d="M105.212 218.609L107.002 218.259L109.491 217.43L109.076 216.098L106.544 216.884L104.907 217.648L105.125 215.858V213.217H103.684V215.858L103.903 217.648L102.266 216.884L99.7336 216.098L99.3188 217.43L101.807 218.259L103.597 218.609L102.353 219.94L100.825 222.079L101.96 222.909L103.532 220.791L104.405 219.198L105.278 220.791L106.85 222.909L107.985 222.079L106.457 219.94L105.212 218.609Z" fill="#A6B7FF"/>
<path d="M105.212 237.992L107.002 237.643L109.491 236.813L109.076 235.482L106.544 236.268L104.907 237.032L105.125 235.242V232.6H103.684V235.242L103.903 237.032L102.266 236.268L99.7336 235.482L99.3188 236.813L101.807 237.643L103.597 237.992L102.353 239.324L100.825 241.463L101.96 242.292L103.532 240.175L104.405 238.581L105.278 240.175L106.85 242.292L107.985 241.463L106.457 239.324L105.212 237.992Z" fill="#A6B7FF"/>
<path d="M105.212 257.375L107.002 257.026L109.491 256.197L109.076 254.865L106.544 255.651L104.907 256.415L105.125 254.625V251.984H103.684V254.625L103.903 256.415L102.266 255.651L99.7336 254.865L99.3188 256.197L101.807 257.026L103.597 257.375L102.353 258.707L100.825 260.846L101.96 261.676L103.532 259.558L104.405 257.965L105.278 259.558L106.85 261.676L107.985 260.846L106.457 258.707L105.212 257.375Z" fill="#A6B7FF"/>
<path d="M105.212 276.759L107.002 276.409L109.491 275.58L109.076 274.248L106.544 275.034L104.907 275.798L105.125 274.008V271.367H103.684V274.008L103.903 275.798L102.266 275.034L99.7336 274.248L99.3188 275.58L101.807 276.409L103.597 276.759L102.353 278.09L100.825 280.229L101.96 281.059L103.532 278.942L104.405 277.348L105.278 278.942L106.85 281.059L107.985 280.229L106.457 278.09L105.212 276.759Z" fill="#A6B7FF"/>
<path d="M105.212 296.142L107.002 295.793L109.491 294.963L109.076 293.632L106.544 294.418L104.907 295.182L105.125 293.392V290.75H103.684V293.392L103.903 295.182L102.266 294.418L99.7336 293.632L99.3188 294.963L101.807 295.793L103.597 296.142L102.353 297.474L100.825 299.613L101.96 300.442L103.532 298.325L104.405 296.731L105.278 298.325L106.85 300.442L107.985 299.613L106.457 297.474L105.212 296.142Z" fill="#A6B7FF"/>
<path d="M105.212 315.525L107.002 315.176L109.491 314.347L109.076 313.015L106.544 313.801L104.907 314.565L105.125 312.775V310.134H103.684V312.775L103.903 314.565L102.266 313.801L99.7336 313.015L99.3188 314.347L101.807 315.176L103.597 315.525L102.353 316.857L100.825 318.996L101.96 319.826L103.532 317.708L104.405 316.115L105.278 317.708L106.85 319.826L107.985 318.996L106.457 316.857L105.212 315.525Z" fill="#A6B7FF"/>
<path d="M105.212 334.909L107.002 334.56L109.491 333.73L109.076 332.399L106.544 333.184L104.907 333.948L105.125 332.159V329.517H103.684V332.159L103.903 333.948L102.266 333.184L99.7336 332.399L99.3188 333.73L101.807 334.56L103.597 334.909L102.353 336.24L100.825 338.38L101.96 339.209L103.532 337.092L104.405 335.498L105.278 337.092L106.85 339.209L107.985 338.38L106.457 336.24L105.212 334.909Z" fill="#A6B7FF"/>
<path d="M105.212 354.292L107.002 353.943L109.491 353.113L109.076 351.782L106.544 352.568L104.907 353.332L105.125 351.542V348.901H103.684V351.542L103.903 353.332L102.266 352.568L99.7336 351.782L99.3188 353.113L101.807 353.943L103.597 354.292L102.353 355.624L100.825 357.763L101.96 358.592L103.532 356.475L104.405 354.882L105.278 356.475L106.85 358.592L107.985 357.763L106.457 355.624L105.212 354.292Z" fill="#A6B7FF"/>
<path d="M105.212 373.676L107.002 373.326L109.491 372.497L109.076 371.165L106.544 371.951L104.907 372.715L105.125 370.925V368.284H103.684V370.925L103.903 372.715L102.266 371.951L99.7336 371.165L99.3188 372.497L101.807 373.326L103.597 373.676L102.353 375.007L100.825 377.146L101.96 377.976L103.532 375.858L104.405 374.265L105.278 375.858L106.85 377.976L107.985 377.146L106.457 375.007L105.212 373.676Z" fill="#A6B7FF"/>
<path d="M125.076 5.39154L126.866 5.04229L129.354 4.21283L128.939 2.88131L126.407 3.66712L124.77 4.43111L124.988 2.6412V0H123.548V2.6412L123.766 4.43111L122.129 3.66712L119.597 2.88131L119.182 4.21283L121.671 5.04229L123.46 5.39154L122.216 6.72306L120.688 8.86222L121.823 9.69168L123.395 7.57436L124.268 5.9809L125.141 7.57436L126.713 9.69168L127.848 8.86222L126.32 6.72306L125.076 5.39154Z" fill="#A6B7FF"/>
<path d="M125.076 24.7748L126.866 24.4256L129.354 23.5961L128.939 22.2646L126.407 23.0504L124.77 23.8144L124.988 22.0245V19.3833H123.548V22.0245L123.766 23.8144L122.129 23.0504L119.597 22.2646L119.182 23.5961L121.671 24.4256L123.46 24.7748L122.216 26.1064L120.688 28.2455L121.823 29.075L123.395 26.9577L124.268 25.3642L125.141 26.9577L126.713 29.075L127.848 28.2455L126.32 26.1064L125.076 24.7748Z" fill="#A6B7FF"/>
<path d="M125.076 44.1583L126.866 43.809L129.354 42.9796L128.939 41.648L126.407 42.4338L124.77 43.1978L124.988 41.4079V38.7667H123.548V41.4079L123.766 43.1978L122.129 42.4338L119.597 41.648L119.182 42.9796L121.671 43.809L123.46 44.1583L122.216 45.4898L120.688 47.6289L121.823 48.4584L123.395 46.3411L124.268 44.7476L125.141 46.3411L126.713 48.4584L127.848 47.6289L126.32 45.4898L125.076 44.1583Z" fill="#A6B7FF"/>
<path d="M125.076 63.5417L126.866 63.1924L129.354 62.363L128.939 61.0315L126.407 61.8173L124.77 62.5813L124.988 60.7913V58.1501H123.548V60.7913L123.766 62.5813L122.129 61.8173L119.597 61.0315L119.182 62.363L121.671 63.1924L123.46 63.5417L122.216 64.8732L120.688 67.0124L121.823 67.8418L123.395 65.7245L124.268 64.1311L125.141 65.7245L126.713 67.8418L127.848 67.0124L126.32 64.8732L125.076 63.5417Z" fill="#A6B7FF"/>
<path d="M125.076 82.925L126.866 82.5757L129.354 81.7463L128.939 80.4148L126.407 81.2006L124.77 81.9646L124.988 80.1746V77.5334H123.548V80.1746L123.766 81.9646L122.129 81.2006L119.597 80.4148L119.182 81.7463L121.671 82.5757L123.46 82.925L122.216 84.2565L120.688 86.3957L121.823 87.2251L123.395 85.1078L124.268 83.5144L125.141 85.1078L126.713 87.2251L127.848 86.3957L126.32 84.2565L125.076 82.925Z" fill="#A6B7FF"/>
<path d="M125.076 102.308L126.866 101.959L129.354 101.13L128.939 99.7982L126.407 100.584L124.77 101.348L124.988 99.5581V96.9169H123.548V99.5581L123.766 101.348L122.129 100.584L119.597 99.7982L119.182 101.13L121.671 101.959L123.46 102.308L122.216 103.64L120.688 105.779L121.823 106.609L123.395 104.491L124.268 102.898L125.141 104.491L126.713 106.609L127.848 105.779L126.32 103.64L125.076 102.308Z" fill="#A6B7FF"/>
<path d="M125.076 121.692L126.866 121.342L129.354 120.513L128.939 119.181L126.407 119.967L124.77 120.731L124.988 118.941V116.3H123.548V118.941L123.766 120.731L122.129 119.967L119.597 119.181L119.182 120.513L121.671 121.342L123.46 121.692L122.216 123.023L120.688 125.162L121.823 125.992L123.395 123.875L124.268 122.281L125.141 123.875L126.713 125.992L127.848 125.162L126.32 123.023L125.076 121.692Z" fill="#A6B7FF"/>
<path d="M125.076 141.075L126.866 140.726L129.354 139.896L128.939 138.565L126.407 139.351L124.77 140.115L124.988 138.325V135.684H123.548V138.325L123.766 140.115L122.129 139.351L119.597 138.565L119.182 139.896L121.671 140.726L123.46 141.075L122.216 142.407L120.688 144.546L121.823 145.375L123.395 143.258L124.268 141.664L125.141 143.258L126.713 145.375L127.848 144.546L126.32 142.407L125.076 141.075Z" fill="#A6B7FF"/>
<path d="M125.076 160.458L126.866 160.109L129.354 159.28L128.939 157.948L126.407 158.734L124.77 159.498L124.988 157.708V155.067H123.548V157.708L123.766 159.498L122.129 158.734L119.597 157.948L119.182 159.28L121.671 160.109L123.46 160.458L122.216 161.79L120.688 163.929L121.823 164.759L123.395 162.641L124.268 161.048L125.141 162.641L126.713 164.759L127.848 163.929L126.32 161.79L125.076 160.458Z" fill="#A6B7FF"/>
<path d="M125.076 179.842L126.866 179.493L129.354 178.663L128.939 177.332L126.407 178.117L124.77 178.881L124.988 177.092V174.45H123.548V177.092L123.766 178.881L122.129 178.117L119.597 177.332L119.182 178.663L121.671 179.493L123.46 179.842L122.216 181.173L120.688 183.313L121.823 184.142L123.395 182.025L124.268 180.431L125.141 182.025L126.713 184.142L127.848 183.313L126.32 181.173L125.076 179.842Z" fill="#A6B7FF"/>
<path d="M144.94 5.39154L146.73 5.04229L149.218 4.21283L148.803 2.88131L146.271 3.66712L144.634 4.43111L144.852 2.6412V0H143.412V2.6412L143.63 4.43111L141.993 3.66712L139.461 2.88131L139.046 4.21283L141.535 5.04229L143.324 5.39154L142.08 6.72306L140.552 8.86222L141.687 9.69168L143.259 7.57436L144.132 5.9809L145.005 7.57436L146.577 9.69168L147.712 8.86222L146.184 6.72306L144.94 5.39154Z" fill="#A6B7FF"/>
<path d="M144.94 24.7748L146.73 24.4256L149.218 23.5961L148.803 22.2646L146.271 23.0504L144.634 23.8144L144.852 22.0245V19.3833H143.412V22.0245L143.63 23.8144L141.993 23.0504L139.461 22.2646L139.046 23.5961L141.535 24.4256L143.324 24.7748L142.08 26.1064L140.552 28.2455L141.687 29.075L143.259 26.9577L144.132 25.3642L145.005 26.9577L146.577 29.075L147.712 28.2455L146.184 26.1064L144.94 24.7748Z" fill="#A6B7FF"/>
<path d="M144.94 44.1583L146.73 43.809L149.218 42.9796L148.803 41.648L146.271 42.4338L144.634 43.1978L144.852 41.4079V38.7667H143.412V41.4079L143.63 43.1978L141.993 42.4338L139.461 41.648L139.046 42.9796L141.535 43.809L143.324 44.1583L142.08 45.4898L140.552 47.6289L141.687 48.4584L143.259 46.3411L144.132 44.7476L145.005 46.3411L146.577 48.4584L147.712 47.6289L146.184 45.4898L144.94 44.1583Z" fill="#A6B7FF"/>
<path d="M144.94 63.5417L146.73 63.1924L149.218 62.363L148.803 61.0315L146.271 61.8173L144.634 62.5813L144.852 60.7913V58.1501H143.412V60.7913L143.63 62.5813L141.993 61.8173L139.461 61.0315L139.046 62.363L141.535 63.1924L143.324 63.5417L142.08 64.8732L140.552 67.0124L141.687 67.8418L143.259 65.7245L144.132 64.1311L145.005 65.7245L146.577 67.8418L147.712 67.0124L146.184 64.8732L144.94 63.5417Z" fill="#A6B7FF"/>
<path d="M144.94 82.925L146.73 82.5757L149.218 81.7463L148.803 80.4148L146.271 81.2006L144.634 81.9646L144.852 80.1746V77.5334H143.412V80.1746L143.63 81.9646L141.993 81.2006L139.461 80.4148L139.046 81.7463L141.535 82.5757L143.324 82.925L142.08 84.2565L140.552 86.3957L141.687 87.2251L143.259 85.1078L144.132 83.5144L145.005 85.1078L146.577 87.2251L147.712 86.3957L146.184 84.2565L144.94 82.925Z" fill="#A6B7FF"/>
<path d="M144.94 102.308L146.73 101.959L149.218 101.13L148.803 99.7982L146.271 100.584L144.634 101.348L144.852 99.5581V96.9169H143.412V99.5581L143.63 101.348L141.993 100.584L139.461 99.7982L139.046 101.13L141.535 101.959L143.324 102.308L142.08 103.64L140.552 105.779L141.687 106.609L143.259 104.491L144.132 102.898L145.005 104.491L146.577 106.609L147.712 105.779L146.184 103.64L144.94 102.308Z" fill="#A6B7FF"/>
<path d="M144.94 121.692L146.73 121.342L149.218 120.513L148.803 119.181L146.271 119.967L144.634 120.731L144.852 118.941V116.3H143.412V118.941L143.63 120.731L141.993 119.967L139.461 119.181L139.046 120.513L141.535 121.342L143.324 121.692L142.08 123.023L140.552 125.162L141.687 125.992L143.259 123.875L144.132 122.281L145.005 123.875L146.577 125.992L147.712 125.162L146.184 123.023L144.94 121.692Z" fill="#A6B7FF"/>
<path d="M144.94 141.075L146.73 140.726L149.218 139.896L148.803 138.565L146.271 139.351L144.634 140.115L144.852 138.325V135.684H143.412V138.325L143.63 140.115L141.993 139.351L139.461 138.565L139.046 139.896L141.535 140.726L143.324 141.075L142.08 142.407L140.552 144.546L141.687 145.375L143.259 143.258L144.132 141.664L145.005 143.258L146.577 145.375L147.712 144.546L146.184 142.407L144.94 141.075Z" fill="#A6B7FF"/>
<path d="M144.94 160.458L146.73 160.109L149.218 159.28L148.803 157.948L146.271 158.734L144.634 159.498L144.852 157.708V155.067H143.412V157.708L143.63 159.498L141.993 158.734L139.461 157.948L139.046 159.28L141.535 160.109L143.324 160.458L142.08 161.79L140.552 163.929L141.687 164.759L143.259 162.641L144.132 161.048L145.005 162.641L146.577 164.759L147.712 163.929L146.184 161.79L144.94 160.458Z" fill="#A6B7FF"/>
<path d="M144.94 179.842L146.73 179.493L149.218 178.663L148.803 177.332L146.271 178.117L144.634 178.881L144.852 177.092V174.45H143.412V177.092L143.63 178.881L141.993 178.117L139.461 177.332L139.046 178.663L141.535 179.493L143.324 179.842L142.08 181.173L140.552 183.313L141.687 184.142L143.259 182.025L144.132 180.431L145.005 182.025L146.577 184.142L147.712 183.313L146.184 181.173L144.94 179.842Z" fill="#A6B7FF"/>
<path d="M164.803 5.39154L166.593 5.04229L169.081 4.21283L168.667 2.88131L166.135 3.66712L164.497 4.43111L164.716 2.6412V0H163.275V2.6412L163.493 4.43111L161.856 3.66712L159.324 2.88131L158.909 4.21283L161.398 5.04229L163.188 5.39154L161.944 6.72306L160.416 8.86222L161.551 9.69168L163.122 7.57436L163.995 5.9809L164.868 7.57436L166.44 9.69168L167.575 8.86222L166.047 6.72306L164.803 5.39154Z" fill="#A6B7FF"/>
<path d="M164.803 24.7748L166.593 24.4256L169.081 23.5961L168.667 22.2646L166.135 23.0504L164.497 23.8144L164.716 22.0245V19.3833H163.275V22.0245L163.493 23.8144L161.856 23.0504L159.324 22.2646L158.909 23.5961L161.398 24.4256L163.188 24.7748L161.944 26.1064L160.416 28.2455L161.551 29.075L163.122 26.9577L163.995 25.3642L164.868 26.9577L166.44 29.075L167.575 28.2455L166.047 26.1064L164.803 24.7748Z" fill="#A6B7FF"/>
<path d="M164.803 44.1583L166.593 43.809L169.081 42.9796L168.667 41.648L166.135 42.4338L164.497 43.1978L164.716 41.4079V38.7667H163.275V41.4079L163.493 43.1978L161.856 42.4338L159.324 41.648L158.909 42.9796L161.398 43.809L163.188 44.1583L161.944 45.4898L160.416 47.6289L161.551 48.4584L163.122 46.3411L163.995 44.7476L164.868 46.3411L166.44 48.4584L167.575 47.6289L166.047 45.4898L164.803 44.1583Z" fill="#A6B7FF"/>
<path d="M164.803 63.5417L166.593 63.1924L169.081 62.363L168.667 61.0315L166.135 61.8173L164.497 62.5813L164.716 60.7913V58.1501H163.275V60.7913L163.493 62.5813L161.856 61.8173L159.324 61.0315L158.909 62.363L161.398 63.1924L163.188 63.5417L161.944 64.8732L160.416 67.0124L161.551 67.8418L163.122 65.7245L163.995 64.1311L164.868 65.7245L166.44 67.8418L167.575 67.0124L166.047 64.8732L164.803 63.5417Z" fill="#A6B7FF"/>
<path d="M164.803 82.925L166.593 82.5757L169.081 81.7463L168.667 80.4148L166.135 81.2006L164.497 81.9646L164.716 80.1746V77.5334H163.275V80.1746L163.493 81.9646L161.856 81.2006L159.324 80.4148L158.909 81.7463L161.398 82.5757L163.188 82.925L161.944 84.2565L160.416 86.3957L161.551 87.2251L163.122 85.1078L163.995 83.5144L164.868 85.1078L166.44 87.2251L167.575 86.3957L166.047 84.2565L164.803 82.925Z" fill="#A6B7FF"/>
<path d="M164.803 102.308L166.593 101.959L169.081 101.13L168.667 99.7982L166.135 100.584L164.497 101.348L164.716 99.5581V96.9169H163.275V99.5581L163.493 101.348L161.856 100.584L159.324 99.7982L158.909 101.13L161.398 101.959L163.188 102.308L161.944 103.64L160.416 105.779L161.551 106.609L163.122 104.491L163.995 102.898L164.868 104.491L166.44 106.609L167.575 105.779L166.047 103.64L164.803 102.308Z" fill="#A6B7FF"/>
<path d="M164.803 121.692L166.593 121.342L169.081 120.513L168.667 119.181L166.135 119.967L164.497 120.731L164.716 118.941V116.3H163.275V118.941L163.493 120.731L161.856 119.967L159.324 119.181L158.909 120.513L161.398 121.342L163.188 121.692L161.944 123.023L160.416 125.162L161.551 125.992L163.122 123.875L163.995 122.281L164.868 123.875L166.44 125.992L167.575 125.162L166.047 123.023L164.803 121.692Z" fill="#A6B7FF"/>
<path d="M164.803 141.075L166.593 140.726L169.081 139.896L168.667 138.565L166.135 139.351L164.497 140.115L164.716 138.325V135.684H163.275V138.325L163.493 140.115L161.856 139.351L159.324 138.565L158.909 139.896L161.398 140.726L163.188 141.075L161.944 142.407L160.416 144.546L161.551 145.375L163.122 143.258L163.995 141.664L164.868 143.258L166.44 145.375L167.575 144.546L166.047 142.407L164.803 141.075Z" fill="#A6B7FF"/>
<path d="M164.803 160.458L166.593 160.109L169.081 159.28L168.667 157.948L166.135 158.734L164.497 159.498L164.716 157.708V155.067H163.275V157.708L163.493 159.498L161.856 158.734L159.324 157.948L158.909 159.28L161.398 160.109L163.188 160.458L161.944 161.79L160.416 163.929L161.551 164.759L163.122 162.641L163.995 161.048L164.868 162.641L166.44 164.759L167.575 163.929L166.047 161.79L164.803 160.458Z" fill="#A6B7FF"/>
<path d="M164.803 179.842L166.593 179.493L169.081 178.663L168.667 177.332L166.135 178.117L164.497 178.881L164.716 177.092V174.45H163.275V177.092L163.493 178.881L161.856 178.117L159.324 177.332L158.909 178.663L161.398 179.493L163.188 179.842L161.944 181.173L160.416 183.313L161.551 184.142L163.122 182.025L163.995 180.431L164.868 182.025L166.44 184.142L167.575 183.313L166.047 181.173L164.803 179.842Z" fill="#A6B7FF"/>
<path d="M125.076 199.225L126.866 198.876L129.354 198.047L128.939 196.715L126.407 197.501L124.77 198.265L124.988 196.475V193.834H123.548V196.475L123.766 198.265L122.129 197.501L119.597 196.715L119.182 198.047L121.671 198.876L123.46 199.225L122.216 200.557L120.688 202.696L121.823 203.525L123.395 201.408L124.268 199.815L125.141 201.408L126.713 203.525L127.848 202.696L126.32 200.557L125.076 199.225Z" fill="#A6B7FF"/>
<path d="M125.076 218.609L126.866 218.259L129.354 217.43L128.939 216.098L126.407 216.884L124.77 217.648L124.988 215.858V213.217H123.548V215.858L123.766 217.648L122.129 216.884L119.597 216.098L119.182 217.43L121.671 218.259L123.46 218.609L122.216 219.94L120.688 222.079L121.823 222.909L123.395 220.791L124.268 219.198L125.141 220.791L126.713 222.909L127.848 222.079L126.32 219.94L125.076 218.609Z" fill="#A6B7FF"/>
<path d="M125.076 237.992L126.866 237.643L129.354 236.813L128.939 235.482L126.407 236.268L124.77 237.032L124.988 235.242V232.6H123.548V235.242L123.766 237.032L122.129 236.268L119.597 235.482L119.182 236.813L121.671 237.643L123.46 237.992L122.216 239.324L120.688 241.463L121.823 242.292L123.395 240.175L124.268 238.581L125.141 240.175L126.713 242.292L127.848 241.463L126.32 239.324L125.076 237.992Z" fill="#A6B7FF"/>
<path d="M125.076 257.375L126.866 257.026L129.354 256.197L128.939 254.865L126.407 255.651L124.77 256.415L124.988 254.625V251.984H123.548V254.625L123.766 256.415L122.129 255.651L119.597 254.865L119.182 256.197L121.671 257.026L123.46 257.375L122.216 258.707L120.688 260.846L121.823 261.675L123.395 259.558L124.268 257.965L125.141 259.558L126.713 261.675L127.848 260.846L126.32 258.707L125.076 257.375Z" fill="#A6B7FF"/>
<path d="M125.076 276.759L126.866 276.409L129.354 275.58L128.939 274.248L126.407 275.034L124.77 275.798L124.988 274.008V271.367H123.548V274.008L123.766 275.798L122.129 275.034L119.597 274.248L119.182 275.58L121.671 276.409L123.46 276.759L122.216 278.09L120.688 280.229L121.823 281.059L123.395 278.942L124.268 277.348L125.141 278.942L126.713 281.059L127.848 280.229L126.32 278.09L125.076 276.759Z" fill="#A6B7FF"/>
<path d="M125.076 296.142L126.866 295.793L129.354 294.963L128.939 293.632L126.407 294.418L124.77 295.182L124.988 293.392V290.75H123.548V293.392L123.766 295.182L122.129 294.418L119.597 293.632L119.182 294.963L121.671 295.793L123.46 296.142L122.216 297.474L120.688 299.613L121.823 300.442L123.395 298.325L124.268 296.731L125.141 298.325L126.713 300.442L127.848 299.613L126.32 297.474L125.076 296.142Z" fill="#A6B7FF"/>
<path d="M125.076 315.525L126.866 315.176L129.354 314.347L128.939 313.015L126.407 313.801L124.77 314.565L124.988 312.775V310.134H123.548V312.775L123.766 314.565L122.129 313.801L119.597 313.015L119.182 314.347L121.671 315.176L123.46 315.525L122.216 316.857L120.688 318.996L121.823 319.825L123.395 317.708L124.268 316.115L125.141 317.708L126.713 319.825L127.848 318.996L126.32 316.857L125.076 315.525Z" fill="#A6B7FF"/>
<path d="M125.076 334.909L126.866 334.56L129.354 333.73L128.939 332.399L126.407 333.184L124.77 333.948L124.988 332.158V329.517H123.548V332.158L123.766 333.948L122.129 333.184L119.597 332.399L119.182 333.73L121.671 334.56L123.46 334.909L122.216 336.24L120.688 338.379L121.823 339.209L123.395 337.092L124.268 335.498L125.141 337.092L126.713 339.209L127.848 338.379L126.32 336.24L125.076 334.909Z" fill="#A6B7FF"/>
<path d="M125.076 354.292L126.866 353.943L129.354 353.113L128.939 351.782L126.407 352.568L124.77 353.332L124.988 351.542V348.901H123.548V351.542L123.766 353.332L122.129 352.568L119.597 351.782L119.182 353.113L121.671 353.943L123.46 354.292L122.216 355.624L120.688 357.763L121.823 358.592L123.395 356.475L124.268 354.882L125.141 356.475L126.713 358.592L127.848 357.763L126.32 355.624L125.076 354.292Z" fill="#A6B7FF"/>
<path d="M125.076 373.675L126.866 373.326L129.354 372.497L128.939 371.165L126.407 371.951L124.77 372.715L124.988 370.925V368.284H123.548V370.925L123.766 372.715L122.129 371.951L119.597 371.165L119.182 372.497L121.671 373.326L123.46 373.675L122.216 375.007L120.688 377.146L121.823 377.976L123.395 375.858L124.268 374.265L125.141 375.858L126.713 377.976L127.848 377.146L126.32 375.007L125.076 373.675Z" fill="#A6B7FF"/>
<path d="M144.94 199.225L146.73 198.876L149.218 198.047L148.803 196.715L146.271 197.501L144.634 198.265L144.852 196.475V193.834H143.412V196.475L143.63 198.265L141.993 197.501L139.461 196.715L139.046 198.047L141.535 198.876L143.324 199.225L142.08 200.557L140.552 202.696L141.687 203.525L143.259 201.408L144.132 199.815L145.005 201.408L146.577 203.525L147.712 202.696L146.184 200.557L144.94 199.225Z" fill="#A6B7FF"/>
<path d="M144.94 218.609L146.73 218.259L149.218 217.43L148.803 216.098L146.271 216.884L144.634 217.648L144.852 215.858V213.217H143.412V215.858L143.63 217.648L141.993 216.884L139.461 216.098L139.046 217.43L141.535 218.259L143.324 218.609L142.08 219.94L140.552 222.079L141.687 222.909L143.259 220.791L144.132 219.198L145.005 220.791L146.577 222.909L147.712 222.079L146.184 219.94L144.94 218.609Z" fill="#A6B7FF"/>
<path d="M144.94 237.992L146.73 237.643L149.218 236.813L148.803 235.482L146.271 236.268L144.634 237.032L144.852 235.242V232.6H143.412V235.242L143.63 237.032L141.993 236.268L139.461 235.482L139.046 236.813L141.535 237.643L143.324 237.992L142.08 239.324L140.552 241.463L141.687 242.292L143.259 240.175L144.132 238.581L145.005 240.175L146.577 242.292L147.712 241.463L146.184 239.324L144.94 237.992Z" fill="#A6B7FF"/>
<path d="M144.94 257.375L146.73 257.026L149.218 256.197L148.803 254.865L146.271 255.651L144.634 256.415L144.852 254.625V251.984H143.412V254.625L143.63 256.415L141.993 255.651L139.461 254.865L139.046 256.197L141.535 257.026L143.324 257.375L142.08 258.707L140.552 260.846L141.687 261.675L143.259 259.558L144.132 257.965L145.005 259.558L146.577 261.675L147.712 260.846L146.184 258.707L144.94 257.375Z" fill="#A6B7FF"/>
<path d="M144.94 276.759L146.73 276.409L149.218 275.58L148.803 274.248L146.271 275.034L144.634 275.798L144.852 274.008V271.367H143.412V274.008L143.63 275.798L141.993 275.034L139.461 274.248L139.046 275.58L141.535 276.409L143.324 276.759L142.08 278.09L140.552 280.229L141.687 281.059L143.259 278.942L144.132 277.348L145.005 278.942L146.577 281.059L147.712 280.229L146.184 278.09L144.94 276.759Z" fill="#A6B7FF"/>
<path d="M144.94 296.142L146.73 295.793L149.218 294.963L148.803 293.632L146.271 294.418L144.634 295.182L144.852 293.392V290.75H143.412V293.392L143.63 295.182L141.993 294.418L139.461 293.632L139.046 294.963L141.535 295.793L143.324 296.142L142.08 297.474L140.552 299.613L141.687 300.442L143.259 298.325L144.132 296.731L145.005 298.325L146.577 300.442L147.712 299.613L146.184 297.474L144.94 296.142Z" fill="#A6B7FF"/>
<path d="M144.94 315.525L146.73 315.176L149.218 314.347L148.803 313.015L146.271 313.801L144.634 314.565L144.852 312.775V310.134H143.412V312.775L143.63 314.565L141.993 313.801L139.461 313.015L139.046 314.347L141.535 315.176L143.324 315.525L142.08 316.857L140.552 318.996L141.687 319.825L143.259 317.708L144.132 316.115L145.005 317.708L146.577 319.825L147.712 318.996L146.184 316.857L144.94 315.525Z" fill="#A6B7FF"/>
<path d="M144.94 334.909L146.73 334.56L149.218 333.73L148.803 332.399L146.271 333.184L144.634 333.948L144.852 332.158V329.517H143.412V332.158L143.63 333.948L141.993 333.184L139.461 332.399L139.046 333.73L141.535 334.56L143.324 334.909L142.08 336.24L140.552 338.379L141.687 339.209L143.259 337.092L144.132 335.498L145.005 337.092L146.577 339.209L147.712 338.379L146.184 336.24L144.94 334.909Z" fill="#A6B7FF"/>
<path d="M144.94 354.292L146.73 353.943L149.218 353.113L148.803 351.782L146.271 352.568L144.634 353.332L144.852 351.542V348.901H143.412V351.542L143.63 353.332L141.993 352.568L139.461 351.782L139.046 353.113L141.535 353.943L143.324 354.292L142.08 355.624L140.552 357.763L141.687 358.592L143.259 356.475L144.132 354.882L145.005 356.475L146.577 358.592L147.712 357.763L146.184 355.624L144.94 354.292Z" fill="#A6B7FF"/>
<path d="M144.94 373.675L146.73 373.326L149.218 372.497L148.803 371.165L146.271 371.951L144.634 372.715L144.852 370.925V368.284H143.412V370.925L143.63 372.715L141.993 371.951L139.461 371.165L139.046 372.497L141.535 373.326L143.324 373.675L142.08 375.007L140.552 377.146L141.687 377.976L143.259 375.858L144.132 374.265L145.005 375.858L146.577 377.976L147.712 377.146L146.184 375.007L144.94 373.675Z" fill="#A6B7FF"/>
<path d="M164.803 199.225L166.593 198.876L169.081 198.047L168.667 196.715L166.135 197.501L164.497 198.265L164.716 196.475V193.834H163.275V196.475L163.493 198.265L161.856 197.501L159.324 196.715L158.909 198.047L161.398 198.876L163.188 199.225L161.944 200.557L160.416 202.696L161.551 203.525L163.122 201.408L163.995 199.815L164.868 201.408L166.44 203.525L167.575 202.696L166.047 200.557L164.803 199.225Z" fill="#A6B7FF"/>
<path d="M164.803 218.609L166.593 218.259L169.081 217.43L168.667 216.098L166.135 216.884L164.497 217.648L164.716 215.858V213.217H163.275V215.858L163.493 217.648L161.856 216.884L159.324 216.098L158.909 217.43L161.398 218.259L163.188 218.609L161.944 219.94L160.416 222.079L161.551 222.909L163.122 220.791L163.995 219.198L164.868 220.791L166.44 222.909L167.575 222.079L166.047 219.94L164.803 218.609Z" fill="#A6B7FF"/>
<path d="M164.803 237.992L166.593 237.643L169.081 236.813L168.667 235.482L166.135 236.268L164.497 237.032L164.716 235.242V232.6H163.275V235.242L163.493 237.032L161.856 236.268L159.324 235.482L158.909 236.813L161.398 237.643L163.188 237.992L161.944 239.324L160.416 241.463L161.551 242.292L163.122 240.175L163.995 238.581L164.868 240.175L166.44 242.292L167.575 241.463L166.047 239.324L164.803 237.992Z" fill="#A6B7FF"/>
<path d="M164.803 257.375L166.593 257.026L169.081 256.197L168.667 254.865L166.135 255.651L164.497 256.415L164.716 254.625V251.984H163.275V254.625L163.493 256.415L161.856 255.651L159.324 254.865L158.909 256.197L161.398 257.026L163.188 257.375L161.944 258.707L160.416 260.846L161.551 261.675L163.122 259.558L163.995 257.965L164.868 259.558L166.44 261.675L167.575 260.846L166.047 258.707L164.803 257.375Z" fill="#A6B7FF"/>
<path d="M164.803 276.759L166.593 276.409L169.081 275.58L168.667 274.248L166.135 275.034L164.497 275.798L164.716 274.008V271.367H163.275V274.008L163.493 275.798L161.856 275.034L159.324 274.248L158.909 275.58L161.398 276.409L163.188 276.759L161.944 278.09L160.416 280.229L161.551 281.059L163.122 278.942L163.995 277.348L164.868 278.942L166.44 281.059L167.575 280.229L166.047 278.09L164.803 276.759Z" fill="#A6B7FF"/>
<path d="M164.803 296.142L166.593 295.793L169.081 294.963L168.667 293.632L166.135 294.418L164.497 295.182L164.716 293.392V290.75H163.275V293.392L163.493 295.182L161.856 294.418L159.324 293.632L158.909 294.963L161.398 295.793L163.188 296.142L161.944 297.474L160.416 299.613L161.551 300.442L163.122 298.325L163.995 296.731L164.868 298.325L166.44 300.442L167.575 299.613L166.047 297.474L164.803 296.142Z" fill="#A6B7FF"/>
<path d="M164.803 315.525L166.593 315.176L169.081 314.347L168.667 313.015L166.135 313.801L164.497 314.565L164.716 312.775V310.134H163.275V312.775L163.493 314.565L161.856 313.801L159.324 313.015L158.909 314.347L161.398 315.176L163.188 315.525L161.944 316.857L160.416 318.996L161.551 319.825L163.122 317.708L163.995 316.115L164.868 317.708L166.44 319.825L167.575 318.996L166.047 316.857L164.803 315.525Z" fill="#A6B7FF"/>
<path d="M164.803 334.909L166.593 334.56L169.081 333.73L168.667 332.399L166.135 333.184L164.497 333.948L164.716 332.158V329.517H163.275V332.158L163.493 333.948L161.856 333.184L159.324 332.399L158.909 333.73L161.398 334.56L163.188 334.909L161.944 336.24L160.416 338.379L161.551 339.209L163.122 337.092L163.995 335.498L164.868 337.092L166.44 339.209L167.575 338.379L166.047 336.24L164.803 334.909Z" fill="#A6B7FF"/>
<path d="M164.803 354.292L166.593 353.943L169.081 353.113L168.667 351.782L166.135 352.568L164.497 353.332L164.716 351.542V348.901H163.275V351.542L163.493 353.332L161.856 352.568L159.324 351.782L158.909 353.113L161.398 353.943L163.188 354.292L161.944 355.624L160.416 357.763L161.551 358.592L163.122 356.475L163.995 354.882L164.868 356.475L166.44 358.592L167.575 357.763L166.047 355.624L164.803 354.292Z" fill="#A6B7FF"/>
<path d="M164.803 373.675L166.593 373.326L169.081 372.497L168.667 371.165L166.135 371.951L164.497 372.715L164.716 370.925V368.284H163.275V370.925L163.493 372.715L161.856 371.951L159.324 371.165L158.909 372.497L161.398 373.326L163.188 373.675L161.944 375.007L160.416 377.146L161.551 377.976L163.122 375.858L163.995 374.265L164.868 375.858L166.44 377.976L167.575 377.146L166.047 375.007L164.803 373.675Z" fill="#A6B7FF"/>
<path d="M184.667 5.39154L186.457 5.04229L188.945 4.21283L188.531 2.88131L185.999 3.66712L184.361 4.43111L184.58 2.6412V0H183.139V2.6412L183.357 4.43111L181.72 3.66712L179.188 2.88131L178.773 4.21283L181.262 5.04229L183.052 5.39154L181.808 6.72306L180.28 8.86222L181.415 9.69168L182.986 7.57436L183.859 5.9809L184.733 7.57436L186.304 9.69168L187.439 8.86222L185.911 6.72306L184.667 5.39154Z" fill="#A6B7FF"/>
<path d="M184.667 24.7748L186.457 24.4256L188.945 23.5961L188.531 22.2646L185.999 23.0504L184.361 23.8144L184.58 22.0245V19.3833H183.139V22.0245L183.357 23.8144L181.72 23.0504L179.188 22.2646L178.773 23.5961L181.262 24.4256L183.052 24.7748L181.808 26.1064L180.28 28.2455L181.415 29.075L182.986 26.9577L183.859 25.3642L184.733 26.9577L186.304 29.075L187.439 28.2455L185.911 26.1064L184.667 24.7748Z" fill="#A6B7FF"/>
<path d="M184.667 44.1583L186.457 43.809L188.945 42.9796L188.531 41.648L185.999 42.4338L184.361 43.1978L184.58 41.4079V38.7667H183.139V41.4079L183.357 43.1978L181.72 42.4338L179.188 41.648L178.773 42.9796L181.262 43.809L183.052 44.1583L181.808 45.4898L180.28 47.6289L181.415 48.4584L182.986 46.3411L183.859 44.7476L184.733 46.3411L186.304 48.4584L187.439 47.6289L185.911 45.4898L184.667 44.1583Z" fill="#A6B7FF"/>
<path d="M184.667 63.5417L186.457 63.1924L188.945 62.363L188.531 61.0315L185.999 61.8173L184.361 62.5813L184.58 60.7913V58.1501H183.139V60.7913L183.357 62.5813L181.72 61.8173L179.188 61.0315L178.773 62.363L181.262 63.1924L183.052 63.5417L181.808 64.8732L180.28 67.0124L181.415 67.8418L182.986 65.7245L183.859 64.1311L184.733 65.7245L186.304 67.8418L187.439 67.0124L185.911 64.8732L184.667 63.5417Z" fill="#A6B7FF"/>
<path d="M184.667 82.925L186.457 82.5757L188.945 81.7463L188.531 80.4148L185.999 81.2006L184.361 81.9646L184.58 80.1746V77.5334H183.139V80.1746L183.357 81.9646L181.72 81.2006L179.188 80.4148L178.773 81.7463L181.262 82.5757L183.052 82.925L181.808 84.2565L180.28 86.3957L181.415 87.2251L182.986 85.1078L183.859 83.5144L184.733 85.1078L186.304 87.2251L187.439 86.3957L185.911 84.2565L184.667 82.925Z" fill="#A6B7FF"/>
<path d="M184.667 102.308L186.457 101.959L188.945 101.13L188.531 99.7982L185.999 100.584L184.361 101.348L184.58 99.5581V96.9169H183.139V99.5581L183.357 101.348L181.72 100.584L179.188 99.7982L178.773 101.13L181.262 101.959L183.052 102.308L181.808 103.64L180.28 105.779L181.415 106.609L182.986 104.491L183.859 102.898L184.733 104.491L186.304 106.609L187.439 105.779L185.911 103.64L184.667 102.308Z" fill="#A6B7FF"/>
<path d="M184.667 121.692L186.457 121.342L188.945 120.513L188.531 119.181L185.999 119.967L184.361 120.731L184.58 118.941V116.3H183.139V118.941L183.357 120.731L181.72 119.967L179.188 119.181L178.773 120.513L181.262 121.342L183.052 121.692L181.808 123.023L180.28 125.162L181.415 125.992L182.986 123.875L183.859 122.281L184.733 123.875L186.304 125.992L187.439 125.162L185.911 123.023L184.667 121.692Z" fill="#A6B7FF"/>
<path d="M184.667 141.075L186.457 140.726L188.945 139.896L188.531 138.565L185.999 139.351L184.361 140.115L184.58 138.325V135.684H183.139V138.325L183.357 140.115L181.72 139.351L179.188 138.565L178.773 139.896L181.262 140.726L183.052 141.075L181.808 142.407L180.28 144.546L181.415 145.375L182.986 143.258L183.859 141.664L184.733 143.258L186.304 145.375L187.439 144.546L185.911 142.407L184.667 141.075Z" fill="#A6B7FF"/>
<path d="M184.667 160.458L186.457 160.109L188.945 159.28L188.531 157.948L185.999 158.734L184.361 159.498L184.58 157.708V155.067H183.139V157.708L183.357 159.498L181.72 158.734L179.188 157.948L178.773 159.28L181.262 160.109L183.052 160.458L181.808 161.79L180.28 163.929L181.415 164.759L182.986 162.641L183.859 161.048L184.733 162.641L186.304 164.759L187.439 163.929L185.911 161.79L184.667 160.458Z" fill="#A6B7FF"/>
<path d="M184.667 179.842L186.457 179.493L188.945 178.663L188.531 177.332L185.999 178.117L184.361 178.881L184.58 177.092V174.45H183.139V177.092L183.357 178.881L181.72 178.117L179.188 177.332L178.773 178.663L181.262 179.493L183.052 179.842L181.808 181.173L180.28 183.313L181.415 184.142L182.986 182.025L183.859 180.431L184.733 182.025L186.304 184.142L187.439 183.313L185.911 181.173L184.667 179.842Z" fill="#A6B7FF"/>
<path d="M204.531 5.39154L206.32 5.04229L208.809 4.21283L208.394 2.88131L205.862 3.66712L204.225 4.43111L204.443 2.6412V0H203.003V2.6412L203.221 4.43111L201.584 3.66712L199.052 2.88131L198.637 4.21283L201.125 5.04229L202.915 5.39154L201.671 6.72306L200.143 8.86222L201.278 9.69168L202.85 7.57436L203.723 5.9809L204.596 7.57436L206.168 9.69168L207.303 8.86222L205.775 6.72306L204.531 5.39154Z" fill="#A6B7FF"/>
<path d="M204.531 24.7748L206.32 24.4256L208.809 23.5961L208.394 22.2646L205.862 23.0504L204.225 23.8144L204.443 22.0245V19.3833H203.003V22.0245L203.221 23.8144L201.584 23.0504L199.052 22.2646L198.637 23.5961L201.125 24.4256L202.915 24.7748L201.671 26.1064L200.143 28.2455L201.278 29.075L202.85 26.9577L203.723 25.3642L204.596 26.9577L206.168 29.075L207.303 28.2455L205.775 26.1064L204.531 24.7748Z" fill="#A6B7FF"/>
<path d="M204.531 44.1583L206.32 43.809L208.809 42.9796L208.394 41.648L205.862 42.4338L204.225 43.1978L204.443 41.4079V38.7667H203.003V41.4079L203.221 43.1978L201.584 42.4338L199.052 41.648L198.637 42.9796L201.125 43.809L202.915 44.1583L201.671 45.4898L200.143 47.6289L201.278 48.4584L202.85 46.3411L203.723 44.7476L204.596 46.3411L206.168 48.4584L207.303 47.6289L205.775 45.4898L204.531 44.1583Z" fill="#A6B7FF"/>
<path d="M204.531 63.5417L206.32 63.1924L208.809 62.363L208.394 61.0315L205.862 61.8173L204.225 62.5813L204.443 60.7913V58.1501H203.003V60.7913L203.221 62.5813L201.584 61.8173L199.052 61.0315L198.637 62.363L201.125 63.1924L202.915 63.5417L201.671 64.8732L200.143 67.0124L201.278 67.8418L202.85 65.7245L203.723 64.1311L204.596 65.7245L206.168 67.8418L207.303 67.0124L205.775 64.8732L204.531 63.5417Z" fill="#A6B7FF"/>
<path d="M204.531 82.925L206.32 82.5757L208.809 81.7463L208.394 80.4148L205.862 81.2006L204.225 81.9646L204.443 80.1746V77.5334H203.003V80.1746L203.221 81.9646L201.584 81.2006L199.052 80.4148L198.637 81.7463L201.125 82.5757L202.915 82.925L201.671 84.2565L200.143 86.3957L201.278 87.2251L202.85 85.1078L203.723 83.5144L204.596 85.1078L206.168 87.2251L207.303 86.3957L205.775 84.2565L204.531 82.925Z" fill="#A6B7FF"/>
<path d="M204.531 102.308L206.32 101.959L208.809 101.13L208.394 99.7982L205.862 100.584L204.225 101.348L204.443 99.5581V96.9169H203.003V99.5581L203.221 101.348L201.584 100.584L199.052 99.7982L198.637 101.13L201.125 101.959L202.915 102.308L201.671 103.64L200.143 105.779L201.278 106.609L202.85 104.491L203.723 102.898L204.596 104.491L206.168 106.609L207.303 105.779L205.775 103.64L204.531 102.308Z" fill="#A6B7FF"/>
<path d="M204.531 121.692L206.32 121.342L208.809 120.513L208.394 119.181L205.862 119.967L204.225 120.731L204.443 118.941V116.3H203.003V118.941L203.221 120.731L201.584 119.967L199.052 119.181L198.637 120.513L201.125 121.342L202.915 121.692L201.671 123.023L200.143 125.162L201.278 125.992L202.85 123.875L203.723 122.281L204.596 123.875L206.168 125.992L207.303 125.162L205.775 123.023L204.531 121.692Z" fill="#A6B7FF"/>
<path d="M204.531 141.075L206.32 140.726L208.809 139.896L208.394 138.565L205.862 139.351L204.225 140.115L204.443 138.325V135.684H203.003V138.325L203.221 140.115L201.584 139.351L199.052 138.565L198.637 139.896L201.125 140.726L202.915 141.075L201.671 142.407L200.143 144.546L201.278 145.375L202.85 143.258L203.723 141.664L204.596 143.258L206.168 145.375L207.303 144.546L205.775 142.407L204.531 141.075Z" fill="#A6B7FF"/>
<path d="M204.531 160.458L206.32 160.109L208.809 159.28L208.394 157.948L205.862 158.734L204.225 159.498L204.443 157.708V155.067H203.003V157.708L203.221 159.498L201.584 158.734L199.052 157.948L198.637 159.28L201.125 160.109L202.915 160.458L201.671 161.79L200.143 163.929L201.278 164.759L202.85 162.641L203.723 161.048L204.596 162.641L206.168 164.759L207.303 163.929L205.775 161.79L204.531 160.458Z" fill="#A6B7FF"/>
<path d="M204.531 179.842L206.32 179.493L208.809 178.663L208.394 177.332L205.862 178.117L204.225 178.881L204.443 177.092V174.45H203.003V177.092L203.221 178.881L201.584 178.117L199.052 177.332L198.637 178.663L201.125 179.493L202.915 179.842L201.671 181.173L200.143 183.313L201.278 184.142L202.85 182.025L203.723 180.431L204.596 182.025L206.168 184.142L207.303 183.313L205.775 181.173L204.531 179.842Z" fill="#A6B7FF"/>
<path d="M224.395 5.39154L226.184 5.04229L228.673 4.21283L228.258 2.88131L225.726 3.66712L224.089 4.43111L224.307 2.6412V0H222.867V2.6412L223.085 4.43111L221.448 3.66712L218.916 2.88131L218.501 4.21283L220.989 5.04229L222.779 5.39154L221.535 6.72306L220.007 8.86222L221.142 9.69168L222.714 7.57436L223.587 5.9809L224.46 7.57436L226.032 9.69168L227.167 8.86222L225.639 6.72306L224.395 5.39154Z" fill="#A6B7FF"/>
<path d="M224.395 24.7748L226.184 24.4256L228.673 23.5961L228.258 22.2646L225.726 23.0504L224.089 23.8144L224.307 22.0245V19.3833H222.867V22.0245L223.085 23.8144L221.448 23.0504L218.916 22.2646L218.501 23.5961L220.989 24.4256L222.779 24.7748L221.535 26.1064L220.007 28.2455L221.142 29.075L222.714 26.9577L223.587 25.3642L224.46 26.9577L226.032 29.075L227.167 28.2455L225.639 26.1064L224.395 24.7748Z" fill="#A6B7FF"/>
<path d="M224.395 44.1583L226.184 43.809L228.673 42.9796L228.258 41.648L225.726 42.4338L224.089 43.1978L224.307 41.4079V38.7667H222.867V41.4079L223.085 43.1978L221.448 42.4338L218.916 41.648L218.501 42.9796L220.989 43.809L222.779 44.1583L221.535 45.4898L220.007 47.6289L221.142 48.4584L222.714 46.3411L223.587 44.7476L224.46 46.3411L226.032 48.4584L227.167 47.6289L225.639 45.4898L224.395 44.1583Z" fill="#A6B7FF"/>
<path d="M224.395 63.5417L226.184 63.1924L228.673 62.363L228.258 61.0315L225.726 61.8173L224.089 62.5813L224.307 60.7913V58.1501H222.867V60.7913L223.085 62.5813L221.448 61.8173L218.916 61.0315L218.501 62.363L220.989 63.1924L222.779 63.5417L221.535 64.8732L220.007 67.0124L221.142 67.8418L222.714 65.7245L223.587 64.1311L224.46 65.7245L226.032 67.8418L227.167 67.0124L225.639 64.8732L224.395 63.5417Z" fill="#A6B7FF"/>
<path d="M224.395 82.925L226.184 82.5757L228.673 81.7463L228.258 80.4148L225.726 81.2006L224.089 81.9646L224.307 80.1746V77.5334H222.867V80.1746L223.085 81.9646L221.448 81.2006L218.916 80.4148L218.501 81.7463L220.989 82.5757L222.779 82.925L221.535 84.2565L220.007 86.3957L221.142 87.2251L222.714 85.1078L223.587 83.5144L224.46 85.1078L226.032 87.2251L227.167 86.3957L225.639 84.2565L224.395 82.925Z" fill="#A6B7FF"/>
<path d="M224.395 102.308L226.184 101.959L228.673 101.13L228.258 99.7982L225.726 100.584L224.089 101.348L224.307 99.5581V96.9169H222.867V99.5581L223.085 101.348L221.448 100.584L218.916 99.7982L218.501 101.13L220.989 101.959L222.779 102.308L221.535 103.64L220.007 105.779L221.142 106.609L222.714 104.491L223.587 102.898L224.46 104.491L226.032 106.609L227.167 105.779L225.639 103.64L224.395 102.308Z" fill="#A6B7FF"/>
<path d="M224.395 121.692L226.184 121.342L228.673 120.513L228.258 119.181L225.726 119.967L224.089 120.731L224.307 118.941V116.3H222.867V118.941L223.085 120.731L221.448 119.967L218.916 119.181L218.501 120.513L220.989 121.342L222.779 121.692L221.535 123.023L220.007 125.162L221.142 125.992L222.714 123.875L223.587 122.281L224.46 123.875L226.032 125.992L227.167 125.162L225.639 123.023L224.395 121.692Z" fill="#A6B7FF"/>
<path d="M224.395 141.075L226.184 140.726L228.673 139.896L228.258 138.565L225.726 139.351L224.089 140.115L224.307 138.325V135.684H222.867V138.325L223.085 140.115L221.448 139.351L218.916 138.565L218.501 139.896L220.989 140.726L222.779 141.075L221.535 142.407L220.007 144.546L221.142 145.375L222.714 143.258L223.587 141.664L224.46 143.258L226.032 145.375L227.167 144.546L225.639 142.407L224.395 141.075Z" fill="#A6B7FF"/>
<path d="M224.395 160.458L226.184 160.109L228.673 159.28L228.258 157.948L225.726 158.734L224.089 159.498L224.307 157.708V155.067H222.867V157.708L223.085 159.498L221.448 158.734L218.916 157.948L218.501 159.28L220.989 160.109L222.779 160.458L221.535 161.79L220.007 163.929L221.142 164.759L222.714 162.641L223.587 161.048L224.46 162.641L226.032 164.759L227.167 163.929L225.639 161.79L224.395 160.458Z" fill="#A6B7FF"/>
<path d="M224.395 179.842L226.184 179.493L228.673 178.663L228.258 177.332L225.726 178.117L224.089 178.881L224.307 177.092V174.45H222.867V177.092L223.085 178.881L221.448 178.117L218.916 177.332L218.501 178.663L220.989 179.493L222.779 179.842L221.535 181.173L220.007 183.313L221.142 184.142L222.714 182.025L223.587 180.431L224.46 182.025L226.032 184.142L227.167 183.313L225.639 181.173L224.395 179.842Z" fill="#A6B7FF"/>
<path d="M184.667 199.225L186.457 198.876L188.945 198.047L188.531 196.715L185.999 197.501L184.361 198.265L184.58 196.475V193.834H183.139V196.475L183.357 198.265L181.72 197.501L179.188 196.715L178.773 198.047L181.262 198.876L183.052 199.225L181.808 200.557L180.28 202.696L181.415 203.525L182.986 201.408L183.859 199.815L184.733 201.408L186.304 203.525L187.439 202.696L185.911 200.557L184.667 199.225Z" fill="#A6B7FF"/>
<path d="M184.667 218.609L186.457 218.259L188.945 217.43L188.531 216.098L185.999 216.884L184.361 217.648L184.58 215.858V213.217H183.139V215.858L183.357 217.648L181.72 216.884L179.188 216.098L178.773 217.43L181.262 218.259L183.052 218.609L181.808 219.94L180.28 222.079L181.415 222.909L182.986 220.791L183.859 219.198L184.733 220.791L186.304 222.909L187.439 222.079L185.911 219.94L184.667 218.609Z" fill="#A6B7FF"/>
<path d="M184.667 237.992L186.457 237.643L188.945 236.813L188.531 235.482L185.999 236.268L184.361 237.032L184.58 235.242V232.6H183.139V235.242L183.357 237.032L181.72 236.268L179.188 235.482L178.773 236.813L181.262 237.643L183.052 237.992L181.808 239.324L180.28 241.463L181.415 242.292L182.986 240.175L183.859 238.581L184.733 240.175L186.304 242.292L187.439 241.463L185.911 239.324L184.667 237.992Z" fill="#A6B7FF"/>
<path d="M184.667 257.375L186.457 257.026L188.945 256.197L188.531 254.865L185.999 255.651L184.361 256.415L184.58 254.625V251.984H183.139V254.625L183.357 256.415L181.72 255.651L179.188 254.865L178.773 256.197L181.262 257.026L183.052 257.375L181.808 258.707L180.28 260.846L181.415 261.675L182.986 259.558L183.859 257.965L184.733 259.558L186.304 261.675L187.439 260.846L185.911 258.707L184.667 257.375Z" fill="#A6B7FF"/>
<path d="M184.667 276.759L186.457 276.409L188.945 275.58L188.531 274.248L185.999 275.034L184.361 275.798L184.58 274.008V271.367H183.139V274.008L183.357 275.798L181.72 275.034L179.188 274.248L178.773 275.58L181.262 276.409L183.052 276.759L181.808 278.09L180.28 280.229L181.415 281.059L182.986 278.942L183.859 277.348L184.733 278.942L186.304 281.059L187.439 280.229L185.911 278.09L184.667 276.759Z" fill="#A6B7FF"/>
<path d="M184.667 296.142L186.457 295.793L188.945 294.963L188.531 293.632L185.999 294.418L184.361 295.182L184.58 293.392V290.75H183.139V293.392L183.357 295.182L181.72 294.418L179.188 293.632L178.773 294.963L181.262 295.793L183.052 296.142L181.808 297.474L180.28 299.613L181.415 300.442L182.986 298.325L183.859 296.731L184.733 298.325L186.304 300.442L187.439 299.613L185.911 297.474L184.667 296.142Z" fill="#A6B7FF"/>
<path d="M184.667 315.525L186.457 315.176L188.945 314.347L188.531 313.015L185.999 313.801L184.361 314.565L184.58 312.775V310.134H183.139V312.775L183.357 314.565L181.72 313.801L179.188 313.015L178.773 314.347L181.262 315.176L183.052 315.525L181.808 316.857L180.28 318.996L181.415 319.825L182.986 317.708L183.859 316.115L184.733 317.708L186.304 319.825L187.439 318.996L185.911 316.857L184.667 315.525Z" fill="#A6B7FF"/>
<path d="M184.667 334.909L186.457 334.56L188.945 333.73L188.531 332.399L185.999 333.184L184.361 333.948L184.58 332.158V329.517H183.139V332.158L183.357 333.948L181.72 333.184L179.188 332.399L178.773 333.73L181.262 334.56L183.052 334.909L181.808 336.24L180.28 338.379L181.415 339.209L182.986 337.092L183.859 335.498L184.733 337.092L186.304 339.209L187.439 338.379L185.911 336.24L184.667 334.909Z" fill="#A6B7FF"/>
<path d="M184.667 354.292L186.457 353.943L188.945 353.113L188.531 351.782L185.999 352.568L184.361 353.332L184.58 351.542V348.901H183.139V351.542L183.357 353.332L181.72 352.568L179.188 351.782L178.773 353.113L181.262 353.943L183.052 354.292L181.808 355.624L180.28 357.763L181.415 358.592L182.986 356.475L183.859 354.882L184.733 356.475L186.304 358.592L187.439 357.763L185.911 355.624L184.667 354.292Z" fill="#A6B7FF"/>
<path d="M184.667 373.675L186.457 373.326L188.945 372.497L188.531 371.165L185.999 371.951L184.361 372.715L184.58 370.925V368.284H183.139V370.925L183.357 372.715L181.72 371.951L179.188 371.165L178.773 372.497L181.262 373.326L183.052 373.675L181.808 375.007L180.28 377.146L181.415 377.976L182.986 375.858L183.859 374.265L184.733 375.858L186.304 377.976L187.439 377.146L185.911 375.007L184.667 373.675Z" fill="#A6B7FF"/>
<path d="M204.531 199.225L206.32 198.876L208.809 198.047L208.394 196.715L205.862 197.501L204.225 198.265L204.443 196.475V193.834H203.003V196.475L203.221 198.265L201.584 197.501L199.052 196.715L198.637 198.047L201.125 198.876L202.915 199.225L201.671 200.557L200.143 202.696L201.278 203.525L202.85 201.408L203.723 199.815L204.596 201.408L206.168 203.525L207.303 202.696L205.775 200.557L204.531 199.225Z" fill="#A6B7FF"/>
<path d="M204.531 218.609L206.32 218.259L208.809 217.43L208.394 216.098L205.862 216.884L204.225 217.648L204.443 215.858V213.217H203.003V215.858L203.221 217.648L201.584 216.884L199.052 216.098L198.637 217.43L201.125 218.259L202.915 218.609L201.671 219.94L200.143 222.079L201.278 222.909L202.85 220.791L203.723 219.198L204.596 220.791L206.168 222.909L207.303 222.079L205.775 219.94L204.531 218.609Z" fill="#A6B7FF"/>
<path d="M204.531 237.992L206.32 237.643L208.809 236.813L208.394 235.482L205.862 236.268L204.225 237.032L204.443 235.242V232.6H203.003V235.242L203.221 237.032L201.584 236.268L199.052 235.482L198.637 236.813L201.125 237.643L202.915 237.992L201.671 239.324L200.143 241.463L201.278 242.292L202.85 240.175L203.723 238.581L204.596 240.175L206.168 242.292L207.303 241.463L205.775 239.324L204.531 237.992Z" fill="#A6B7FF"/>
<path d="M204.531 257.375L206.32 257.026L208.809 256.197L208.394 254.865L205.862 255.651L204.225 256.415L204.443 254.625V251.984H203.003V254.625L203.221 256.415L201.584 255.651L199.052 254.865L198.637 256.197L201.125 257.026L202.915 257.375L201.671 258.707L200.143 260.846L201.278 261.675L202.85 259.558L203.723 257.965L204.596 259.558L206.168 261.675L207.303 260.846L205.775 258.707L204.531 257.375Z" fill="#A6B7FF"/>
<path d="M204.531 276.759L206.32 276.409L208.809 275.58L208.394 274.248L205.862 275.034L204.225 275.798L204.443 274.008V271.367H203.003V274.008L203.221 275.798L201.584 275.034L199.052 274.248L198.637 275.58L201.125 276.409L202.915 276.759L201.671 278.09L200.143 280.229L201.278 281.059L202.85 278.942L203.723 277.348L204.596 278.942L206.168 281.059L207.303 280.229L205.775 278.09L204.531 276.759Z" fill="#A6B7FF"/>
<path d="M204.531 296.142L206.32 295.793L208.809 294.963L208.394 293.632L205.862 294.418L204.225 295.182L204.443 293.392V290.75H203.003V293.392L203.221 295.182L201.584 294.418L199.052 293.632L198.637 294.963L201.125 295.793L202.915 296.142L201.671 297.474L200.143 299.613L201.278 300.442L202.85 298.325L203.723 296.731L204.596 298.325L206.168 300.442L207.303 299.613L205.775 297.474L204.531 296.142Z" fill="#A6B7FF"/>
<path d="M204.531 315.525L206.32 315.176L208.809 314.347L208.394 313.015L205.862 313.801L204.225 314.565L204.443 312.775V310.134H203.003V312.775L203.221 314.565L201.584 313.801L199.052 313.015L198.637 314.347L201.125 315.176L202.915 315.525L201.671 316.857L200.143 318.996L201.278 319.825L202.85 317.708L203.723 316.115L204.596 317.708L206.168 319.825L207.303 318.996L205.775 316.857L204.531 315.525Z" fill="#A6B7FF"/>
<path d="M204.531 334.909L206.32 334.56L208.809 333.73L208.394 332.399L205.862 333.184L204.225 333.948L204.443 332.158V329.517H203.003V332.158L203.221 333.948L201.584 333.184L199.052 332.399L198.637 333.73L201.125 334.56L202.915 334.909L201.671 336.24L200.143 338.379L201.278 339.209L202.85 337.092L203.723 335.498L204.596 337.092L206.168 339.209L207.303 338.379L205.775 336.24L204.531 334.909Z" fill="#A6B7FF"/>
<path d="M204.531 354.292L206.32 353.943L208.809 353.113L208.394 351.782L205.862 352.568L204.225 353.332L204.443 351.542V348.901H203.003V351.542L203.221 353.332L201.584 352.568L199.052 351.782L198.637 353.113L201.125 353.943L202.915 354.292L201.671 355.624L200.143 357.763L201.278 358.592L202.85 356.475L203.723 354.882L204.596 356.475L206.168 358.592L207.303 357.763L205.775 355.624L204.531 354.292Z" fill="#A6B7FF"/>
<path d="M204.531 373.675L206.32 373.326L208.809 372.497L208.394 371.165L205.862 371.951L204.225 372.715L204.443 370.925V368.284H203.003V370.925L203.221 372.715L201.584 371.951L199.052 371.165L198.637 372.497L201.125 373.326L202.915 373.675L201.671 375.007L200.143 377.146L201.278 377.976L202.85 375.858L203.723 374.265L204.596 375.858L206.168 377.976L207.303 377.146L205.775 375.007L204.531 373.675Z" fill="#A6B7FF"/>
<path d="M224.395 199.225L226.184 198.876L228.673 198.047L228.258 196.715L225.726 197.501L224.089 198.265L224.307 196.475V193.834H222.867V196.475L223.085 198.265L221.448 197.501L218.916 196.715L218.501 198.047L220.989 198.876L222.779 199.225L221.535 200.557L220.007 202.696L221.142 203.525L222.714 201.408L223.587 199.815L224.46 201.408L226.032 203.525L227.167 202.696L225.639 200.557L224.395 199.225Z" fill="#A6B7FF"/>
<path d="M224.395 218.609L226.184 218.259L228.673 217.43L228.258 216.098L225.726 216.884L224.089 217.648L224.307 215.858V213.217H222.867V215.858L223.085 217.648L221.448 216.884L218.916 216.098L218.501 217.43L220.989 218.259L222.779 218.609L221.535 219.94L220.007 222.079L221.142 222.909L222.714 220.791L223.587 219.198L224.46 220.791L226.032 222.909L227.167 222.079L225.639 219.94L224.395 218.609Z" fill="#A6B7FF"/>
<path d="M224.395 237.992L226.184 237.643L228.673 236.813L228.258 235.482L225.726 236.268L224.089 237.032L224.307 235.242V232.6H222.867V235.242L223.085 237.032L221.448 236.268L218.916 235.482L218.501 236.813L220.989 237.643L222.779 237.992L221.535 239.324L220.007 241.463L221.142 242.292L222.714 240.175L223.587 238.581L224.46 240.175L226.032 242.292L227.167 241.463L225.639 239.324L224.395 237.992Z" fill="#A6B7FF"/>
<path d="M224.395 257.375L226.184 257.026L228.673 256.197L228.258 254.865L225.726 255.651L224.089 256.415L224.307 254.625V251.984H222.867V254.625L223.085 256.415L221.448 255.651L218.916 254.865L218.501 256.197L220.989 257.026L222.779 257.375L221.535 258.707L220.007 260.846L221.142 261.675L222.714 259.558L223.587 257.965L224.46 259.558L226.032 261.675L227.167 260.846L225.639 258.707L224.395 257.375Z" fill="#A6B7FF"/>
<path d="M224.395 276.759L226.184 276.409L228.673 275.58L228.258 274.248L225.726 275.034L224.089 275.798L224.307 274.008V271.367H222.867V274.008L223.085 275.798L221.448 275.034L218.916 274.248L218.501 275.58L220.989 276.409L222.779 276.759L221.535 278.09L220.007 280.229L221.142 281.059L222.714 278.942L223.587 277.348L224.46 278.942L226.032 281.059L227.167 280.229L225.639 278.09L224.395 276.759Z" fill="#A6B7FF"/>
<path d="M224.395 296.142L226.184 295.793L228.673 294.963L228.258 293.632L225.726 294.418L224.089 295.182L224.307 293.392V290.75H222.867V293.392L223.085 295.182L221.448 294.418L218.916 293.632L218.501 294.963L220.989 295.793L222.779 296.142L221.535 297.474L220.007 299.613L221.142 300.442L222.714 298.325L223.587 296.731L224.46 298.325L226.032 300.442L227.167 299.613L225.639 297.474L224.395 296.142Z" fill="#A6B7FF"/>
<path d="M224.395 315.525L226.184 315.176L228.673 314.347L228.258 313.015L225.726 313.801L224.089 314.565L224.307 312.775V310.134H222.867V312.775L223.085 314.565L221.448 313.801L218.916 313.015L218.501 314.347L220.989 315.176L222.779 315.525L221.535 316.857L220.007 318.996L221.142 319.825L222.714 317.708L223.587 316.115L224.46 317.708L226.032 319.825L227.167 318.996L225.639 316.857L224.395 315.525Z" fill="#A6B7FF"/>
<path d="M224.395 334.909L226.184 334.56L228.673 333.73L228.258 332.399L225.726 333.184L224.089 333.948L224.307 332.158V329.517H222.867V332.158L223.085 333.948L221.448 333.184L218.916 332.399L218.501 333.73L220.989 334.56L222.779 334.909L221.535 336.24L220.007 338.379L221.142 339.209L222.714 337.092L223.587 335.498L224.46 337.092L226.032 339.209L227.167 338.379L225.639 336.24L224.395 334.909Z" fill="#A6B7FF"/>
<path d="M224.395 354.292L226.184 353.943L228.673 353.113L228.258 351.782L225.726 352.568L224.089 353.332L224.307 351.542V348.901H222.867V351.542L223.085 353.332L221.448 352.568L218.916 351.782L218.501 353.113L220.989 353.943L222.779 354.292L221.535 355.624L220.007 357.763L221.142 358.592L222.714 356.475L223.587 354.882L224.46 356.475L226.032 358.592L227.167 357.763L225.639 355.624L224.395 354.292Z" fill="#A6B7FF"/>
<path d="M224.395 373.675L226.184 373.326L228.673 372.497L228.258 371.165L225.726 371.951L224.089 372.715L224.307 370.925V368.284H222.867V370.925L223.085 372.715L221.448 371.951L218.916 371.165L218.501 372.497L220.989 373.326L222.779 373.675L221.535 375.007L220.007 377.146L221.142 377.976L222.714 375.858L223.587 374.265L224.46 375.858L226.032 377.976L227.167 377.146L225.639 375.007L224.395 373.675Z" fill="#A6B7FF"/>
</g>
</svg>
