<svg width="48" height="42" viewBox="0 0 48 42" fill="none" xmlns="http://www.w3.org/2000/svg">
<path d="M45.1857 0H2.81428C1.26249 0 0 1.26249 0 2.81428V38.8069C0 40.3587 1.26249 41.6212 2.81428 41.6212H45.1857C46.7375 41.6212 48 40.3587 48 38.8069V2.81428C48 1.26249 46.7375 0 45.1857 0ZM2.81428 2.81428H45.1857V5.68185H2.81269L2.8125 2.81437C2.8125 2.81437 2.81306 2.81428 2.81428 2.81428ZM2.81428 38.8069L2.81278 8.49622H45.1857V38.8069H2.81428Z" fill="#9AA8FF"/>
<path d="M38.2482 22.5175L32.43 17.9074C31.8211 17.4247 30.9359 17.5272 30.4533 18.1364C29.9706 18.7455 30.0732 19.6305 30.6823 20.1131L35.1085 23.6204L30.6822 27.1277C30.0731 27.6104 29.9706 28.4954 30.4533 29.1045C30.731 29.455 31.142 29.6378 31.557 29.6378C31.8631 29.6378 32.1715 29.5383 32.43 29.3334L38.2482 24.7232C38.585 24.4562 38.7814 24.05 38.7814 23.6203C38.7815 23.1907 38.5851 22.7845 38.2482 22.5175Z" fill="#9AA8FF"/>
<path d="M17.5467 18.1366C17.0641 17.5275 16.179 17.4249 15.57 17.9076L9.75181 22.5178C9.41494 22.7847 9.21851 23.1909 9.21851 23.6207C9.21851 24.0504 9.41494 24.4566 9.75172 24.7236L15.5699 29.3339C15.8285 29.5387 16.1367 29.6382 16.4429 29.6382C16.8578 29.6381 17.2689 29.4553 17.5466 29.1049C18.0293 28.4959 17.9267 27.6108 17.3177 27.1281L12.8914 23.6208L17.3176 20.1135C17.9268 19.6307 18.0294 18.7457 17.5467 18.1366Z" fill="#9AA8FF"/>
<path d="M26.3285 14.9206C25.5771 14.7215 24.807 15.1693 24.6081 15.9206L20.7203 30.6C20.5214 31.3512 20.969 32.1215 21.7204 32.3204C21.8411 32.3524 21.9623 32.3677 22.0815 32.3677C22.7044 32.3677 23.2738 31.951 23.4408 31.3204L27.3286 16.6411C27.5275 15.8898 27.0798 15.1195 26.3285 14.9206Z" fill="#9AA8FF"/>
</svg>
